<?xml version="1.0" encoding="UTF-8" standalone="no"?>
<svg
   version="1.1"
   viewBox="0 0 600 409.09473"
   id="svg2210"
   xml:space="preserve"
   width="600"
   height="409.09473"
   sodipodi:docname="Logo Mairie de Toulouse-Aimer vivre.svg"
   inkscape:version="1.2.2 (b0a8486541, 2022-12-01)"
   xmlns:inkscape="http://www.inkscape.org/namespaces/inkscape"
   xmlns:sodipodi="http://sodipodi.sourceforge.net/DTD/sodipodi-0.dtd"
   xmlns="http://www.w3.org/2000/svg"
   xmlns:svg="http://www.w3.org/2000/svg"><sodipodi:namedview
     id="namedview44709"
     pagecolor="#ffffff"
     bordercolor="#000000"
     borderopacity="0.25"
     inkscape:showpageshadow="2"
     inkscape:pageopacity="0.0"
     inkscape:pagecheckerboard="0"
     inkscape:deskcolor="#d1d1d1"
     showgrid="false"
     inkscape:zoom="1.153767"
     inkscape:cx="222.74861"
     inkscape:cy="252.65066"
     inkscape:window-width="1850"
     inkscape:window-height="1136"
     inkscape:window-x="0"
     inkscape:window-y="0"
     inkscape:window-maximized="1"
     inkscape:current-layer="svg2210" /><defs
     id="defs45901" /><g
     id="flag-occitania"><path
       d="m 253.10808,409.09475 c 18.07886,-19.45203 58.86835,-10.75411 86.60384,-25.98347 v -58.00923 c -27.73549,15.22936 -68.52498,6.53144 -86.60384,25.98347 z"
       style="fill:#ed1c24;fill-opacity:1;fill-rule:nonzero;stroke:none;stroke-width:1.77871"
       id="path26197"
       clip-path="url(#clipPath45401)"
       sodipodi:nodetypes="ccccc" /><path
       d="m 315.90685,363.47862 c -0.64567,0 -1.20063,0.3931 -1.44254,0.95161 l -0.002,-0.004 c -1.27711,-0.99785 -3.35821,-3.13409 -3.9274,-6.74488 l -0.004,-0.0142 c 0.0249,0.004 0.0462,0.016 0.0711,0.016 0.86802,0 1.57061,-0.70437 1.57061,-1.57061 0,-0.86801 -0.70259,-1.5706 -1.57061,-1.5706 -0.86801,0 -1.5706,0.70259 -1.5706,1.5706 0,0.51227 0.26147,0.94806 0.64389,1.23443 l -0.0196,0.0178 c -1.22554,1.07256 -4.86657,3.87937 -10.18848,4.646 0.76662,-5.32547 3.57344,-8.96472 4.64244,-10.18848 l 0.0196,-0.0213 c 0.28637,0.38242 0.72038,0.64567 1.23621,0.64567 0.86801,0 1.5706,-0.70437 1.5706,-1.5706 0,-0.86802 -0.70259,-1.57061 -1.5706,-1.57061 -0.86802,0 -1.57061,0.70259 -1.57061,1.57061 0,0.0231 0.0125,0.0427 0.0125,0.0676 l -0.0107,-0.002 c -3.61257,-0.56741 -5.74703,-2.65207 -6.74667,-3.9274 l -0.002,-0.004 c 0.55851,-0.24191 0.95161,-0.79331 0.95161,-1.43898 0,-0.86801 -0.70437,-1.57239 -1.57239,-1.57239 -0.86623,0 -1.5706,0.70438 -1.5706,1.57239 0,0.64567 0.3931,1.19707 0.95161,1.43898 l -0.004,0.004 c -0.99785,1.27533 -3.13231,3.35999 -6.74488,3.9274 l -0.0142,0.002 c 0.004,-0.0249 0.016,-0.0445 0.016,-0.0676 0,-0.86802 -0.7026,-1.57061 -1.57061,-1.57061 -0.86801,0 -1.5706,0.70259 -1.5706,1.57061 0,0.86623 0.70259,1.5706 1.5706,1.5706 0.51227,0 0.94806,-0.26325 1.23621,-0.64567 l 0.016,0.0213 c 1.07256,1.22376 3.87937,4.86301 4.646,10.18848 -5.32369,-0.76663 -8.96294,-3.57344 -10.18848,-4.646 l -0.0213,-0.0178 c 0.38242,-0.28637 0.64567,-0.72216 0.64567,-1.23443 0,-0.86801 -0.70259,-1.5706 -1.57061,-1.5706 -0.86801,0 -1.5706,0.70259 -1.5706,1.5706 0,0.86624 0.70259,1.57061 1.5706,1.57061 0.0231,0 0.0427,-0.0125 0.0676,-0.016 l -0.002,0.0142 c -0.56741,3.61079 -2.65207,5.74703 -3.92741,6.74488 l -0.004,0.004 c -0.24191,-0.55851 -0.79331,-0.95161 -1.43898,-0.95161 -0.86802,0 -1.57239,0.70259 -1.57239,1.57061 0,0.86801 0.70437,1.5706 1.57239,1.5706 0.64567,0 1.19707,-0.39132 1.43898,-0.94983 l 0.004,0.002 c 1.27534,0.99963 3.36,3.13409 3.92741,6.74666 l 0.002,0.0107 c -0.0249,0 -0.0445,-0.0125 -0.0676,-0.0125 -0.86801,0 -1.5706,0.70259 -1.5706,1.57061 0,0.86801 0.70259,1.5706 1.5706,1.5706 0.86802,0 1.57061,-0.70259 1.57061,-1.5706 0,-0.51583 -0.26325,-0.94984 -0.64567,-1.23621 l 0.0213,-0.0178 c 1.22554,-1.07078 4.86479,-3.8776 10.18848,-4.64422 -0.76663,5.32191 -3.57344,8.96294 -4.646,10.18848 l -0.016,0.0196 c -0.28815,-0.38242 -0.72216,-0.64389 -1.23621,-0.64389 -0.86801,0 -1.5706,0.70259 -1.5706,1.5706 0,0.86624 0.70259,1.57061 1.5706,1.57061 0.86801,0 1.57061,-0.70437 1.57061,-1.57061 0,-0.0249 -0.0125,-0.0462 -0.016,-0.0711 l 0.0142,0.004 c 3.61257,0.56919 5.74703,2.65029 6.74488,3.9274 l 0.004,0.002 c -0.55851,0.24191 -0.95161,0.79687 -0.95161,1.44254 0,0.86801 0.70437,1.57061 1.5706,1.57061 0.86802,0 1.57239,-0.7026 1.57239,-1.57061 0,-0.64567 -0.3931,-1.20063 -0.95161,-1.44254 l 0.002,-0.002 c 0.99964,-1.27711 3.1341,-3.35821 6.74667,-3.9274 l 0.0107,-0.004 c 0,0.0249 -0.0125,0.0462 -0.0125,0.0711 0,0.86624 0.70259,1.57061 1.57061,1.57061 0.86801,0 1.5706,-0.70437 1.5706,-1.57061 0,-0.86801 -0.70259,-1.5706 -1.5706,-1.5706 -0.51583,0 -0.94984,0.26147 -1.23621,0.64389 l -0.0196,-0.0196 c -1.069,-1.22554 -3.87582,-4.86657 -4.64244,-10.18848 5.32191,0.76662 8.96294,3.57344 10.18848,4.64422 l 0.0196,0.0178 c -0.38242,0.28637 -0.64389,0.72038 -0.64389,1.23621 0,0.86801 0.70259,1.5706 1.5706,1.5706 0.86802,0 1.57061,-0.70259 1.57061,-1.5706 0,-0.86802 -0.70259,-1.57061 -1.57061,-1.57061 -0.0249,0 -0.0462,0.0125 -0.0711,0.0125 l 0.004,-0.0107 c 0.56919,-3.61257 2.65029,-5.74703 3.9274,-6.74666 l 0.002,-0.002 c 0.24191,0.55851 0.79687,0.94983 1.44254,0.94983 0.86801,0 1.57061,-0.70259 1.57061,-1.5706 0,-0.86802 -0.7026,-1.57061 -1.57061,-1.57061 m -6.7022,6.31977 c -3.54498,-2.98646 -9.07322,-3.66237 -11.83734,-3.81178 0.14763,2.7659 0.82354,8.29414 3.81,11.83912 0,0 -2.49909,0.5603 -4.74917,2.99002 -2.25185,-2.42972 -4.74916,-2.99002 -4.74916,-2.99002 2.98824,-3.54498 3.66059,-9.07322 3.81,-11.83912 -2.76234,0.14941 -8.29237,0.82532 -11.83912,3.81178 0,0 -0.55852,-2.49909 -2.98824,-4.74916 2.42972,-2.25186 2.98824,-4.74917 2.98824,-4.74917 3.54675,2.98824 9.07678,3.66059 11.83912,3.81 -0.14941,-2.76412 -0.82176,-8.29414 -3.81,-11.83912 0,0 2.49731,-0.5603 4.74916,-2.98824 2.25008,2.42794 4.74917,2.98824 4.74917,2.98824 -2.98646,3.54498 -3.66237,9.075 -3.81,11.83912 2.76412,-0.14941 8.29236,-0.82176 11.83734,-3.81 0,0 0.5603,2.49731 2.99002,4.74917 -2.42972,2.25007 -2.99002,4.74916 -2.99002,4.74916"
       style="fill:#fee10a;fill-opacity:1;fill-rule:nonzero;stroke:none;stroke-width:1.77871"
       id="path26201"
       clip-path="url(#clipPath45416)" /></g><g
     id="text-black"><path
       d="m 22.045397,353.97658 -6.86406,11.85513 -6.8622821,-11.85513 H 5.7688e-6 v 29.114 H 8.3190549 v -14.18169 l 6.4887511,10.89819 h 0.747061 l 6.49053,-10.89819 v 14.18169 h 8.31727 v -29.114 z"
       style="fill:#231f20;fill-opacity:1;fill-rule:nonzero;stroke:none;stroke-width:1.77871"
       id="path26205"
       clip-path="url(#clipPath45431)" /><path
       d="m 55.524718,383.09185 -0.999638,-3.74242 h -8.399091 l -0.997859,3.74242 h -8.943378 l 9.274219,-29.114 h 9.733127 l 9.275998,29.114 z m -7.609342,-10.39837 h 4.822096 l -2.411937,-8.9416 z"
       style="fill:#231f20;fill-opacity:1;fill-rule:nonzero;stroke:none;stroke-width:1.77871"
       id="path26209"
       clip-path="url(#clipPath45341)" /><path
       d="m 70.292317,353.97628 h 8.319047 v 29.11391 h -8.319047 z"
       style="fill:#231f20;fill-opacity:1;fill-rule:nonzero;stroke:none;stroke-width:1.77872"
       id="path26211"
       clip-path="url(#clipPath31083)" /><path
       d="m 101.94278,383.05019 -4.615765,-9.14971 h -2.079318 v 9.14971 H 86.92687 v -29.114 h 11.645245 c 3.191015,0 5.825295,0.9356 7.904605,2.80681 2.0811,1.87121 3.11987,4.34718 3.11987,7.42257 0,1.72002 -0.39665,3.27284 -1.1864,4.66024 -0.78975,1.3874 -1.89256,2.50976 -3.30663,3.3671 l 5.73991,10.85728 z M 95.247697,361.59 v 5.40373 h 3.158998 c 0.887579,0.0285 1.586614,-0.1921 2.100665,-0.66346 0.51227,-0.47136 0.77018,-1.1366 0.77018,-1.9975 0,-0.85912 -0.25791,-1.53147 -0.77018,-2.01528 C 99.993309,361.83012 99.294274,361.59 98.406695,361.59 Z"
       style="fill:#231f20;fill-opacity:1;fill-rule:nonzero;stroke:none;stroke-width:1.77871"
       id="path26215"
       clip-path="url(#clipPath45371)" /><path
       d="m 117.0832,353.97628 h 8.31904 v 29.11391 h -8.31904 z"
       style="fill:#231f20;fill-opacity:1;fill-rule:nonzero;stroke:none;stroke-width:1.77872"
       id="path26217"
       clip-path="url(#clipPath31071)" /><path
       d="m 142.03838,375.43917 h 10.81281 v 7.65381 h -19.13186 v -29.11756 h 18.92553 v 7.57199 h -10.60648 v 3.16077 h 9.56593 v 7.48661 h -9.56593 z"
       style="fill:#231f20;fill-opacity:1;fill-rule:nonzero;stroke:none;stroke-width:1.77871"
       id="path26221"
       clip-path="url(#clipPath45356)" /><path
       d="m 184.87837,353.97673 c 4.0199,0 7.38345,1.39273 10.08709,4.17998 2.70365,2.78725 4.05369,6.24685 4.05369,10.37702 0,4.13196 -1.35004,7.59156 -4.05369,10.37702 -2.70364,2.78725 -6.06719,4.17998 -10.08709,4.17998 H 172.8169 v -29.114 z m 0,21.04753 c 1.69156,0 3.08429,-0.60476 4.17998,-1.81073 1.09569,-1.20775 1.64353,-2.76768 1.64353,-4.6798 0,-1.91212 -0.54784,-3.47205 -1.64353,-4.67802 -1.09569,-1.20775 -2.48842,-1.80895 -4.17998,-1.80895 h -3.3262 v 12.9775 z"
       style="fill:#231f20;fill-opacity:1;fill-rule:nonzero;stroke:none;stroke-width:1.77871"
       id="path26225"
       clip-path="url(#clipPath45386)" /><path
       d="m 214.61741,375.43917 h 10.81281 v 7.65381 h -19.13186 v -29.11756 h 18.92553 v 7.57199 h -10.60648 v 3.16077 h 9.56593 v 7.48661 h -9.56593 z"
       style="fill:#231f20;fill-opacity:1;fill-rule:nonzero;stroke:none;stroke-width:1.77871"
       id="path26229"
       clip-path="url(#clipPath45326)" /><path
       d="m 387.2954,353.97673 v 8.07003 h -6.86228 v 21.04397 h -8.31727 v -21.04397 h -6.86406 v -8.07003 z"
       style="fill:#231f20;fill-opacity:1;fill-rule:nonzero;stroke:none;stroke-width:1.77871"
       id="path26233"
       clip-path="url(#clipPath45311)" /><path
       d="m 418.05436,379.36921 c -2.9829,2.92421 -6.63461,4.38809 -10.96222,4.38809 -4.32228,0 -7.97754,-1.46388 -10.95688,-4.38809 -2.98113,-2.92421 -4.47169,-6.535 -4.47169,-10.83415 0,-4.29916 1.49056,-7.90995 4.47169,-10.83415 2.97934,-2.92599 6.6346,-4.38987 10.95688,-4.38987 4.32761,0 7.97932,1.46388 10.96222,4.38987 2.97935,2.9242 4.47169,6.53499 4.47169,10.83415 0,4.29915 -1.49234,7.90994 -4.47169,10.83415 m -16.05646,-5.77904 c 1.34649,1.34293 3.04338,2.01528 5.09424,2.01528 2.05264,0 3.75131,-0.67235 5.09602,-2.01528 1.34649,-1.34649 2.01884,-3.03093 2.01884,-5.05511 0,-2.02418 -0.67235,-3.7104 -2.01884,-5.05333 -1.34471,-1.34471 -3.04338,-2.01706 -5.09602,-2.01706 -2.05086,0 -3.74775,0.67235 -5.09424,2.01706 -1.34471,1.34293 -2.01528,3.02915 -2.01528,5.05333 0,2.02418 0.67057,3.70862 2.01528,5.05511"
       style="fill:#231f20;fill-opacity:1;fill-rule:nonzero;stroke:none;stroke-width:1.77871"
       id="path26237"
       clip-path="url(#clipPath45236)" /><path
       d="m 449.80976,380.88738 c -2.19138,1.91212 -5.04799,2.87085 -8.56629,2.87085 -3.52363,0 -6.38025,-0.95873 -8.57163,-2.87085 -2.1896,-1.91212 -3.28528,-4.42188 -3.28528,-7.52752 V 353.9772 h 8.31727 v 18.4684 c 0,2.15936 1.17928,3.2426 3.53964,3.2426 2.35324,0 3.53431,-1.08324 3.53431,-3.2426 v -18.4684 h 8.31904 v 19.38266 c 0,3.10564 -1.09746,5.6154 -3.28706,7.52752"
       style="fill:#231f20;fill-opacity:1;fill-rule:nonzero;stroke:none;stroke-width:1.77871"
       id="path26241"
       clip-path="url(#clipPath45056)" /><path
       d="m 469.31621,375.0233 h 9.56593 v 8.07003 h -17.88498 v -29.11756 h 8.31905 z"
       style="fill:#231f20;fill-opacity:1;fill-rule:nonzero;stroke:none;stroke-width:1.77871"
       id="path26245"
       clip-path="url(#clipPath45011)" /><path
       d="m 509.64073,379.36921 c -2.98113,2.92421 -6.63461,4.38809 -10.96222,4.38809 -4.32228,0 -7.97754,-1.46388 -10.95688,-4.38809 -2.98113,-2.92421 -4.47169,-6.535 -4.47169,-10.83415 0,-4.29916 1.49056,-7.90995 4.47169,-10.83415 2.97934,-2.92599 6.6346,-4.38987 10.95688,-4.38987 4.32761,0 7.98109,1.46388 10.96222,4.38987 2.97935,2.9242 4.46991,6.53499 4.46991,10.83415 0,4.29915 -1.49056,7.90994 -4.46991,10.83415 m -16.05646,-5.77904 c 1.34649,1.34293 3.04338,2.01528 5.09424,2.01528 2.05442,0 3.75131,-0.67235 5.09602,-2.01528 1.34649,-1.34649 2.01884,-3.03093 2.01884,-5.05511 0,-2.02418 -0.67235,-3.7104 -2.01884,-5.05333 -1.34471,-1.34471 -3.0416,-2.01706 -5.09602,-2.01706 -2.05086,0 -3.74775,0.67235 -5.09424,2.01706 -1.34471,1.34293 -2.01528,3.02915 -2.01528,5.05333 0,2.02418 0.67057,3.70862 2.01528,5.05511"
       style="fill:#231f20;fill-opacity:1;fill-rule:nonzero;stroke:none;stroke-width:1.77871"
       id="path26249"
       clip-path="url(#clipPath45266)" /><path
       d="m 541.39612,380.88738 c -2.19138,1.91212 -5.04799,2.87085 -8.56629,2.87085 -3.52363,0 -6.38025,-0.95873 -8.56985,-2.87085 -2.19138,-1.91212 -3.28706,-4.42188 -3.28706,-7.52752 V 353.9772 h 8.31727 v 18.4684 c 0,2.15936 1.17928,3.2426 3.53964,3.2426 2.35502,0 3.53431,-1.08324 3.53431,-3.2426 v -18.4684 h 8.31904 v 19.38266 c 0,3.10564 -1.09746,5.6154 -3.28706,7.52752"
       style="fill:#231f20;fill-opacity:1;fill-rule:nonzero;stroke:none;stroke-width:1.77871"
       id="path26253"
       clip-path="url(#clipPath45281)" /><path
       d="m 563.06496,383.75723 c -3.16078,0 -5.79683,-0.6599 -7.90283,-1.97615 -2.106,-1.31625 -3.52186,-3.09852 -4.24223,-5.34326 l 7.11308,-4.11773 c 0.9694,2.46708 2.71609,3.70151 5.24009,3.70151 1.88722,0 2.82816,-0.49804 2.82816,-1.49768 0,-0.2757 -0.0694,-0.52472 -0.20811,-0.74884 -0.13696,-0.22056 -0.40199,-0.41622 -0.78975,-0.58342 -0.38776,-0.16542 -0.7275,-0.29526 -1.01921,-0.39309 -0.29171,-0.0978 -0.79864,-0.24369 -1.51902,-0.43757 -0.72038,-0.19388 -1.26111,-0.34685 -1.62041,-0.45713 -5.79505,-1.74847 -8.69436,-4.86656 -8.69436,-9.35781 0,-2.66274 0.96407,-4.86835 2.89042,-6.61504 1.92812,-1.7467 4.45745,-2.62005 7.59155,-2.62005 2.46708,0 4.6798,0.58342 6.63461,1.74848 1.95303,1.16327 3.38845,2.84238 4.30449,5.0302 l -6.90497,4.0359 c -0.80576,-2.05263 -2.13446,-3.07895 -3.99322,-3.07895 -0.72038,0 -1.26822,0.14763 -1.64353,0.43756 -0.37175,0.28993 -0.5603,0.65813 -0.5603,1.10281 0,0.6101 0.32729,1.08146 0.97652,1.41407 0.65101,0.33262 1.90678,0.76307 3.76554,1.28957 1.38562,0.41444 2.52399,0.80932 3.40979,1.18641 0.88758,0.37175 1.81785,0.90003 2.78725,1.57949 0.9694,0.67947 1.69867,1.55282 2.18248,2.62005 0.48381,1.06723 0.7275,2.323 0.7275,3.76376 0,2.9669 -1.01565,5.26144 -3.05584,6.88541 -2.0384,1.62041 -4.8043,2.4315 -8.2977,2.4315"
       style="fill:#231f20;fill-opacity:1;fill-rule:nonzero;stroke:none;stroke-width:1.77871"
       id="path26257"
       clip-path="url(#clipPath45296)" /><path
       d="m 580.86635,353.97658 v 29.114 h 19.13364 v -7.65025 h -10.81281 v -3.24615 h 9.56593 v -7.48661 h -9.56593 v -3.16078 h 10.6047 v -7.57021 z"
       style="fill:#231f20;fill-opacity:1;fill-rule:nonzero;stroke:none;stroke-width:1.77871"
       id="path26261"
       clip-path="url(#clipPath45251)" /></g><g
     id="text-red"><path
       d="M 30.677493,304.39033 28.06634,296.99977 H 11.202345 l -2.4652991,7.39056 H -1.1556e-6 L 14.368457,263.33581 H 24.39863 l 14.484074,41.05452 z M 13.840179,289.4349 H 25.39471 l -5.924899,-16.77684 z"
       style="fill:#ed1c24;fill-opacity:1;fill-rule:nonzero;stroke:none;stroke-width:1.77871"
       id="path26265"
       clip-path="url(#clipPath45146)" /><path
       d="m 45.687001,271.5449 c -1.250437,0 -2.337231,-0.45713 -3.255048,-1.3785 -0.917817,-0.91782 -1.378504,-2.00284 -1.378504,-3.25505 0,-1.25044 0.460687,-2.34435 1.378504,-3.28529 0.917817,-0.93916 2.004611,-1.40696 3.255048,-1.40696 1.291347,0 2.39415,0.4678 3.313746,1.40696 0.919595,0.94094 1.378504,2.03485 1.378504,3.28529 0,1.25221 -0.458909,2.33723 -1.378504,3.25505 -0.919596,0.92137 -2.022399,1.3785 -3.313746,1.3785 m -3.753088,3.52008 h 7.566653 v 29.32745 h -7.566653 z"
       style="fill:#ed1c24;fill-opacity:1;fill-rule:nonzero;stroke:none;stroke-width:1.77871"
       id="path26269"
       clip-path="url(#clipPath45161)" /><path
       d="m 88.26658,274.24329 c 3.36355,0 6.052966,1.09747 8.064693,3.28529 2.013505,2.18959 3.022036,5.12269 3.022036,8.79752 v 18.06463 h -7.566652 v -17.53635 c 0,-1.76093 -0.430449,-3.12876 -1.291347,-4.10528 -0.860898,-0.97829 -2.072203,-1.46744 -3.637472,-1.46744 -1.718239,0 -3.055832,0.56741 -4.014559,1.70046 -0.958728,1.13482 -1.438981,2.77835 -1.438981,4.92881 v 16.4798 h -7.564874 v -17.53635 c 0,-1.76093 -0.430449,-3.12876 -1.293125,-4.10528 -0.857341,-0.97829 -2.070424,-1.46744 -3.633915,-1.46744 -1.680885,0 -3.022036,0.56741 -4.018116,1.70046 -0.996081,1.13482 -1.494121,2.77835 -1.494121,4.92881 v 16.4798 h -7.566653 v -29.32745 h 7.566653 v 3.10919 c 1.75737,-2.61827 4.475247,-3.92918 8.150071,-3.92918 3.596562,0 6.25574,1.40874 7.977536,4.22445 1.954808,-2.81571 4.868343,-4.22445 8.738826,-4.22445"
       style="fill:#ed1c24;fill-opacity:1;fill-rule:nonzero;stroke:none;stroke-width:1.77871"
       id="path26273"
       clip-path="url(#clipPath45086)" /><path
       d="m 111.61133,292.83573 c 1.01565,3.67482 3.77265,5.51402 8.26925,5.51402 2.89219,0 5.08,-0.9783 6.56701,-2.9331 l 6.10099,3.51651 c -2.89397,4.1871 -7.15399,6.27709 -12.78718,6.27709 -4.847,0 -8.73705,-1.46388 -11.67015,-4.39698 -2.9331,-2.9331 -4.39876,-6.62927 -4.39876,-11.08673 0,-4.41833 1.4461,-8.10205 4.33829,-11.05649 2.89574,-2.95089 6.60792,-4.42723 11.1472,-4.42723 4.29916,0 7.84947,1.48701 10.64383,4.45746 2.79436,2.97401 4.19421,6.64884 4.19421,11.02626 0,0.97829 -0.0996,2.01528 -0.29527,3.10919 z m -0.11917,-5.8662 h 14.95543 c -0.42689,-1.99216 -1.31803,-3.47917 -2.66629,-4.45568 -1.34827,-0.9783 -2.88508,-1.46922 -4.60332,-1.46922 -2.03485,0 -3.71573,0.52116 -5.04621,1.5546 -1.3287,1.03699 -2.20916,2.49375 -2.63961,4.3703"
       style="fill:#ed1c24;fill-opacity:1;fill-rule:nonzero;stroke:none;stroke-width:1.77871"
       id="path26277"
       clip-path="url(#clipPath45116)" /><path
       d="m 146.27314,280.10888 c 0.70437,-1.87654 1.86587,-3.28529 3.48984,-4.22445 1.62219,-0.93738 3.43114,-1.40518 5.42508,-1.40518 v 8.44356 c -2.30699,-0.27037 -4.36852,0.19743 -6.18815,1.40696 -1.81607,1.21308 -2.72677,3.22837 -2.72677,6.04229 v 14.01806 h -7.56665 v -29.32568 h 7.56665 z"
       style="fill:#ed1c24;fill-opacity:1;fill-rule:nonzero;stroke:none;stroke-width:1.77871"
       id="path26281"
       clip-path="url(#clipPath45071)" /><path
       d="M 183.57386,304.39033 169.7906,263.33581 h 8.79752 l 10.04085,31.5633 9.9608,-31.5633 h 8.858 l -13.84374,41.05452 z"
       style="fill:#ed1c24;fill-opacity:1;fill-rule:nonzero;stroke:none;stroke-width:1.77871"
       id="path26285"
       clip-path="url(#clipPath45131)" /><path
       d="m 213.01817,271.5449 c -1.25044,0 -2.33723,-0.45713 -3.25505,-1.3785 -0.91781,-0.91782 -1.3785,-2.00284 -1.3785,-3.25505 0,-1.25044 0.46069,-2.34435 1.3785,-3.28529 0.91782,-0.93916 2.00461,-1.40696 3.25505,-1.40696 1.29135,0 2.39415,0.4678 3.31375,1.40696 0.91959,0.94094 1.3785,2.03485 1.3785,3.28529 0,1.25221 -0.45891,2.33723 -1.3785,3.25505 -0.9196,0.92137 -2.0224,1.3785 -3.31375,1.3785 m -3.75309,3.52008 h 7.56665 v 29.32745 h -7.56665 z"
       style="fill:#ed1c24;fill-opacity:1;fill-rule:nonzero;stroke:none;stroke-width:1.77871"
       id="path26289"
       clip-path="url(#clipPath45206)" /><path
       d="m 242.46088,275.06404 h 8.32972 l -11.14365,29.32745 h -8.62498 L 219.8801,275.06404 h 8.32972 l 7.10774,20.52281 z"
       style="fill:#ed1c24;fill-opacity:1;fill-rule:nonzero;stroke:none;stroke-width:1.77871"
       id="path26293"
       clip-path="url(#clipPath44970)" /><path
       d="m 261.40419,280.10888 c 0.70437,-1.87654 1.86587,-3.28529 3.48984,-4.22445 1.62219,-0.93738 3.43114,-1.40518 5.42508,-1.40518 v 8.44356 c -2.30699,-0.27037 -4.36852,0.19743 -6.18815,1.40696 -1.81607,1.21308 -2.72677,3.22837 -2.72677,6.04229 v 14.01806 h -7.56665 v -29.32568 h 7.56665 z"
       style="fill:#ed1c24;fill-opacity:1;fill-rule:nonzero;stroke:none;stroke-width:1.77871"
       id="path26297"
       clip-path="url(#clipPath44925)" /><path
       d="m 279.41084,292.83573 c 1.01565,3.67482 3.77265,5.51402 8.26925,5.51402 2.89219,0 5.08356,-0.9783 6.56701,-2.9331 l 6.10099,3.51651 c -2.89397,4.1871 -7.15399,6.27709 -12.78718,6.27709 -4.847,0 -8.73705,-1.46388 -11.67015,-4.39698 -2.9331,-2.9331 -4.39876,-6.62927 -4.39876,-11.08673 0,-4.41833 1.4461,-8.10205 4.33829,-11.05649 2.89574,-2.95089 6.60792,-4.42723 11.1472,-4.42723 4.29916,0 7.84947,1.48701 10.64383,4.45746 2.79436,2.97401 4.19421,6.64884 4.19421,11.02626 0,0.97829 -0.0996,2.01528 -0.29527,3.10919 z m -0.11917,-5.8662 h 14.95543 c -0.42689,-1.99216 -1.31803,-3.47917 -2.66629,-4.45568 -1.34827,-0.9783 -2.88508,-1.46922 -4.60332,-1.46922 -2.03485,0 -3.71573,0.52116 -5.04621,1.5546 -1.3287,1.03699 -2.20916,2.49375 -2.63961,4.3703"
       style="fill:#ed1c24;fill-opacity:1;fill-rule:nonzero;stroke:none;stroke-width:1.77871"
       id="path26301"
       clip-path="url(#clipPath45191)" /><path
       d="m 342.87129,275.06404 h 7.56665 v 29.32745 h -7.56665 v -3.46138 c -2.26964,2.85484 -5.45354,4.28137 -9.56237,4.28137 -3.90962,0 -7.26249,-1.49412 -10.05685,-4.4877 -2.79792,-2.9918 -4.19421,-6.65595 -4.19421,-10.99602 0,-4.34184 1.39629,-8.00777 4.19421,-10.99779 2.79436,-2.9918 6.14723,-4.48592 10.05685,-4.48592 4.10883,0 7.29273,1.42653 9.56237,4.28137 z m -2.81571,-3.69617 h -7.27494 l -6.50832,-8.03445 h 9.08924 z m -11.14364,24.31147 c 1.52435,1.54571 3.46138,2.31767 5.80572,2.31767 2.3479,0 4.29204,-0.77196 5.83596,-2.31767 1.54393,-1.54392 2.31767,-3.52897 2.31767,-5.95158 0,-2.42438 -0.77374,-4.40943 -2.31767,-5.95513 -1.54392,-1.54393 -3.48806,-2.31589 -5.83596,-2.31589 -2.34434,0 -4.28137,0.77196 -5.80572,2.31589 -1.52436,1.5457 -2.28743,3.53075 -2.28743,5.95513 0,2.42261 0.76307,4.40766 2.28743,5.95158"
       style="fill:#ed1c24;fill-opacity:1;fill-rule:nonzero;stroke:none;stroke-width:1.77871"
       id="path26305"
       clip-path="url(#clipPath45176)" /><path
       d="m 398.29675,263.33407 v 7.74275 h -11.08673 v 33.31177 h -8.09315 v -33.31177 h -11.02803 v -7.74275 z"
       style="fill:#ed1c24;fill-opacity:1;fill-rule:nonzero;stroke:none;stroke-width:1.77871"
       id="path26309"
       clip-path="url(#clipPath44955)" /><path
       d="m 421.52321,300.72484 c -3.01136,2.99002 -6.68619,4.4877 -11.02625,4.4877 -4.34185,0 -8.00778,-1.49768 -10.9978,-4.4877 -2.99179,-2.9918 -4.48592,-6.65595 -4.48592,-10.99779 0,-4.34007 1.49413,-8.006 4.48592,-10.99602 2.99002,-2.9918 6.65595,-4.4877 10.9978,-4.4877 4.34006,0 8.01489,1.4959 11.02625,4.4877 3.00781,2.99002 4.51616,6.65595 4.51616,10.99602 0,4.34184 -1.50835,8.00599 -4.51616,10.99779 m -16.68612,-5.19029 c 1.50301,1.52436 3.39201,2.28743 5.65987,2.28743 2.26608,0 4.16397,-0.76307 5.68833,-2.28743 1.52436,-1.52614 2.2892,-3.46138 2.2892,-5.8075 0,-2.34613 -0.76484,-4.27959 -2.2892,-5.80751 -1.52436,-1.52436 -3.42225,-2.28565 -5.68833,-2.28565 -2.26786,0 -4.15686,0.76129 -5.65987,2.28565 -1.50657,1.52792 -2.25897,3.46138 -2.25897,5.80751 0,2.34612 0.7524,4.28136 2.25897,5.8075"
       style="fill:#ed1c24;fill-opacity:1;fill-rule:nonzero;stroke:none;stroke-width:1.77871"
       id="path26313"
       clip-path="url(#clipPath45221)" /><path
       d="m 450.14469,275.06404 h 7.56665 v 29.32745 h -7.56665 v -3.28529 c -1.83919,2.73745 -4.75273,4.10528 -8.73883,4.10528 -3.2088,0 -5.8573,-1.07435 -7.94729,-3.22481 -2.09355,-2.15047 -3.13944,-5.12448 -3.13944,-8.9167 v -18.00593 h 7.56666 v 17.06855 c 0,1.9548 0.52828,3.44893 1.58483,4.48592 1.05478,1.03699 2.46352,1.55459 4.22089,1.55459 1.95481,0 3.52008,-0.60654 4.69225,-1.81962 1.17395,-1.20953 1.76093,-3.02738 1.76093,-5.45354 z"
       style="fill:#ed1c24;fill-opacity:1;fill-rule:nonzero;stroke:none;stroke-width:1.77871"
       id="path26317"
       clip-path="url(#clipPath45041)" /><path
       d="m 464.04463,261.57555 h 7.56665 v 42.81553 h -7.56665 z"
       style="fill:#ed1c24;fill-opacity:1;fill-rule:nonzero;stroke:none;stroke-width:1.77872"
       id="path26319"
       clip-path="url(#clipPath30915)" /><path
       d="m 502.93106,300.72484 c -3.01136,2.99002 -6.68619,4.4877 -11.02625,4.4877 -4.34185,0 -8.00778,-1.49768 -10.9978,-4.4877 -2.99179,-2.9918 -4.48592,-6.65595 -4.48592,-10.99779 0,-4.34007 1.49413,-8.006 4.48592,-10.99602 2.99002,-2.9918 6.65595,-4.4877 10.9978,-4.4877 4.34006,0 8.01489,1.4959 11.02625,4.4877 3.00781,2.99002 4.51616,6.65595 4.51616,10.99602 0,4.34184 -1.50835,8.00599 -4.51616,10.99779 m -16.68612,-5.19029 c 1.50301,1.52436 3.39201,2.28743 5.65987,2.28743 2.26608,0 4.16397,-0.76307 5.68833,-2.28743 1.52436,-1.52614 2.2892,-3.46138 2.2892,-5.8075 0,-2.34613 -0.76484,-4.27959 -2.2892,-5.80751 -1.52436,-1.52436 -3.42225,-2.28565 -5.68833,-2.28565 -2.26786,0 -4.15686,0.76129 -5.65987,2.28565 -1.50657,1.52792 -2.25897,3.46138 -2.25897,5.80751 0,2.34612 0.7524,4.28136 2.25897,5.8075"
       style="fill:#ed1c24;fill-opacity:1;fill-rule:nonzero;stroke:none;stroke-width:1.77871"
       id="path26323"
       clip-path="url(#clipPath45101)" /><path
       d="m 531.55254,275.06404 h 7.56665 v 29.32745 h -7.56665 v -3.28529 c -1.83919,2.73745 -4.75273,4.10528 -8.73883,4.10528 -3.2088,0 -5.8573,-1.07435 -7.94729,-3.22481 -2.09355,-2.15047 -3.13944,-5.12448 -3.13944,-8.9167 v -18.00593 h 7.56666 v 17.06855 c 0,1.9548 0.52828,3.44893 1.58483,4.48592 1.05478,1.03699 2.46352,1.55459 4.22089,1.55459 1.95481,0 3.52008,-0.60654 4.69225,-1.81962 1.17395,-1.20953 1.76093,-3.02738 1.76093,-5.45354 z"
       style="fill:#ed1c24;fill-opacity:1;fill-rule:nonzero;stroke:none;stroke-width:1.77871"
       id="path26327"
       clip-path="url(#clipPath44940)" /><path
       d="m 552.19844,283.39279 c 0,0.78263 0.51761,1.41941 1.5546,1.90678 1.03699,0.48915 2.29632,0.91782 3.78332,1.29135 1.48523,0.37175 2.97046,0.83955 4.45746,1.40518 1.48523,0.56919 2.74456,1.51725 3.78155,2.84595 1.03699,1.33048 1.5546,2.99002 1.5546,4.98574 0,3.01136 -1.12415,5.32547 -3.37067,6.94766 -2.25007,1.62218 -5.05333,2.43506 -8.41688,2.43506 -6.02272,0 -10.128,-2.32656 -12.3176,-6.9779 l 6.5688,-3.69617 c 0.8609,2.54178 2.77657,3.81178 5.7488,3.81178 2.69654,0 4.04658,-0.83955 4.04658,-2.52043 0,-0.78264 -0.51761,-1.41586 -1.5546,-1.90679 -1.03699,-0.48914 -2.29632,-0.92849 -3.78332,-1.32158 -1.48701,-0.38954 -2.97046,-0.87691 -4.45746,-1.46388 -1.48701,-0.58876 -2.74634,-1.51369 -3.78333,-2.78725 -1.03699,-1.27 -1.5546,-2.86195 -1.5546,-4.77941 0,-2.89219 1.06545,-5.16894 3.19635,-6.83204 2.13091,-1.6631 4.78119,-2.49376 7.9473,-2.49376 2.38526,0 4.55529,0.53895 6.5101,1.6133 1.95481,1.07612 3.50051,2.61115 4.63533,4.60331 l -6.45318,3.52008 c -0.9356,-1.99572 -2.50087,-2.9918 -4.69225,-2.9918 -0.97651,0 -1.78761,0.217 -2.43506,0.64389 -0.64389,0.43223 -0.96584,1.01921 -0.96584,1.76093"
       style="fill:#ed1c24;fill-opacity:1;fill-rule:nonzero;stroke:none;stroke-width:1.77871"
       id="path26331"
       clip-path="url(#clipPath44996)" /><path
       d="m 577.5951,292.83573 c 1.01565,3.67482 3.77265,5.51402 8.26925,5.51402 2.89219,0 5.08356,-0.9783 6.56701,-2.9331 l 6.10099,3.51651 c -2.89397,4.1871 -7.15399,6.27709 -12.78718,6.27709 -4.847,0 -8.73705,-1.46388 -11.67015,-4.39698 -2.9331,-2.9331 -4.39876,-6.62927 -4.39876,-11.08673 0,-4.41833 1.4461,-8.10205 4.33829,-11.05649 2.89574,-2.95089 6.60792,-4.42723 11.1472,-4.42723 4.29916,0 7.84947,1.48701 10.64383,4.45746 2.79436,2.97401 4.19421,6.64884 4.19421,11.02626 0,0.97829 -0.0996,2.01528 -0.29527,3.10919 z m -0.11917,-5.8662 h 14.95543 c -0.42689,-1.99216 -1.31803,-3.47917 -2.66629,-4.45568 -1.34827,-0.9783 -2.88508,-1.46922 -4.60332,-1.46922 -2.03485,0 -3.71573,0.52116 -5.04621,1.5546 -1.3287,1.03699 -2.20916,2.49375 -2.63961,4.3703"
       style="fill:#ed1c24;fill-opacity:1;fill-rule:nonzero;stroke:none;stroke-width:1.77871"
       id="path26335"
       clip-path="url(#clipPath45026)" /></g><g
     id="logo"><path
       d="M 407.77321,91.543723 H 279.4336 v 27.150307 h 50.59554 v 95.01894 h 27.15208 v -95.01894 h 50.59199 z"
       style="fill:#ed1c24;fill-opacity:1;fill-rule:nonzero;stroke:none;stroke-width:1.77871"
       id="path26339"
       clip-path="url(#clipPath44910)" /><path
       style="fill:#ed1c24;fill-opacity:1;stroke-width:11.5818"
       d="M 181.12575,128.71222 C 157.49213,98.392619 160.64285,51.51817 187.89075,24.463972 209.69001,1.4690966 246.21866,-6.3476319 275.49243,6.1695343 293.43857,13.843119 292.6916,14.887268 300.06464,21.305406 319.50832,5.5083068 339.53615,-4.4753401 370.43087,1.7379848 408.71161,9.4367354 433.47715,40.472949 434.89357,76.148838 H 407.94276 C 406.1314,51.323461 384.18649,29.460044 359.70384,27.585532 c -23.70279,-1.814802 -44.50863,13.3046 -59.70121,29.800242 -14.96262,-17.4143 -36.37844,-31.525141 -60.71858,-29.454476 -29.1235,2.477596 -50.61435,30.292346 -46.7969,59.096105 2.08975,15.767757 11.60489,28.626837 22.8721,38.959337 31.26871,31.55798 94.13621,94.34582 94.13621,94.34582 l -19.00085,18.83914 c 0,0 -76.23292,-73.85967 -109.36886,-110.45948 z"
       id="path45508"
       sodipodi:nodetypes="cssssccsssscccc" /></g></svg>
