<?xml version="1.0" encoding="UTF-8" standalone="no"?>
<!-- Created with Inkscape (http://www.inkscape.org/) -->

<svg
   version="1.1"
   id="svg2"
   width="695.35999"
   height="150"
   viewBox="0 0 695.35999 150"
   sodipodi:docname="logo-reseau.svg"
   inkscape:version="1.2.2 (b0a8486541, 2022-12-01)"
   inkscape:export-filename="logo-reseau.png"
   inkscape:export-xdpi="96"
   inkscape:export-ydpi="96"
   xmlns:inkscape="http://www.inkscape.org/namespaces/inkscape"
   xmlns:sodipodi="http://sodipodi.sourceforge.net/DTD/sodipodi-0.dtd"
   xmlns="http://www.w3.org/2000/svg"
   xmlns:svg="http://www.w3.org/2000/svg">
  <defs
     id="defs6" />
  <sodipodi:namedview
     id="namedview4"
     pagecolor="#ffffff"
     bordercolor="#000000"
     borderopacity="0.25"
     inkscape:showpageshadow="2"
     inkscape:pageopacity="0.0"
     inkscape:pagecheckerboard="0"
     inkscape:deskcolor="#d1d1d1"
     showgrid="false"
     inkscape:zoom="1.4142136"
     inkscape:cx="248.19448"
     inkscape:cy="61.871843"
     inkscape:window-width="1850"
     inkscape:window-height="1136"
     inkscape:window-x="0"
     inkscape:window-y="0"
     inkscape:window-maximized="1"
     inkscape:current-layer="g8"
     showguides="true">
    <sodipodi:guide
       position="257.74042,91.044972"
       orientation="0,-1"
       id="guide344"
       inkscape:locked="false" />
  </sodipodi:namedview>
  <g
     inkscape:groupmode="layer"
     inkscape:label="Image"
     id="g8"
     transform="translate(0,-112.67999)">
    <rect
       style="opacity:0.01;fill:#b3b3b3;fill-opacity:1;stroke:none;stroke-width:4.19385;stroke-dasharray:none;stroke-opacity:1"
       id="rect4074"
       width="695.35999"
       height="150"
       x="0"
       y="112.67999" />
    <g
       id="g1312"
       transform="translate(0,5.507523)">
      <ellipse
         style="fill:#f68712;fill-opacity:1;stroke-width:1.0984"
         id="path168"
         cx="61.851318"
         cy="150.97122"
         rx="15.265273"
         ry="14.209806" />
      <ellipse
         style="fill:#f68712;fill-opacity:1;stroke-width:1.0984"
         id="ellipse226"
         cx="119.85132"
         cy="143.25238"
         rx="15.265273"
         ry="14.209806" />
      <ellipse
         style="fill:#f68712;fill-opacity:1;stroke-width:1.0984"
         id="ellipse228"
         cx="171.64166"
         cy="143.60493"
         rx="15.265273"
         ry="14.209806" />
      <ellipse
         style="fill:#f68712;fill-opacity:1;stroke-width:1.0984"
         id="ellipse230"
         cx="145.30992"
         cy="184.09486"
         rx="15.265273"
         ry="14.209806" />
      <ellipse
         style="fill:#f68712;fill-opacity:1;stroke-width:1.0984"
         id="ellipse232"
         cx="96.528923"
         cy="178.51331"
         rx="15.265273"
         ry="14.209806" />
      <ellipse
         style="fill:#f68712;fill-opacity:1;stroke-width:1.0984"
         id="ellipse234"
         cx="111.73928"
         cy="214.25748"
         rx="15.265273"
         ry="14.209806" />
      <ellipse
         style="fill:#f68712;fill-opacity:1;stroke-width:1.0984"
         id="ellipse236"
         cx="181.59666"
         cy="217.91261"
         rx="15.265273"
         ry="14.209806" />
      <path
         style="fill:#f68712;fill-opacity:1"
         d="m 646.13103,184.31782 v 23.73646 c -155.94091,49.61703 -374.32047,22.88936 -450.64679,-12.24824 91.6458,26.27997 202.64651,42.73884 450.64679,-11.48822 z"
         id="path301"
         sodipodi:nodetypes="cccc" />
    </g>
    <g
       id="g4091">
      <path
         style="fill:none;fill-opacity:1;stroke:#f68712;stroke-width:3;stroke-dasharray:none;stroke-opacity:1"
         d="m 255.48163,155.47142 h 24.98838 c -0.008,-7.3791 -4.28796,-13.20369 -13.03705,-13.03704 -8.74909,0.16665 -12.6835,6.57236 -12.67859,14.71887 0.005,8.14652 6.30233,17.03639 24.74176,12.33608"
         id="path1695"
         sodipodi:nodetypes="cczzc" />
      <path
         style="fill:none;fill-opacity:1;stroke:#f68712;stroke-width:3;stroke-dasharray:none;stroke-opacity:1"
         d="m 313.07154,143.6094 c 0,0 -22.51486,-5.25792 -22.51486,6.80082 0,12.05873 22.49856,1.52226 22.49856,11.6469 0,10.12463 -12.38954,9.88213 -22.41701,7.35377"
         id="path1697"
         sodipodi:nodetypes="czzc" />
      <path
         style="fill:none;fill-opacity:1;stroke:#f68712;stroke-width:3;stroke-dasharray:none;stroke-opacity:1"
         d="m 395.32211,142.27206 c -0.0545,6.81302 -0.67851,13.82472 -0.0372,19.18828 0.66378,5.55147 2.7023,9.03114 9.28669,9.23041 4.86365,0.1472 12.91605,-2.99987 14.62677,-4.77307"
         id="path1699"
         sodipodi:nodetypes="cssc" />
      <path
         style="opacity:1;fill:none;fill-opacity:1;stroke:#f68712;stroke-width:3;stroke-dasharray:none;stroke-opacity:1"
         d="m 419.3568,142.27206 v 29.47256"
         id="path1701"
         sodipodi:nodetypes="cc" />
      <path
         style="fill:none;fill-opacity:1;stroke:#f68712;stroke-width:3;stroke-dasharray:none;stroke-opacity:1"
         d="m 323.87925,155.47142 h 24.98838 c -0.008,-7.3791 -4.28796,-13.20369 -13.03705,-13.03704 -8.74909,0.16665 -12.6835,6.57236 -12.67859,14.71887 0.005,8.14652 6.30233,17.03639 24.74176,12.33608"
         id="path1703"
         sodipodi:nodetypes="cczzc" />
      <path
         style="fill:none;fill-opacity:1;stroke:#f68712;stroke-width:3;stroke-dasharray:none;stroke-opacity:1"
         d="m 382.22487,171.74462 c 0,0 -0.003,-11.81151 -0.32038,-17.76088 -0.60144,-11.2724 -3.51273,-13.24495 -21.84887,-10.24698"
         id="path1709"
         sodipodi:nodetypes="csc" />
      <path
         style="fill:none;fill-opacity:1;stroke:#f68712;stroke-width:3;stroke-dasharray:none;stroke-opacity:1"
         d="m 380.59399,156.19445 c -8.07634,-1.23857 -19.19737,-1.81456 -21.11695,4.08733 -2.28236,7.01726 2.88772,10.58183 11.63681,10.41518 4.13147,-0.0787 7.98345,-1.60173 9.6704,-3.42762"
         id="path1705"
         sodipodi:nodetypes="cssc" />
      <path
         style="opacity:1;fill:#f68712;fill-opacity:1;stroke:none"
         d="m 430.92915,130.16558 h 8.15291 l 0.26476,26.97586 c 0,0 0.12719,8.30054 10.99888,8.30054 10.87169,0 11.01963,-8.30054 11.01963,-8.30054 l 0.24401,-26.97586 h 7.96342 l 0.1041,26.97586 c 0.0305,8.18028 -6.59939,15.2906 -19.33116,15.3142 -13.27275,0.0246 -19.59959,-6.73726 -19.55543,-15.3142 z"
         id="path1715"
         sodipodi:nodetypes="ccczcccsssc" />
      <path
         style="opacity:1;fill:#f68712;fill-opacity:1;stroke:none"
         d="m 488.10158,171.67914 h -8.68398 v -41.51356 h 23.17852 c 14.90164,0.66402 15.17563,19.22685 0.48957,23.24141 l 14.20404,18.27215 h -10.469 l -13.74934,-18.27215 0.0799,-3.44153 c 0,0 12.01158,-1.13659 11.86137,-8.00331 -0.0971,-4.43984 -3.49452,-4.94098 -3.49452,-4.94098 h -13.41656 z"
         id="path1717"
         sodipodi:nodetypes="cccccccccsccc" />
      <path
         style="opacity:1;fill:#f68712;fill-opacity:1;stroke:none"
         d="m 521.33117,130.16558 v 41.51356 h 8.29544 v -17.22079 l 20.4325,-0.29187 v -6.93027 l -20.4325,-0.14553 v -10.06951 h 21.57858 v -6.85559 z"
         id="path1719"
         sodipodi:nodetypes="ccccccccccc" />
      <path
         style="opacity:1;fill:#f68712;fill-opacity:1;stroke:none"
         d="m 558.29098,130.16558 h 8.53186 v 41.51356 h -8.53186 z"
         id="path1721"
         sodipodi:nodetypes="ccccc" />
      <path
         style="opacity:1;fill:#f68712;fill-opacity:1;stroke:none"
         d="m 611.95876,130.16558 c 11.45391,0 22.90782,0 34.36173,0 v 6.85559 h -12.87701 v 34.65797 h -8.4133 v -34.65797 h -13.07142 z"
         id="path1723"
         sodipodi:nodetypes="ccccccccc" />
      <path
         style="opacity:1;fill:#f68712;fill-opacity:1;stroke:none"
         d="m 269.44212,130.14183 -5.1222,6.84941 h 2.7905 l 7.59118,-6.84941 z"
         id="path1803"
         sodipodi:nodetypes="ccccc" />
      <path
         style="color:#000000;opacity:1;fill:#f68712;fill-opacity:1;-inkscape-stroke:none"
         d="m 581.46138,131.5768 c -5.18981,2.46552 -8.11858,5.30385 -7.80977,12.19765 0.30881,6.89381 6.27789,11.00552 12.75009,10.7305 6.4722,-0.27502 15.14482,-1.0144 14.82705,4.45614 -0.31778,5.47055 -4.97419,6.67115 -10.82492,6.41165 -5.85073,-0.2595 -8.52172,-0.3793 -15.02396,-2.29656 v 7.0078 c 6.66248,1.6799 15.7965,3.02436 22.27441,1.70578 6.47792,-1.31858 11.9769,-3.37717 12.0883,-13.46019 0.11139,-10.08303 -8.88982,-11.12596 -15.83192,-11.23768 -6.9421,-0.11172 -13.18243,0.55498 -11.36933,-6.03574 1.8131,-6.59071 18.74852,-4.75325 25.7205,-2.09035 v -7.54626 c -8.539,-1.85774 -21.61064,-2.30827 -26.80045,0.15726 z"
         id="path3111"
         sodipodi:nodetypes="zzzzzcczzzzccz" />
      <path
         style="color:#000000;fill:#f68712;-inkscape-stroke:none;fill-opacity:1"
         d="m 215.61523,130.06055 v 41.68359 h 3 v -38.68359 h 19.33204 c 3.85342,0.4578 6.15086,3.6642 5.67382,7.33398 -0.47847,3.68087 -3.90143,8.0916 -12.94336,10.10156 l -2.27539,0.50586 15.59278,20.63545 h 3.76277 c -4.81118,-6.2763 -9.54583,-12.61296 -14.30867,-18.92647 8.24994,-2.4478 12.52572,-7.15424 13.14648,-11.92969 0.67653,-5.2045 -2.90041,-10.08973 -8.33984,-10.71094 l -0.0859,-0.01 z"
         id="path442"
         sodipodi:nodetypes="cccccscccccsccc" />
    </g>
  </g>
</svg>
