<?xml version="1.0" encoding="UTF-8" standalone="no"?>
<!DOCTYPE svg PUBLIC "-//W3C//DTD SVG 1.1//EN" "http://www.w3.org/Graphics/SVG/1.1/DTD/svg11.dtd">
<svg xmlns="http://www.w3.org/2000/svg" version="1.1" viewBox="0.00 0.00 179.00 65.00">
<g stroke-width="2.00" fill="none" stroke-linecap="butt">
<path stroke="#d3caa2" vector-effect="non-scaling-stroke" d="
  M 42.33 0.00
  L 42.30 65.00"
/>
<path stroke="#ca8742" vector-effect="non-scaling-stroke" d="
  M 0.00 53.32
  L 11.70 52.70"
/>
<path stroke="#d3caa2" vector-effect="non-scaling-stroke" d="
  M 11.70 52.70
  Q 11.62 52.83 11.75 53.07
  A 0.30 0.28 76.8 0 0 12.01 53.24
  L 29.25 53.24
  Q 29.74 53.24 29.74 52.75
  L 29.76 38.77
  Q 29.76 38.30 29.29 38.30
  L 11.69 38.31"
/>
<path stroke="#ca8742" vector-effect="non-scaling-stroke" d="
  M 11.69 38.31
  L 0.00 38.31"
/>
<path stroke="#ca8742" vector-effect="non-scaling-stroke" d="
  M 0.00 26.58
  L 11.68 26.41"
/>
<path stroke="#d3caa2" vector-effect="non-scaling-stroke" d="
  M 11.68 26.41
  L 29.35 26.47
  A 0.43 0.42 -90.0 0 0 29.77 26.04
  L 29.74 11.95
  A 0.41 0.40 90.0 0 0 29.34 11.54
  L 11.69 11.58"
/>
<path stroke="#ca8742" vector-effect="non-scaling-stroke" d="
  M 11.69 11.58
  L 0.00 11.80"
/>
<path stroke="#f6bc9f" vector-effect="non-scaling-stroke" d="
  M 179.00 21.01
  C 176.53 17.56 171.63 18.90 170.97 22.99
  C 170.11 28.35 174.70 29.71 179.00 28.27"
/>
<path stroke="#f6bc9f" vector-effect="non-scaling-stroke" d="
  M 11.69 11.58
  L 11.68 26.41"
/>
<path stroke="#f6bc9f" vector-effect="non-scaling-stroke" d="
  M 179.00 24.34
  L 174.10 24.35
  A 0.62 0.62 0.0 0 0 173.53 25.20
  C 174.52 27.74 177.08 26.43 179.00 26.53"
/>
<path stroke="#f6bc9f" vector-effect="non-scaling-stroke" d="
  M 11.69 38.31
  L 11.70 52.70"
/>
</g>
<path fill="#a79544" d="
  M 0.00 0.00
  L 42.33 0.00
  L 42.30 65.00
  L 0.00 65.00
  L 0.00 53.32
  L 11.70 52.70
  Q 11.62 52.83 11.75 53.07
  A 0.30 0.28 76.8 0 0 12.01 53.24
  L 29.25 53.24
  Q 29.74 53.24 29.74 52.75
  L 29.76 38.77
  Q 29.76 38.30 29.29 38.30
  L 11.69 38.31
  L 0.00 38.31
  L 0.00 26.58
  L 11.68 26.41
  L 29.35 26.47
  A 0.43 0.42 -90.0 0 0 29.77 26.04
  L 29.74 11.95
  A 0.41 0.40 90.0 0 0 29.34 11.54
  L 11.69 11.58
  L 0.00 11.80
  L 0.00 0.00
  Z"
/>
<path fill="#ffffff" d="
  M 42.33 0.00
  L 179.00 0.00
  L 179.00 21.01
  C 176.53 17.56 171.63 18.90 170.97 22.99
  C 170.11 28.35 174.70 29.71 179.00 28.27
  L 179.00 65.00
  L 42.30 65.00
  L 42.33 0.00
  Z"
/>
<path fill="#ed783f" d="
  M 11.69 11.58
  L 11.68 26.41
  L 0.00 26.58
  L 0.00 11.80
  L 11.69 11.58
  Z"
/>
<path fill="#ffffff" d="
  M 11.69 11.58
  L 29.34 11.54
  A 0.41 0.40 -90.0 0 1 29.74 11.95
  L 29.77 26.04
  A 0.43 0.42 -90.0 0 1 29.35 26.47
  L 11.68 26.41
  L 11.69 11.58
  Z"
/>
<path fill="#ed783f" d="
  M 86.14 19.91
  C 93.93 15.46 94.76 31.99 83.72 28.36
  Q 83.28 28.22 83.28 27.77
  L 83.30 15.53
  A 0.69 0.68 -0.9 0 1 83.97 14.85
  L 85.07 14.82
  Q 85.85 14.80 85.82 15.57
  L 85.71 19.65
  Q 85.69 20.17 86.14 19.91
  Z"
/>
<rect fill="#ed783f" x="-1.27" y="-6.88" transform="translate(96.03,21.79) rotate(-0.1)" width="2.54" height="13.76" rx="0.52"/>
<path fill="#ed783f" d="
  M 128.98 20.03
  C 135.82 15.84 134.20 25.13 134.43 27.89
  A 0.72 0.71 87.0 0 1 133.74 28.67
  L 132.48 28.71
  Q 131.73 28.73 131.74 27.98
  L 131.82 22.03
  A 0.84 0.84 0.0 0 0 130.77 21.21
  L 130.14 21.38
  Q 128.53 21.80 128.55 23.47
  L 128.59 27.92
  Q 128.59 28.68 127.83 28.70
  L 127.05 28.71
  Q 126.10 28.74 126.10 27.79
  L 126.12 15.69
  A 0.82 0.81 90.0 0 1 126.93 14.87
  L 127.77 14.87
  Q 128.68 14.87 128.64 15.77
  L 128.48 19.73
  Q 128.45 20.35 128.98 20.03
  Z"
/>
<rect fill="#ed783f" x="-2.15" y="-0.99" transform="translate(141.21,16.48) rotate(27.9)" width="4.30" height="1.98" rx="0.75"/>
<ellipse fill="#ed783f" cx="0.00" cy="0.00" transform="translate(78.58,16.69) rotate(1.5)" rx="1.65" ry="1.40"/>
<circle fill="#ed783f" cx="102.00" cy="16.68" r="1.52"/>
<path fill="#ed783f" d="
  M 72.83 22.30
  Q 75.34 23.45 74.15 26.17
  C 72.93 28.93 68.47 28.95 65.90 28.60
  Q 65.42 28.53 65.43 28.05
  L 65.48 16.50
  Q 65.48 16.05 65.93 16.02
  C 68.70 15.82 71.32 15.37 73.30 17.19
  C 75.50 19.21 73.58 20.21 72.66 21.77
  Q 72.45 22.13 72.83 22.30
  Z"
/>
<path fill="#ed783f" d="
  M 120.98 21.77
  L 121.02 25.85
  A 0.66 0.66 0.0 0 0 121.59 26.50
  L 122.76 26.65
  Q 123.51 26.76 123.47 27.51
  L 123.45 28.03
  A 0.74 0.74 0.0 0 1 122.72 28.74
  L 120.47 28.76
  A 1.98 1.98 0.0 0 1 118.47 26.72
  L 118.61 21.93
  Q 118.62 21.47 118.17 21.35
  Q 117.81 21.26 117.47 21.12
  Q 117.02 20.93 116.85 20.63
  Q 116.65 20.30 116.73 19.99
  Q 116.87 19.39 117.48 19.31
  L 118.19 19.21
  A 0.56 0.56 0.0 0 0 118.66 18.57
  L 118.41 17.08
  A 0.61 0.60 -13.7 0 1 118.83 16.40
  L 120.59 15.87
  A 0.46 0.46 0.0 0 1 121.18 16.36
  L 120.95 18.69
  Q 120.90 19.23 121.44 19.24
  L 122.76 19.27
  Q 123.48 19.28 123.47 20.01
  L 123.46 20.51
  Q 123.44 21.22 122.74 21.23
  L 121.49 21.25
  Q 120.98 21.26 120.98 21.77
  Z"
/>
<path fill="#ffffff" d="
  M 67.99 18.47
  A 0.52 0.52 0.0 0 1 68.50 17.94
  L 68.65 17.94
  A 2.89 1.44 -0.2 0 1 71.55 19.37
  L 71.55 19.77
  A 2.89 1.44 -0.2 0 1 68.67 21.22
  L 68.52 21.22
  A 0.52 0.52 0.0 0 1 67.99 20.71
  L 67.99 18.47
  Z"
/>
<path fill="#ed783f" d="
  M 108.0922 28.2579
  A 5.01 4.67 120.7 0 1 106.6345 21.5658
  A 5.01 4.67 120.7 0 1 113.2078 19.6421
  A 5.01 4.67 120.7 0 1 114.6655 26.3342
  A 5.01 4.67 120.7 0 1 108.0922 28.2579
  Z"
/>
<path fill="#ed783f" d="
  M 140.26 24.38
  A 0.60 0.60 0.0 0 0 139.72 25.25
  L 140.01 25.85
  Q 140.60 27.05 141.92 26.86
  L 144.82 26.46
  A 0.37 0.37 0.0 0 1 145.24 26.82
  L 145.28 27.81
  A 0.52 0.51 -11.5 0 1 144.94 28.32
  Q 141.55 29.49 139.07 28.20
  C 136.43 26.83 136.64 21.69 138.81 20.05
  C 141.92 17.70 145.87 19.61 145.63 23.84
  A 0.65 0.65 0.0 0 1 144.97 24.46
  L 140.26 24.38
  Z"
/>
<path fill="#ed783f" d="
  M 153.87 28.02
  Q 153.25 28.15 152.69 28.33
  C 145.50 30.75 145.58 16.50 156.09 19.49
  Q 156.53 19.61 156.53 20.07
  L 156.50 32.50
  Q 156.49 33.25 155.75 33.21
  L 154.75 33.15
  Q 153.90 33.11 153.94 32.25
  L 154.16 28.26
  Q 154.17 27.96 153.87 28.02
  Z"
/>
<path fill="#ed783f" d="
  M 179.00 21.01
  L 179.00 24.34
  L 174.10 24.35
  A 0.62 0.62 0.0 0 0 173.53 25.20
  C 174.52 27.74 177.08 26.43 179.00 26.53
  L 179.00 28.27
  C 174.70 29.71 170.11 28.35 170.97 22.99
  C 171.63 18.90 176.53 17.56 179.00 21.01
  Z"
/>
<path fill="#ed783f" d="
  M 165.08 28.05
  Q 162.51 29.78 160.32 27.71
  A 1.29 1.28 21.9 0 1 159.92 26.78
  L 159.86 19.72
  Q 159.86 19.31 160.27 19.30
  L 161.76 19.27
  Q 162.51 19.25 162.50 20.01
  L 162.45 25.86
  A 0.93 0.92 -7.8 0 0 163.63 26.75
  L 164.20 26.59
  A 2.11 2.10 -8.3 0 0 165.73 24.54
  L 165.67 19.99
  Q 165.66 19.28 166.38 19.27
  L 167.50 19.26
  Q 168.24 19.25 168.24 20.00
  L 168.25 27.98
  Q 168.25 28.39 167.88 28.56
  Q 166.70 29.11 165.83 28.14
  Q 165.50 27.77 165.08 28.05
  Z"
/>
<rect fill="#ed783f" x="-1.28" y="-4.58" transform="translate(78.52,24.05) rotate(0.1)" width="2.56" height="9.16" rx="0.30"/>
<rect fill="#ed783f" x="100.72" y="19.45" width="2.54" height="9.20" rx="0.41"/>
<path fill="#ffffff" d="
  M 142.78 22.74
  L 140.27 22.74
  A 0.60 0.60 0.0 0 1 139.86 21.71
  Q 141.07 20.56 142.47 21.26
  Q 143.35 21.71 143.00 22.59
  A 0.24 0.24 0.0 0 1 142.78 22.74
  Z"
/>
<path fill="#ffffff" d="
  M 150.96 26.19
  C 149.73 24.42 150.42 20.49 153.51 21.22
  Q 153.97 21.33 154.05 21.79
  Q 154.45 24.22 153.12 26.18
  A 1.31 1.31 0.0 0 1 150.96 26.19
  Z"
/>
<path fill="#ffffff" d="
  M 176.49 22.73
  L 174.24 22.75
  A 0.63 0.63 0.0 0 1 173.72 21.76
  Q 174.53 20.58 176.00 21.04
  Q 177.02 21.37 176.96 22.28
  A 0.48 0.47 0.6 0 1 176.49 22.73
  Z"
/>
<path fill="#ffffff" d="
  M 87.61 26.79
  A 1.23 1.23 0.0 0 1 85.73 25.86
  Q 85.52 23.68 86.38 21.92
  A 1.45 1.45 0.0 0 1 89.02 22.00
  Q 90.32 25.11 87.61 26.79
  Z"
/>
<ellipse fill="#ffffff" cx="0.00" cy="0.00" transform="translate(110.65,23.94) rotate(93.0)" rx="2.76" ry="2.13"/>
<path fill="#ffffff" d="
  M 67.98 23.67
  A 0.62 0.62 0.0 0 1 68.60 23.05
  L 68.94 23.05
  A 2.80 1.65 -0.1 0 1 71.74 24.70
  L 71.74 24.94
  A 2.80 1.65 -0.1 0 1 68.94 26.59
  L 68.60 26.59
  A 0.62 0.62 0.0 0 1 67.98 25.97
  L 67.98 23.67
  Z"
/>
<path fill="#ffffff" d="
  M 179.00 24.34
  L 179.00 26.53
  C 177.08 26.43 174.52 27.74 173.53 25.20
  A 0.62 0.62 0.0 0 1 174.10 24.35
  L 179.00 24.34
  Z"
/>
<path fill="#ed783f" d="
  M 71.61 40.29
  L 71.48 37.52
  Q 71.45 36.74 72.23 36.75
  L 73.44 36.77
  Q 74.10 36.78 74.10 37.44
  L 74.09 49.91
  A 0.63 0.62 78.8 0 1 73.71 50.49
  Q 72.57 50.99 71.83 50.04
  Q 71.51 49.64 71.09 49.94
  C 65.32 54.17 61.81 41.30 71.05 40.91
  Q 71.64 40.88 71.61 40.29
  Z"
/>
<rect fill="#ed783f" x="-1.28" y="-6.87" transform="translate(126.06,43.66) rotate(-0.1)" width="2.56" height="13.74" rx="0.41"/>
<path fill="#ed783f" d="
  M 94.46 40.11
  L 91.96 40.03
  A 0.46 0.46 0.0 0 1 91.52 39.53
  L 91.63 38.22
  A 0.46 0.46 0.0 0 1 92.08 37.80
  L 100.41 37.80
  A 0.46 0.46 0.0 0 1 100.87 38.30
  L 100.76 39.67
  A 0.46 0.46 0.0 0 1 100.29 40.09
  L 97.94 40.04
  A 0.46 0.46 0.0 0 0 97.47 40.50
  L 97.52 50.07
  A 0.46 0.46 0.0 0 1 97.06 50.53
  L 95.25 50.53
  A 0.46 0.46 0.0 0 1 94.79 50.06
  L 94.90 40.57
  A 0.46 0.46 0.0 0 0 94.46 40.11
  Z"
/>
<path fill="#ed783f" d="
  M 0.00 38.31
  L 11.69 38.31
  L 11.70 52.70
  L 0.00 53.32
  L 0.00 38.31
  Z"
/>
<path fill="#ffffff" d="
  M 11.69 38.31
  L 29.29 38.30
  Q 29.76 38.30 29.76 38.77
  L 29.74 52.75
  Q 29.74 53.24 29.25 53.24
  L 12.01 53.24
  A 0.30 0.28 76.8 0 1 11.75 53.07
  Q 11.62 52.83 11.70 52.70
  L 11.69 38.31
  Z"
/>
<path fill="#ed783f" d="
  M 103.4065 50.2747
  A 5.02 4.67 117.7 0 1 101.6052 43.6592
  A 5.02 4.67 117.7 0 1 108.0735 41.3853
  A 5.02 4.67 117.7 0 1 109.8748 48.0008
  A 5.02 4.67 117.7 0 1 103.4065 50.2747
  Z"
/>
<path fill="#ed783f" d="
  M 165.22 46.26
  A 0.67 0.67 0.0 0 0 164.66 47.30
  L 165.14 48.02
  A 1.79 1.78 -21.4 0 0 166.94 48.80
  L 169.50 48.36
  A 0.67 0.67 0.0 0 1 170.27 48.93
  Q 170.41 50.02 169.00 50.37
  C 158.65 52.93 160.88 38.42 168.27 41.25
  Q 171.07 42.32 170.37 45.94
  Q 170.31 46.27 169.97 46.27
  L 165.22 46.26
  Z"
/>
<path fill="#ed783f" d="
  M 80.01 46.27
  A 0.64 0.63 -17.0 0 0 79.48 47.26
  L 79.93 47.94
  A 1.98 1.98 0.0 0 0 81.90 48.79
  L 84.34 48.37
  Q 85.04 48.26 85.01 48.97
  L 85.00 49.45
  Q 84.98 50.01 84.46 50.21
  C 76.52 53.38 74.01 42.93 80.27 41.01
  C 83.08 40.15 85.91 42.74 85.31 45.80
  A 0.58 0.58 0.0 0 1 84.74 46.27
  L 80.01 46.27
  Z"
/>
<path fill="#ed783f" d="
  M 132.4387 50.2706
  A 5.02 4.67 117.8 0 1 130.6490 43.6520
  A 5.02 4.67 117.8 0 1 137.1213 41.3894
  A 5.02 4.67 117.8 0 1 138.9110 48.0080
  A 5.02 4.67 117.8 0 1 132.4387 50.2706
  Z"
/>
<path fill="#ed783f" d="
  M 156.83 48.49
  A 0.72 0.72 0.0 0 0 156.85 47.15
  L 154.40 46.10
  A 2.16 2.16 0.0 0 1 153.56 42.76
  Q 155.40 40.44 158.49 41.01
  A 0.93 0.93 0.0 0 1 159.25 41.99
  L 159.22 42.45
  Q 159.16 43.36 158.31 43.02
  Q 157.41 42.67 156.86 42.89
  Q 154.67 43.77 156.88 44.61
  C 163.26 47.03 158.36 51.76 153.88 50.47
  Q 153.37 50.33 153.43 49.80
  L 153.54 48.85
  Q 153.61 48.26 154.15 48.48
  Q 155.50 49.01 156.83 48.49
  Z"
/>
<path fill="#ed783f" d="
  M 118.19 49.96
  Q 117.02 50.89 115.54 50.72
  A 2.60 2.60 0.0 0 1 113.24 48.18
  L 113.14 41.93
  Q 113.13 41.24 113.82 41.23
  L 114.95 41.20
  Q 115.72 41.18 115.71 41.95
  L 115.63 47.67
  A 1.02 1.02 0.0 0 0 116.93 48.66
  L 117.56 48.48
  Q 118.94 48.08 118.92 46.65
  L 118.83 41.92
  Q 118.81 41.15 119.58 41.18
  L 120.72 41.21
  Q 121.45 41.24 121.45 41.97
  L 121.45 49.85
  Q 121.45 50.46 120.85 50.58
  Q 119.79 50.79 118.99 50.00
  Q 118.61 49.62 118.19 49.96
  Z"
/>
<path fill="#ed783f" d="
  M 147.19 49.96
  Q 146.00 50.95 144.43 50.68
  A 2.62 2.62 0.0 0 1 142.24 48.14
  L 142.13 41.93
  Q 142.12 41.23 142.82 41.22
  L 143.96 41.21
  Q 144.71 41.20 144.70 41.96
  L 144.63 47.75
  A 0.98 0.98 0.0 0 0 146.00 48.66
  L 146.49 48.46
  A 2.37 2.35 77.7 0 0 147.91 46.23
  L 147.79 41.94
  Q 147.77 41.15 148.56 41.17
  L 149.74 41.20
  Q 150.52 41.22 150.52 41.99
  L 150.50 50.01
  Q 150.50 50.49 150.03 50.58
  Q 148.86 50.81 148.01 49.99
  Q 147.61 49.62 147.19 49.96
  Z"
/>
<path fill="#ffffff" d="
  M 79.99 44.62
  Q 79.55 44.64 79.56 44.20
  Q 79.56 43.89 79.70 43.58
  Q 79.81 43.32 80.06 43.17
  Q 81.49 42.30 82.63 43.44
  Q 83.68 44.50 82.19 44.55
  L 79.99 44.62
  Z"
/>
<path fill="#ffffff" d="
  M 165.03 44.63
  A 0.28 0.28 0.0 0 1 164.75 44.36
  L 164.75 44.06
  A 1.45 1.24 -0.2 0 1 166.20 42.81
  L 166.56 42.81
  A 1.45 1.24 -0.2 0 1 168.01 44.04
  L 168.01 44.34
  A 0.28 0.28 0.0 0 1 167.73 44.63
  L 165.03 44.63
  Z"
/>
<path fill="#ffffff" d="
  M 68.37 47.69
  C 67.66 45.93 68.16 42.12 71.09 43.21
  Q 71.50 43.36 71.56 43.80
  Q 71.81 45.80 71.15 47.64
  A 1.49 1.48 43.9 0 1 68.37 47.69
  Z"
/>
<ellipse fill="#ffffff" cx="0.00" cy="0.00" transform="translate(105.74,45.82) rotate(92.7)" rx="2.75" ry="2.12"/>
<ellipse fill="#ffffff" cx="0.00" cy="0.00" transform="translate(134.78,45.82) rotate(93.1)" rx="2.77" ry="2.11"/>
</svg>
