<svg width="142" height="110" viewBox="0 0 142 110" fill="none" xmlns="http://www.w3.org/2000/svg">
<path d="M4.05762 26.5192V85.7237C22.3023 65.8723 63.4606 74.7492 91.4489 59.2045V0C63.4606 15.5447 22.3174 6.66779 4.05762 26.5192Z" fill="#E30613"/>
<path d="M67.4283 39.1693C67.1186 39.1698 66.8158 39.2617 66.5569 39.4335C66.298 39.6054 66.0942 39.8499 65.9705 40.137C63.8304 38.4371 62.4145 35.9735 62.013 33.2514C62.013 33.2514 62.0581 33.2514 62.0831 33.2514C62.3976 33.2524 62.7053 33.1589 62.9673 32.9828C63.2292 32.8067 63.4335 32.5559 63.5543 32.2622C63.6751 31.9685 63.707 31.6452 63.6459 31.3331C63.5848 31.0211 63.4334 30.7345 63.211 30.5095C62.9886 30.2846 62.7052 30.1315 62.3967 30.0697C62.0882 30.0079 61.7685 30.0401 61.4781 30.1623C61.1877 30.2845 60.9398 30.4912 60.7657 30.7561C60.5915 31.021 60.4991 31.3322 60.5001 31.6503C60.5036 31.8974 60.5643 32.1403 60.6774 32.3594C60.7905 32.5785 60.9528 32.7678 61.1514 32.9119H61.1263C58.2073 35.4364 54.6452 37.0797 50.8467 37.6544C51.4162 33.813 53.0408 30.2106 55.5357 27.2575C55.6769 27.4584 55.863 27.6228 56.0789 27.7373C56.2947 27.8518 56.5343 27.913 56.778 27.9161C57.0911 27.9161 57.3972 27.8222 57.6575 27.6463C57.9178 27.4704 58.1207 27.2203 58.2405 26.9278C58.3604 26.6352 58.3917 26.3133 58.3306 26.0027C58.2696 25.6921 58.1188 25.4068 57.8974 25.1829C57.676 24.959 57.3939 24.8065 57.0869 24.7447C56.7798 24.683 56.4615 24.7147 56.1722 24.8358C55.883 24.957 55.6357 25.1622 55.4618 25.4255C55.2879 25.6888 55.195 25.9984 55.195 26.3151C55.195 26.3404 55.195 26.3607 55.195 26.386C52.5047 25.9774 50.0707 24.5435 48.3921 22.3782C48.7267 22.2324 49.0014 21.9744 49.1697 21.6476C49.3381 21.3208 49.3899 20.9453 49.3163 20.5844C49.2427 20.2235 49.0483 19.8993 48.7659 19.6665C48.4834 19.4338 48.1302 19.3066 47.7659 19.3066C47.4016 19.3066 47.0484 19.4338 46.7659 19.6665C46.4835 19.8993 46.2891 20.2235 46.2155 20.5844C46.1419 20.9453 46.1937 21.3208 46.362 21.6476C46.5304 21.9744 46.8051 22.2324 47.1397 22.3782C45.4598 24.5446 43.0239 25.9787 40.3317 26.386C40.3341 26.3624 40.3341 26.3386 40.3317 26.3151C40.3327 25.997 40.2403 25.6857 40.0662 25.4208C39.8921 25.1559 39.6441 24.9493 39.3538 24.8271C39.0634 24.7049 38.7437 24.6727 38.4351 24.7345C38.1266 24.7963 37.8432 24.9493 37.6208 25.1743C37.3984 25.3992 37.2471 25.6859 37.186 25.9979C37.1249 26.3099 37.1567 26.6333 37.2775 26.927C37.3984 27.2207 37.6027 27.4715 37.8646 27.6476C38.1265 27.8237 38.4342 27.9171 38.7487 27.9161C38.9931 27.9126 39.2332 27.8512 39.4499 27.7368C39.6665 27.6224 39.8536 27.4582 39.9961 27.2575C42.493 30.2092 44.1179 33.8123 44.685 37.6544C40.8875 37.0766 37.3263 35.4336 34.4055 32.9119C34.604 32.7678 34.7663 32.5785 34.8794 32.3594C34.9925 32.1403 35.0532 31.8974 35.0567 31.6503C35.0577 31.3324 34.9654 31.0214 34.7915 30.7566C34.6176 30.4918 34.37 30.2851 34.0799 30.1628C33.7898 30.0405 33.4703 30.0079 33.162 30.0693C32.8536 30.1307 32.5702 30.2833 32.3476 30.5077C32.125 30.7321 31.9732 31.0183 31.9116 31.33C31.8499 31.6417 31.881 31.9649 32.0011 32.2587C32.1211 32.5525 32.3247 32.8036 32.5859 32.9803C32.8472 33.1571 33.1544 33.2514 33.4687 33.2514C33.4937 33.2514 33.5138 33.2514 33.5388 33.2514C33.1331 35.973 31.7136 38.4347 29.5713 40.132C29.4271 39.7935 29.172 39.5157 28.8489 39.3454C28.5258 39.1752 28.1545 39.1228 27.7977 39.1972C27.4409 39.2716 27.1203 39.4683 26.8902 39.7539C26.66 40.0396 26.5344 40.3968 26.5344 40.7653C26.5344 41.1338 26.66 41.491 26.8902 41.7767C27.1203 42.0624 27.4409 42.259 27.7977 42.3334C28.1545 42.4078 28.5258 42.3555 28.8489 42.1852C29.172 42.0149 29.4271 41.7371 29.5713 41.3986C31.7128 43.0989 33.1319 45.5617 33.5388 48.2843C33.5155 48.282 33.492 48.282 33.4687 48.2843C33.1544 48.2843 32.8472 48.3787 32.5859 48.5554C32.3247 48.7321 32.1211 48.9832 32.0011 49.277C31.881 49.5708 31.8499 49.894 31.9116 50.2057C31.9732 50.5174 32.125 50.8036 32.3476 51.028C32.5702 51.2524 32.8536 51.405 33.162 51.4664C33.4703 51.5278 33.7898 51.4952 34.0799 51.3729C34.37 51.2505 34.6176 51.0439 34.7915 50.7791C34.9654 50.5143 35.0577 50.2033 35.0567 49.8854C35.0532 49.6383 34.9925 49.3954 34.8794 49.1763C34.7663 48.9572 34.604 48.7679 34.4055 48.6238C37.3263 46.1021 40.8875 44.4591 44.685 43.8814C44.1179 47.7234 42.493 51.3265 39.9961 54.2782V54.3036C39.8541 54.1022 39.6672 53.9376 39.4504 53.8232C39.2337 53.7087 38.9932 53.6476 38.7487 53.6449C38.4356 53.6449 38.1296 53.7388 37.8693 53.9147C37.6089 54.0907 37.406 54.3407 37.2862 54.6333C37.1664 54.9258 37.1351 55.2478 37.1961 55.5583C37.2572 55.8689 37.408 56.1542 37.6294 56.3781C37.8508 56.602 38.1328 56.7545 38.4399 56.8163C38.747 56.8781 39.0653 56.8464 39.3545 56.7252C39.6438 56.604 39.891 56.3988 40.065 56.1355C40.2389 55.8722 40.3317 55.5626 40.3317 55.246C40.3341 55.2224 40.3341 55.1986 40.3317 55.175C43.0238 55.5861 45.459 57.0215 47.1397 59.1879C46.8037 59.3337 46.5277 59.5924 46.3583 59.9202C46.189 60.248 46.1368 60.6249 46.2104 60.9872C46.284 61.3495 46.4789 61.675 46.7623 61.9087C47.0457 62.1424 47.4002 62.27 47.7659 62.27C48.1316 62.27 48.486 62.1424 48.7694 61.9087C49.0528 61.675 49.2478 61.3495 49.3214 60.9872C49.395 60.6249 49.3427 60.248 49.1734 59.9202C49.0041 59.5924 48.7281 59.3337 48.3921 59.1879C50.0748 57.0223 52.5119 55.5887 55.205 55.1801C55.205 55.1801 55.205 55.2257 55.205 55.2511C55.2041 55.5692 55.2965 55.8804 55.4706 56.1453C55.6447 56.4102 55.8927 56.6168 56.183 56.739C56.4734 56.8612 56.7931 56.8934 57.1016 56.8316C57.4102 56.7698 57.6936 56.6168 57.916 56.3918C58.1383 56.1669 58.2897 55.8802 58.3508 55.5682C58.4119 55.2562 58.3801 54.9328 58.2592 54.6391C58.1384 54.3454 57.9341 54.0946 57.6722 53.9185C57.4103 53.7424 57.1026 53.649 56.7881 53.65C56.5443 53.6531 56.3048 53.7144 56.0889 53.8288C55.873 53.9433 55.6869 54.1077 55.5457 54.3086V54.2833C53.0509 51.3302 51.4262 47.7278 50.8568 43.8864C54.6444 44.4545 58.1988 46.0852 61.1163 48.5934H61.1413C60.9428 48.7375 60.7805 48.9268 60.6674 49.1459C60.5543 49.365 60.4936 49.6079 60.4901 49.855C60.4891 50.1731 60.5815 50.4843 60.7556 50.7492C60.9298 51.0141 61.1777 51.2208 61.4681 51.343C61.7585 51.4652 62.0782 51.4974 62.3867 51.4356C62.6952 51.3738 62.9786 51.2207 63.201 50.9958C63.4234 50.7708 63.5747 50.4842 63.6359 50.1722C63.697 49.8601 63.6651 49.5368 63.5443 49.2431C63.4235 48.9494 63.2192 48.6986 62.9572 48.5225C62.6953 48.3464 62.3876 48.2529 62.0731 48.2539C62.0498 48.2515 62.0263 48.2515 62.003 48.2539C62.4086 45.5321 63.8259 43.0693 65.9655 41.3682C66.0785 41.6335 66.2603 41.8629 66.4917 42.0322C66.723 42.2015 66.9954 42.3043 67.2798 42.3298C67.5643 42.3552 67.8502 42.3024 68.1074 42.1769C68.3646 42.0513 68.5834 41.8578 68.7407 41.6167C68.898 41.3757 68.9878 41.0961 69.0008 40.8075C69.0137 40.519 68.9493 40.2323 68.8143 39.9778C68.6792 39.7233 68.4786 39.5105 68.2338 39.3619C67.9889 39.2134 67.7088 39.1345 67.4233 39.1338L67.4283 39.1693ZM60.6604 45.5838C57.0836 42.5437 51.503 41.8445 48.7127 41.6925C48.863 44.5147 49.5443 50.159 52.56 53.7766C50.7141 54.3206 49.0542 55.3732 47.7659 56.8167C46.4784 55.3722 44.8182 54.3194 42.9718 53.7766C45.9775 50.159 46.6688 44.5147 46.8191 41.6925C44.0288 41.8445 38.4532 42.5336 34.8714 45.5838C34.3374 43.715 33.2961 42.0352 31.8656 40.7349C33.2951 39.4338 34.3362 37.7543 34.8714 35.8861C38.4532 38.9261 44.0288 39.6253 46.8191 39.7773C46.6688 36.9552 45.9875 31.3108 42.9718 27.6932C44.8182 27.1504 46.4784 26.0977 47.7659 24.6532C49.0542 26.0966 50.7141 27.1492 52.56 27.6932C49.5543 31.3108 48.863 36.9552 48.7127 39.7773C51.503 39.6253 57.0836 38.9362 60.6604 35.8861C61.1983 37.753 62.239 39.4319 63.6661 40.7349C62.2379 42.0371 61.1971 43.7162 60.6604 45.5838Z" fill="#FFE106"/>
<path d="M67.4283 39.1693C67.1186 39.1698 66.8158 39.2617 66.5569 39.4335C66.298 39.6054 66.0942 39.8499 65.9705 40.137C63.8304 38.4371 62.4145 35.9735 62.013 33.2514C62.013 33.2514 62.0581 33.2514 62.0831 33.2514C62.3976 33.2524 62.7053 33.1589 62.9673 32.9828C63.2292 32.8067 63.4335 32.5559 63.5543 32.2622C63.6751 31.9685 63.707 31.6452 63.6459 31.3331C63.5848 31.0211 63.4334 30.7345 63.211 30.5095C62.9886 30.2846 62.7052 30.1315 62.3967 30.0697C62.0882 30.0079 61.7685 30.0401 61.4781 30.1623C61.1877 30.2845 60.9398 30.4912 60.7657 30.7561C60.5915 31.021 60.4991 31.3322 60.5001 31.6503C60.5036 31.8974 60.5643 32.1403 60.6774 32.3594C60.7905 32.5785 60.9528 32.7678 61.1514 32.9119H61.1263C58.2073 35.4364 54.6452 37.0797 50.8467 37.6544C51.4162 33.813 53.0408 30.2106 55.5357 27.2575C55.6769 27.4584 55.863 27.6228 56.0789 27.7373C56.2947 27.8518 56.5343 27.913 56.778 27.9161C57.0911 27.9161 57.3972 27.8222 57.6575 27.6463C57.9178 27.4704 58.1207 27.2203 58.2405 26.9278C58.3604 26.6352 58.3917 26.3133 58.3306 26.0027C58.2696 25.6921 58.1188 25.4068 57.8974 25.1829C57.676 24.959 57.3939 24.8065 57.0869 24.7447C56.7798 24.683 56.4615 24.7147 56.1722 24.8358C55.883 24.957 55.6357 25.1622 55.4618 25.4255C55.2879 25.6888 55.195 25.9984 55.195 26.3151C55.195 26.3404 55.195 26.3607 55.195 26.386C52.5047 25.9774 50.0707 24.5435 48.3921 22.3782C48.7267 22.2324 49.0014 21.9744 49.1697 21.6476C49.3381 21.3208 49.3899 20.9453 49.3163 20.5844C49.2427 20.2235 49.0483 19.8993 48.7659 19.6665C48.4834 19.4338 48.1302 19.3066 47.7659 19.3066C47.4016 19.3066 47.0484 19.4338 46.7659 19.6665C46.4835 19.8993 46.2891 20.2235 46.2155 20.5844C46.1419 20.9453 46.1937 21.3208 46.362 21.6476C46.5304 21.9744 46.8051 22.2324 47.1397 22.3782C45.4598 24.5446 43.0239 25.9787 40.3317 26.386C40.3341 26.3624 40.3341 26.3386 40.3317 26.3151C40.3327 25.997 40.2403 25.6857 40.0662 25.4208C39.8921 25.1559 39.6441 24.9493 39.3538 24.8271C39.0634 24.7049 38.7437 24.6727 38.4351 24.7345C38.1266 24.7963 37.8432 24.9493 37.6208 25.1743C37.3984 25.3992 37.2471 25.6859 37.186 25.9979C37.1249 26.3099 37.1567 26.6333 37.2775 26.927C37.3984 27.2207 37.6027 27.4715 37.8646 27.6476C38.1265 27.8237 38.4342 27.9171 38.7487 27.9161C38.9931 27.9126 39.2332 27.8512 39.4499 27.7368C39.6665 27.6224 39.8536 27.4582 39.9961 27.2575C42.493 30.2092 44.1179 33.8123 44.685 37.6544C40.8875 37.0766 37.3263 35.4336 34.4055 32.9119C34.604 32.7678 34.7663 32.5785 34.8794 32.3594C34.9925 32.1403 35.0532 31.8974 35.0567 31.6503C35.0577 31.3324 34.9654 31.0214 34.7915 30.7566C34.6176 30.4918 34.37 30.2851 34.0799 30.1628C33.7898 30.0405 33.4703 30.0079 33.162 30.0693C32.8536 30.1307 32.5702 30.2833 32.3476 30.5077C32.125 30.7321 31.9732 31.0183 31.9116 31.33C31.8499 31.6417 31.881 31.9649 32.0011 32.2587C32.1211 32.5525 32.3247 32.8036 32.5859 32.9803C32.8472 33.1571 33.1544 33.2514 33.4687 33.2514C33.4937 33.2514 33.5138 33.2514 33.5388 33.2514C33.1331 35.973 31.7136 38.4347 29.5713 40.132C29.4271 39.7935 29.172 39.5157 28.8489 39.3454C28.5258 39.1752 28.1545 39.1228 27.7977 39.1972C27.4409 39.2716 27.1203 39.4683 26.8902 39.7539C26.66 40.0396 26.5344 40.3968 26.5344 40.7653C26.5344 41.1338 26.66 41.491 26.8902 41.7767C27.1203 42.0624 27.4409 42.259 27.7977 42.3334C28.1545 42.4078 28.5258 42.3555 28.8489 42.1852C29.172 42.0149 29.4271 41.7371 29.5713 41.3986C31.7128 43.0989 33.1319 45.5617 33.5388 48.2843C33.5155 48.282 33.492 48.282 33.4687 48.2843C33.1544 48.2843 32.8472 48.3787 32.5859 48.5554C32.3247 48.7321 32.1211 48.9832 32.0011 49.277C31.881 49.5708 31.8499 49.894 31.9116 50.2057C31.9732 50.5174 32.125 50.8036 32.3476 51.028C32.5702 51.2524 32.8536 51.405 33.162 51.4664C33.4703 51.5278 33.7898 51.4952 34.0799 51.3729C34.37 51.2505 34.6176 51.0439 34.7915 50.7791C34.9654 50.5143 35.0577 50.2033 35.0567 49.8854C35.0532 49.6383 34.9925 49.3954 34.8794 49.1763C34.7663 48.9572 34.604 48.7679 34.4055 48.6238C37.3263 46.1021 40.8875 44.4591 44.685 43.8814C44.1179 47.7234 42.493 51.3265 39.9961 54.2782V54.3036C39.8541 54.1022 39.6672 53.9376 39.4504 53.8232C39.2337 53.7087 38.9932 53.6476 38.7487 53.6449C38.4356 53.6449 38.1296 53.7388 37.8693 53.9147C37.6089 54.0907 37.406 54.3407 37.2862 54.6333C37.1664 54.9258 37.1351 55.2478 37.1961 55.5583C37.2572 55.8689 37.408 56.1542 37.6294 56.3781C37.8508 56.602 38.1328 56.7545 38.4399 56.8163C38.747 56.8781 39.0653 56.8464 39.3545 56.7252C39.6438 56.604 39.891 56.3988 40.065 56.1355C40.2389 55.8722 40.3317 55.5626 40.3317 55.246C40.3341 55.2224 40.3341 55.1986 40.3317 55.175C43.0238 55.5861 45.459 57.0215 47.1397 59.1879C46.8037 59.3337 46.5277 59.5924 46.3583 59.9202C46.189 60.248 46.1368 60.6249 46.2104 60.9872C46.284 61.3495 46.4789 61.675 46.7623 61.9087C47.0457 62.1424 47.4002 62.27 47.7659 62.27C48.1316 62.27 48.486 62.1424 48.7694 61.9087C49.0528 61.675 49.2478 61.3495 49.3214 60.9872C49.395 60.6249 49.3427 60.248 49.1734 59.9202C49.0041 59.5924 48.7281 59.3337 48.3921 59.1879C50.0748 57.0223 52.5119 55.5887 55.205 55.1801C55.205 55.1801 55.205 55.2257 55.205 55.2511C55.2041 55.5692 55.2965 55.8804 55.4706 56.1453C55.6447 56.4102 55.8927 56.6168 56.183 56.739C56.4734 56.8612 56.7931 56.8934 57.1016 56.8316C57.4102 56.7698 57.6936 56.6168 57.916 56.3918C58.1383 56.1669 58.2897 55.8802 58.3508 55.5682C58.4119 55.2562 58.3801 54.9328 58.2592 54.6391C58.1384 54.3454 57.9341 54.0946 57.6722 53.9185C57.4103 53.7424 57.1026 53.649 56.7881 53.65C56.5443 53.6531 56.3048 53.7144 56.0889 53.8288C55.873 53.9433 55.6869 54.1077 55.5457 54.3086V54.2833C53.0509 51.3302 51.4262 47.7278 50.8568 43.8864C54.6444 44.4545 58.1988 46.0852 61.1163 48.5934H61.1413C60.9428 48.7375 60.7805 48.9268 60.6674 49.1459C60.5543 49.365 60.4936 49.6079 60.4901 49.855C60.4891 50.1731 60.5815 50.4843 60.7556 50.7492C60.9298 51.0141 61.1777 51.2208 61.4681 51.343C61.7585 51.4652 62.0782 51.4974 62.3867 51.4356C62.6952 51.3738 62.9786 51.2207 63.201 50.9958C63.4234 50.7708 63.5747 50.4842 63.6359 50.1722C63.697 49.8601 63.6651 49.5368 63.5443 49.2431C63.4235 48.9494 63.2192 48.6986 62.9572 48.5225C62.6953 48.3464 62.3876 48.2529 62.0731 48.2539C62.0498 48.2515 62.0263 48.2515 62.003 48.2539C62.4086 45.5321 63.8259 43.0693 65.9655 41.3682C66.0785 41.6335 66.2603 41.8629 66.4917 42.0322C66.723 42.2015 66.9954 42.3043 67.2798 42.3298C67.5643 42.3552 67.8502 42.3024 68.1074 42.1769C68.3646 42.0513 68.5834 41.8578 68.7407 41.6167C68.898 41.3757 68.9878 41.0961 69.0008 40.8075C69.0137 40.519 68.9493 40.2323 68.8143 39.9778C68.6792 39.7233 68.4786 39.5105 68.2338 39.3619C67.9889 39.2134 67.7088 39.1345 67.4233 39.1338L67.4283 39.1693ZM60.6604 45.5838C57.0836 42.5437 51.503 41.8445 48.7127 41.6925C48.863 44.5147 49.5443 50.159 52.56 53.7766C50.7141 54.3206 49.0542 55.3732 47.7659 56.8167C46.4784 55.3722 44.8182 54.3194 42.9718 53.7766C45.9775 50.159 46.6688 44.5147 46.8191 41.6925C44.0288 41.8445 38.4532 42.5336 34.8714 45.5838C34.3374 43.715 33.2961 42.0352 31.8656 40.7349C33.2951 39.4338 34.3362 37.7543 34.8714 35.8861C38.4532 38.9261 44.0288 39.6253 46.8191 39.7773C46.6688 36.9552 45.9875 31.3108 42.9718 27.6932C44.8182 27.1504 46.4784 26.0977 47.7659 24.6532C49.0542 26.0966 50.7141 27.1492 52.56 27.6932C49.5543 31.3108 48.863 36.9552 48.7127 39.7773C51.503 39.6253 57.0836 38.9362 60.6604 35.8861C61.1983 37.753 62.239 39.4319 63.6661 40.7349C62.2379 42.0371 61.1971 43.7162 60.6604 45.5838Z" fill="#FFE106"/>
<path d="M13.8714 91.0396V96.1721H9.55317V109.569H4.31822V96.1721H0V91.0396H13.8714Z" fill="#231F20"/>
<path d="M33.5338 107.201C31.672 108.989 29.2028 109.986 26.6356 109.986C24.0685 109.986 21.5993 108.989 19.7375 107.201C17.9369 105.368 16.9263 102.889 16.9263 100.305C16.9263 97.7216 17.9369 95.2426 19.7375 93.4096C21.5958 91.6151 24.0663 90.6138 26.6356 90.6138C29.205 90.6138 31.6755 91.6151 33.5338 93.4096C35.3368 95.2413 36.3491 97.7208 36.3491 100.305C36.3491 102.89 35.3368 105.37 33.5338 107.201ZM23.4396 103.523C24.179 104.312 25.1672 104.816 26.2343 104.948C27.3014 105.08 28.3807 104.832 29.2864 104.246C30.1922 103.661 30.8679 102.774 31.1973 101.739C31.5267 100.704 31.4893 99.5854 31.0914 98.5753C30.6934 97.5652 29.96 96.7269 29.0171 96.2046C28.0742 95.6822 26.9808 95.5086 25.925 95.7134C24.8692 95.9182 23.9169 96.4887 23.232 97.3267C22.5471 98.1648 22.1723 99.2181 22.1722 100.305C22.1568 100.901 22.2613 101.493 22.4791 102.046C22.697 102.599 23.0238 103.101 23.4396 103.523Z" fill="#231F20"/>
<path d="M52.2495 108.17C50.8736 109.386 49.0768 109.994 46.8592 109.994C44.6417 109.994 42.8466 109.386 41.474 108.17C40.7983 107.577 40.2619 106.839 39.9039 106.01C39.546 105.181 39.3756 104.281 39.4051 103.377V91.0396H44.64V102.81C44.64 104.188 45.3814 104.877 46.8643 104.877C48.3471 104.877 49.0885 104.188 49.0885 102.81V91.0548H54.3234V103.392C54.3529 104.296 54.1825 105.196 53.8246 106.025C53.4666 106.854 52.9302 107.592 52.2545 108.185" fill="#231F20"/>
<path d="M62.6041 104.436H68.6256V109.569H57.3691V91.0396H62.6041V104.436Z" fill="#231F20"/>
<path d="M88.2829 107.201C86.4242 108.993 83.955 109.993 81.3872 109.993C78.8195 109.993 76.3503 108.993 74.4916 107.201C72.6886 105.37 71.6763 102.89 71.6763 100.305C71.6763 97.7208 72.6886 95.2413 74.4916 93.4097C76.3485 91.6143 78.8184 90.6123 81.3872 90.6123C83.9561 90.6123 86.426 91.6143 88.2829 93.4097C90.0859 95.2413 91.0982 97.7208 91.0982 100.305C91.0982 102.89 90.0859 105.37 88.2829 107.201ZM78.1837 103.523C78.9231 104.308 79.9099 104.809 80.9746 104.938C82.0392 105.067 83.1151 104.818 84.0175 104.232C84.9199 103.646 85.5923 102.76 85.9192 101.728C86.2461 100.695 86.207 99.5788 85.8088 98.5719C85.4106 97.5649 84.678 96.7297 83.7369 96.2097C82.7959 95.6898 81.7052 95.5176 80.6523 95.7227C79.5993 95.9279 78.6499 96.4976 77.9672 97.3339C77.2845 98.1702 76.9111 99.2209 76.9112 100.305C76.8966 100.901 77.0018 101.493 77.2205 102.046C77.4393 102.599 77.767 103.102 78.1837 103.523Z" fill="#231F20"/>
<path d="M107.004 108.17C105.628 109.386 103.831 109.994 101.613 109.994C99.3958 109.994 97.5974 109.386 96.2181 108.17C95.5423 107.577 95.006 106.839 94.648 106.01C94.2901 105.181 94.1197 104.281 94.1491 103.377V91.0396H99.3841V102.81C99.3841 104.188 100.127 104.877 101.613 104.877C103.099 104.877 103.841 104.188 103.838 102.81V91.0548H109.073V103.392C109.102 104.296 108.932 105.196 108.574 106.025C108.216 106.854 107.679 107.592 107.004 108.185" fill="#231F20"/>
<path d="M119.768 109.994C118.025 110.058 116.301 109.623 114.793 108.737C113.517 107.977 112.561 106.769 112.108 105.342L116.582 102.718C116.798 103.424 117.239 104.038 117.836 104.464C118.433 104.89 119.153 105.105 119.883 105.074C121.07 105.074 121.661 104.76 121.661 104.121C121.663 103.953 121.618 103.788 121.531 103.645C121.403 103.475 121.229 103.347 121.03 103.275C120.785 103.169 120.569 103.088 120.389 103.022C120.209 102.956 119.888 102.87 119.432 102.748C118.976 102.627 118.636 102.525 118.43 102.454C114.783 101.34 112.96 99.3518 112.96 96.4908C112.941 95.6981 113.094 94.9108 113.408 94.1843C113.722 93.4578 114.19 92.8097 114.778 92.2855C116.102 91.1319 117.812 90.5353 119.557 90.6185C121.022 90.5956 122.466 90.9794 123.73 91.7281C124.958 92.4641 125.911 93.5899 126.44 94.9303L122.097 97.4991C121.596 96.1919 120.75 95.5383 119.592 95.5383C119.228 95.5143 118.865 95.6122 118.56 95.817C118.45 95.8971 118.36 96.0028 118.298 96.1254C118.236 96.2479 118.204 96.3836 118.205 96.5212C118.208 96.7156 118.269 96.9045 118.378 97.0642C118.488 97.2238 118.642 97.3469 118.821 97.418C119.587 97.7582 120.379 98.0328 121.19 98.2389C121.917 98.454 122.633 98.7059 123.335 98.9938C123.953 99.2666 124.541 99.6063 125.088 100.007C125.688 100.426 126.165 101.002 126.465 101.674C126.783 102.431 126.938 103.248 126.921 104.071C126.966 104.902 126.815 105.733 126.48 106.494C126.146 107.255 125.638 107.925 124.998 108.448C123.715 109.482 121.975 109.999 119.778 109.999" fill="#231F20"/>
<path d="M135.197 104.699H142V109.569H129.962V91.0396H141.87V95.858H135.197V97.8695H141.219V102.632H135.197V104.699Z" fill="#231F20"/>
<path d="M13.8714 91.0396V96.1721H9.55317V109.569H4.31822V96.1721H0V91.0396H13.8714Z" fill="#231F20"/>
<path d="M33.5338 107.201C31.672 108.989 29.2028 109.986 26.6356 109.986C24.0685 109.986 21.5993 108.989 19.7375 107.201C17.9369 105.368 16.9263 102.889 16.9263 100.305C16.9263 97.7216 17.9369 95.2426 19.7375 93.4096C21.5958 91.6151 24.0663 90.6138 26.6356 90.6138C29.205 90.6138 31.6755 91.6151 33.5338 93.4096C35.3368 95.2413 36.3491 97.7208 36.3491 100.305C36.3491 102.89 35.3368 105.37 33.5338 107.201ZM23.4396 103.523C24.179 104.312 25.1672 104.816 26.2343 104.948C27.3014 105.08 28.3807 104.832 29.2864 104.246C30.1922 103.661 30.8679 102.774 31.1973 101.739C31.5267 100.704 31.4893 99.5854 31.0914 98.5753C30.6934 97.5652 29.96 96.7269 29.0171 96.2046C28.0742 95.6822 26.9808 95.5086 25.925 95.7134C24.8692 95.9182 23.9169 96.4887 23.232 97.3267C22.5471 98.1648 22.1723 99.2181 22.1722 100.305C22.1568 100.901 22.2613 101.493 22.4791 102.046C22.697 102.599 23.0238 103.101 23.4396 103.523Z" fill="#231F20"/>
<path d="M52.2495 108.17C50.8736 109.386 49.0768 109.994 46.8592 109.994C44.6417 109.994 42.8466 109.386 41.474 108.17C40.7983 107.577 40.2619 106.839 39.9039 106.01C39.546 105.181 39.3756 104.281 39.4051 103.377V91.0396H44.64V102.81C44.64 104.188 45.3814 104.877 46.8643 104.877C48.3471 104.877 49.0885 104.188 49.0885 102.81V91.0548H54.3234V103.392C54.3529 104.296 54.1825 105.196 53.8246 106.025C53.4666 106.854 52.9302 107.592 52.2545 108.185" fill="#231F20"/>
<path d="M62.6041 104.436H68.6256V109.569H57.3691V91.0396H62.6041V104.436Z" fill="#231F20"/>
<path d="M88.2829 107.201C86.4242 108.993 83.955 109.993 81.3872 109.993C78.8195 109.993 76.3503 108.993 74.4916 107.201C72.6886 105.37 71.6763 102.89 71.6763 100.305C71.6763 97.7208 72.6886 95.2413 74.4916 93.4097C76.3485 91.6143 78.8184 90.6123 81.3872 90.6123C83.9561 90.6123 86.426 91.6143 88.2829 93.4097C90.0859 95.2413 91.0982 97.7208 91.0982 100.305C91.0982 102.89 90.0859 105.37 88.2829 107.201ZM78.1837 103.523C78.9231 104.308 79.9099 104.809 80.9746 104.938C82.0392 105.067 83.1151 104.818 84.0175 104.232C84.9199 103.646 85.5923 102.76 85.9192 101.728C86.2461 100.695 86.207 99.5788 85.8088 98.5719C85.4106 97.5649 84.678 96.7297 83.7369 96.2097C82.7959 95.6898 81.7052 95.5176 80.6523 95.7227C79.5993 95.9279 78.6499 96.4976 77.9672 97.3339C77.2845 98.1702 76.9111 99.2209 76.9112 100.305C76.8966 100.901 77.0018 101.493 77.2205 102.046C77.4393 102.599 77.767 103.102 78.1837 103.523Z" fill="#231F20"/>
<path d="M107.004 108.17C105.628 109.386 103.831 109.994 101.613 109.994C99.3958 109.994 97.5974 109.386 96.2181 108.17C95.5423 107.577 95.006 106.839 94.648 106.01C94.2901 105.181 94.1197 104.281 94.1491 103.377V91.0396H99.3841V102.81C99.3841 104.188 100.127 104.877 101.613 104.877C103.099 104.877 103.841 104.188 103.838 102.81V91.0548H109.073V103.392C109.102 104.296 108.932 105.196 108.574 106.025C108.216 106.854 107.679 107.592 107.004 108.185" fill="#231F20"/>
<path d="M119.768 109.994C118.025 110.058 116.301 109.623 114.793 108.737C113.517 107.977 112.561 106.769 112.108 105.342L116.582 102.718C116.798 103.424 117.239 104.038 117.836 104.464C118.433 104.89 119.153 105.105 119.883 105.074C121.07 105.074 121.661 104.76 121.661 104.121C121.663 103.953 121.618 103.788 121.531 103.645C121.403 103.475 121.229 103.347 121.03 103.275C120.785 103.169 120.569 103.088 120.389 103.022C120.209 102.956 119.888 102.87 119.432 102.748C118.976 102.627 118.636 102.525 118.43 102.454C114.783 101.34 112.96 99.3518 112.96 96.4908C112.941 95.6981 113.094 94.9108 113.408 94.1843C113.722 93.4578 114.19 92.8097 114.778 92.2855C116.102 91.1319 117.812 90.5353 119.557 90.6185C121.022 90.5956 122.466 90.9794 123.73 91.7281C124.958 92.4641 125.911 93.5899 126.44 94.9303L122.097 97.4991C121.596 96.1919 120.75 95.5383 119.592 95.5383C119.228 95.5143 118.865 95.6122 118.56 95.817C118.45 95.8971 118.36 96.0028 118.298 96.1254C118.236 96.2479 118.204 96.3836 118.205 96.5212C118.208 96.7156 118.269 96.9045 118.378 97.0642C118.488 97.2238 118.642 97.3469 118.821 97.418C119.587 97.7582 120.379 98.0328 121.19 98.2389C121.917 98.454 122.633 98.7059 123.335 98.9938C123.953 99.2666 124.541 99.6063 125.088 100.007C125.688 100.426 126.165 101.002 126.465 101.674C126.783 102.431 126.938 103.248 126.921 104.071C126.966 104.902 126.815 105.733 126.48 106.494C126.146 107.255 125.638 107.925 124.998 108.448C123.715 109.482 121.975 109.999 119.778 109.999" fill="#231F20"/>
<path d="M135.197 104.699H142V109.569H129.962V91.0396H141.87V95.858H135.197V97.8695H141.219V102.632H135.197V104.699Z" fill="#231F20"/>
<path d="M44.4795 86.5942H41.4137V81.3147L39.0241 85.3681H38.7486L36.3591 81.3147V86.5942H33.2932V75.7515H36.3591L38.8638 80.1696L41.3686 75.7515H44.4795V86.5942Z" fill="#231F20"/>
<path d="M52.4949 85.2057H49.399L48.9883 86.5939H45.692L49.1135 75.7461H52.7003L56.1318 86.5939H52.8356L52.4949 85.2057ZM51.8337 82.728L50.947 79.3941L50.0553 82.728H51.8337Z" fill="#231F20"/>
<path d="M60.425 75.7515V86.5942H57.3592V75.7515H60.425Z" fill="#231F20"/>
<path d="M66.4015 83.1748H65.635V86.5948H62.5692V75.7368H66.8623C69.1767 75.7368 70.925 77.2062 70.925 79.547C70.9346 80.1497 70.7861 80.7443 70.4949 81.2702C70.2037 81.7961 69.78 82.2347 69.2669 82.5414L71.3859 86.5948H68.1047L66.4015 83.1748ZM65.635 80.6009H66.8022C66.9385 80.6198 67.0773 80.608 67.2086 80.5662C67.3399 80.5244 67.4603 80.4538 67.5614 80.3593C67.6625 80.2649 67.7416 80.1489 67.7931 80.0199C67.8446 79.8908 67.8672 79.7518 67.8592 79.6129C67.8657 79.4732 67.8423 79.3338 67.7907 79.2041C67.7391 79.0745 67.6604 78.9576 67.5601 78.8614C67.4598 78.7652 67.3402 78.6921 67.2094 78.6469C67.0786 78.6017 66.9397 78.5855 66.8022 78.5995H65.635V80.6009Z" fill="#231F20"/>
<path d="M75.8294 75.7515V86.5942H72.7635V75.7515H75.8294Z" fill="#231F20"/>
<path d="M85.0266 83.7467V86.5942H77.9782V75.7515H84.9515V78.5736H81.0491V79.7491H84.5557V82.5409H81.0491V83.7467H85.0266Z" fill="#231F20"/>
<path d="M100.206 81.1779C100.227 81.8831 100.108 82.5855 99.8555 83.2432C99.6028 83.9008 99.2217 84.5003 98.7351 85.0057C98.2484 85.5112 97.666 85.9124 97.0227 86.1853C96.3794 86.4582 95.6884 86.5973 94.9908 86.5942H90.5674V75.7515H95.0108C95.7076 75.7511 96.3973 75.8925 97.039 76.1672C97.6806 76.442 98.261 76.8445 98.7457 77.3508C99.2304 77.8571 99.6094 78.4568 99.8602 79.1143C100.111 79.7718 100.229 80.4736 100.206 81.1779ZM97.1399 81.1779C97.1399 79.7339 96.2331 78.756 94.9908 78.756H93.7635V83.5947H94.9908C96.2331 83.5947 97.1399 82.6169 97.1399 81.1779Z" fill="#231F20"/>
<path d="M109.018 83.7467V86.5942H101.969V75.7515H108.942V78.5736H105.035V79.7491H108.542V82.5409H105.035V83.7467H109.018Z" fill="#231F20"/>
</svg>
