<?xml version="1.0" encoding="UTF-8" standalone="no"?>
<svg
   viewBox="0 0 864.81822 200.28695"
   height="200.28696"
   width="864.81824"
   xml:space="preserve"
   id="svg2"
   version="1.1"
   sodipodi:docname="SICD.svg"
   inkscape:version="1.2.2 (b0a8486541, 2022-12-01)"
   xmlns:inkscape="http://www.inkscape.org/namespaces/inkscape"
   xmlns:sodipodi="http://sodipodi.sourceforge.net/DTD/sodipodi-0.dtd"
   xmlns:xlink="http://www.w3.org/1999/xlink"
   xmlns="http://www.w3.org/2000/svg"
   xmlns:svg="http://www.w3.org/2000/svg"
   xmlns:rdf="http://www.w3.org/1999/02/22-rdf-syntax-ns#"
   xmlns:cc="http://creativecommons.org/ns#"
   xmlns:dc="http://purl.org/dc/elements/1.1/"><sodipodi:namedview
     id="namedview5913"
     pagecolor="#ffffff"
     bordercolor="#000000"
     borderopacity="0.25"
     inkscape:showpageshadow="2"
     inkscape:pageopacity="1"
     inkscape:pagecheckerboard="0"
     inkscape:deskcolor="#d1d1d1"
     showgrid="false"
     inkscape:zoom="0.59468211"
     inkscape:cx="397.69147"
     inkscape:cy="155.54529"
     inkscape:window-width="1850"
     inkscape:window-height="1136"
     inkscape:window-x="0"
     inkscape:window-y="0"
     inkscape:window-maximized="1"
     inkscape:current-layer="svg2" /><metadata
     id="metadata8"><rdf:RDF><cc:Work
         rdf:about=""><dc:format>image/svg+xml</dc:format><dc:type
           rdf:resource="http://purl.org/dc/dcmitype/StillImage" /></cc:Work></rdf:RDF></metadata><defs
     id="defs6"><linearGradient
       id="linearGradient72"
       spreadMethod="pad"
       gradientTransform="matrix(129.01846,22.749437,22.749437,-129.01846,97.120529,389.99921)"
       gradientUnits="userSpaceOnUse"
       y2="0"
       x2="1"
       y1="0"
       x1="0"><stop
         id="stop58"
         offset="0"
         style="stop-opacity:1;stop-color:#ffffff" /><stop
         id="stop60"
         offset="0.28934385"
         style="stop-opacity:1;stop-color:#ffffff" /><stop
         id="stop62"
         offset="0.618979"
         style="stop-opacity:1;stop-color:#ffffff" /><stop
         id="stop64"
         offset="0.71686715"
         style="stop-opacity:1;stop-color:#ffffff" /><stop
         id="stop66"
         offset="0.84"
         style="stop-opacity:0;stop-color:#ffffff" /><stop
         id="stop68"
         offset="0.97211785"
         style="stop-opacity:0;stop-color:#ffffff" /><stop
         id="stop70"
         offset="1"
         style="stop-opacity:0;stop-color:#ffffff" /></linearGradient><linearGradient
       id="linearGradient104"
       spreadMethod="pad"
       gradientTransform="matrix(129.01846,22.749437,22.749437,-129.01846,97.120529,389.99921)"
       gradientUnits="userSpaceOnUse"
       y2="0"
       x2="1"
       y1="0"
       x1="0"><stop
         id="stop90"
         offset="0"
         style="stop-opacity:1;stop-color:#224f7e" /><stop
         id="stop92"
         offset="0.28934385"
         style="stop-opacity:1;stop-color:#224f7e" /><stop
         id="stop94"
         offset="0.618979"
         style="stop-opacity:1;stop-color:#224f7e" /><stop
         id="stop96"
         offset="0.71686715"
         style="stop-opacity:1;stop-color:#224f7e" /><stop
         id="stop98"
         offset="0.84"
         style="stop-opacity:1;stop-color:#224f7e" /><stop
         id="stop100"
         offset="0.97211785"
         style="stop-opacity:1;stop-color:#224f7e" /><stop
         id="stop102"
         offset="1"
         style="stop-opacity:1;stop-color:#224f7e" /></linearGradient><clipPath
       clipPathUnits="userSpaceOnUse"
       id="clipPath6323"><g
         id="g6329"><g
           id="g6327"><path
             id="path6325"
             d="M 0,1.65092e-5 H 1122.52 V 793.70133 H 0 Z"
             style="stroke-width:1.33333" /></g></g></clipPath><clipPath
       clipPathUnits="userSpaceOnUse"
       id="clipPath6386"><g
         id="g6392"><g
           id="g6390"><path
             id="path6388"
             d="M 0,1.65092e-5 H 1122.52 V 793.70133 H 0 Z"
             style="stroke-width:1.33333" /></g></g></clipPath><mask
       maskUnits="userSpaceOnUse"
       id="mask6553"><g
         id="g6567"
         transform="matrix(0.75000002,0,0,-0.75000002,0,595.27601)"><g
           id="g6565"><g
             id="g6563"
             transform="matrix(1.3333333,0,0,-1.3333333,0,793.70133)"><g
               id="g6561"><g
                 id="g6559"><g
                   id="g6557"><path
                     id="path6555"
                     style="fill:url(#linearGradient6569);stroke:none"
                     d="M -32768,32767 H 32767 V -32768 H -32768 Z" /></g></g></g></g></g></g></mask><linearGradient
       inkscape:collect="always"
       xlink:href="#linearGradient72"
       id="linearGradient6569"
       gradientUnits="userSpaceOnUse"
       gradientTransform="matrix(129.01846,22.749437,22.749437,-129.01846,97.120529,389.99921)"
       x1="0"
       y1="0"
       x2="1"
       y2="0"
       spreadMethod="pad" /><clipPath
       clipPathUnits="userSpaceOnUse"
       id="clipPath6571"><g
         id="g6581"
         transform="matrix(0.75000002,0,0,-0.75000002,0,595.27601)"><g
           id="g6579"><g
             id="g6577"><g
               id="g6575"><path
                 id="path6573"
                 d="m 134.636,169.24001 -0.39867,120.26133 c -0.0933,28.072 8.196,50.76933 28.76267,62.476 v 0 c 11.616,6.316 28.30933,9.64533 48.02133,9.70933 v 0 c 14.61866,0.048 33.47866,-5.604 36.15066,-7.38933 v 0 c -22.74266,2.84667 -59.32933,2.004 -59.12799,-58.33866 v 0 l 0.41733,-126.71867 z m 137.27866,122.43333 c -0.0973,29.43334 -6.692,53.66133 -24.472,62.47467 v 0 c -0.0933,0.0453 -0.176,0.104 -0.26933,0.14933 v 0 c 0.276,-0.084 0.52933,-0.18133 0.80266,-0.26667 v 0 c 1.25734,-0.348 4.696,-1.384 9.06267,-3.31066 v 0 c 0.38267,-0.16934 0.76533,-0.33867 1.16133,-0.52 v 0 c 0.73734,-0.33334 1.44667,-0.68934 2.16,-1.04 v 0 c 1.68134,-0.844 3.44134,-1.82134 5.216,-2.912 v 0 c 0.56934,-0.35067 1.12,-0.71734 1.67067,-1.08134 v 0 c 1.50533,-0.99333 3.01067,-2.05066 4.48133,-3.23733 v 0 c 0.696,-0.57333 1.39067,-1.14533 2.052,-1.75067 v 0 c 0.084,-0.0773 0.17334,-0.14533 0.25867,-0.224 v 0 c 14.89333,-13.53999 -2.04267,-46.04533 -2.124,-63.62399 v 0 z"
                 style="stroke-width:1.33333" /></g></g></g></g></clipPath><style
       id="style307">.cls-1{fill:#11497c;}.cls-2{fill:url(#Dégradé_sans_nom_21);}</style><linearGradient
       id="Dégradé_sans_nom_21"
       x1="-14.55"
       y1="343.12"
       x2="513.12"
       y2="250.08"
       gradientUnits="userSpaceOnUse"
       gradientTransform="matrix(0.32593756,0,0,0.32593756,134.2373,161.88655)"><stop
         offset="0"
         stop-color="#11497c"
         id="stop309" /><stop
         offset=".62"
         stop-color="#11497c"
         id="stop311" /><stop
         offset=".65"
         stop-color="#11497c"
         stop-opacity=".96"
         id="stop313" /><stop
         offset=".7"
         stop-color="#11497c"
         stop-opacity=".85"
         id="stop315" /><stop
         offset=".74"
         stop-color="#11497c"
         stop-opacity=".67"
         id="stop317" /><stop
         offset=".78"
         stop-color="#11497c"
         stop-opacity=".41"
         id="stop319" /><stop
         offset=".83"
         stop-color="#11497c"
         stop-opacity=".08"
         id="stop321" /><stop
         offset=".84"
         stop-color="#11497c"
         stop-opacity="0"
         id="stop323" /></linearGradient></defs><g
     id="g462"
     transform="translate(-135.08693,-465.31694)"><g
       aria-label="SICD"
       id="text14"
       style="font-weight:600;font-size:100px;font-family:'Degular Semibold';-inkscape-font-specification:Degular-Semibold;white-space:pre;inline-size:273.637;display:inline;fill:#ba2b3b;stroke-width:1.33333"><path
         d="m 235.49844,530.8152 c 16.8,0 23.9,-7 23.9,-17.9 0,-8.5 -4,-15.2 -22,-18.4 -12.6,-2.4 -14.9,-5.3 -14.9,-9.6 0,-4.8 3.6,-7.6 11.2,-7.6 8.4,0 11.4,3.7 13,10.8 l 11.3,-2.2 c -2,-10.4 -8.3,-17.7 -23.7,-17.7 -15.5,0 -23,6.6 -23,17.3 0,9.4 5.1,15.8 21.6,18.4 11.7,2 15.1,4.6 15.1,9.7 0,4.9 -3.7,7.9 -12.1,7.9 -9.1,0 -14.5,-4.2 -16,-12.6 l -10.9,2.3 c 1.6,11.2 8.3,19.4 26.5,19.6 z"
         style="font-weight:bold;-inkscape-font-specification:'Degular Semibold,  Bold'"
         id="path1270" /><path
         d="m 280.09841,469.5152 h -11.4 v 60 h 11.4 z"
         style="font-weight:bold;-inkscape-font-specification:'Degular Semibold,  Bold'"
         id="path1272" /><path
         d="m 317.99847,530.8152 c 15.9,0 25.5,-8.8 27.5,-23.3 l -10.8,-2 c -2,10 -6.6,15.4 -16.7,15.4 -12.1,0 -17.5,-8.3 -17.5,-21.5 0,-12.3 5.4,-21.2 17.6,-21.2 9.5,0 14.4,5.3 16.3,15 l 10.9,-2.1 c -2.1,-14.4 -11.4,-22.9 -27,-22.9 -18,0 -29.2,11.8 -29.2,31.2 0,19.3 10.5,31.4 28.9,31.4 z"
         style="font-weight:bold;-inkscape-font-specification:'Degular Semibold,  Bold'"
         id="path1274" /><path
         d="m 378.89838,529.5152 c 18.7,0 30.2,-11.6 30.2,-30.5 0,-19.1 -9.5,-29.5 -30.2,-29.5 h -24.4 v 60 z m -13,-50.5 h 11.5 c 14.4,0 20.3,5.9 20.3,20 0,13.5 -5.6,21.1 -19.7,21.1 h -12.1 z"
         style="font-weight:bold;-inkscape-font-specification:'Degular Semibold,  Bold'"
         id="path1276" /></g><g
       aria-label="Service inter-établissements
de coopération documentaire"
       id="text20"
       style="font-size:62.6667px;line-height:0.9;font-family:Degular;-inkscape-font-specification:Degular-Regular;letter-spacing:0.75px;white-space:pre;inline-size:926.994;display:inline;fill:#224f7e;stroke-width:1.33333"><path
         d="m 224.44645,598.20453 c 9.964,0 14.03734,-4.26133 14.03734,-10.716 0,-5.20134 -2.69467,-8.89868 -13.34801,-10.90401 -8.52267,-1.75467 -10.59067,-3.948 -10.59067,-7.45734 0,-3.76 2.88267,-6.07867 8.71067,-6.07867 6.26667,0 8.52267,2.82001 9.776,8.27201 l 4.51201,-0.94 c -1.504,-6.76801 -5.26401,-11.15468 -14.10001,-11.15468 -8.83601,0 -13.34801,4.07334 -13.34801,10.15201 0,5.51467 3.25867,9.212 13.53601,11.09201 7.708,1.316 10.34,3.32133 10.34,7.332 0,3.948 -2.82,6.58 -9.4,6.58 -7.20667,0 -10.84134,-3.44667 -11.90667,-9.776 l -4.324,0.94 c 1.06533,7.58267 5.828,12.65867 16.10534,12.65867 z"
         id="path1165" /><path
         d="m 258.22175,598.20453 c 7.332,0 11.21734,-3.50933 12.65867,-9.27467 l -3.82267,-1.128 c -1.00266,3.69733 -3.07066,6.70534 -8.836,6.70534 -6.26667,0 -9.77601,-3.82267 -10.08934,-10.34001 h 22.81068 c 0.188,-1.19067 0.12533,-2.31867 0.12533,-3.07067 0,-8.02133 -4.38667,-13.41067 -12.972,-13.41067 -8.58534,0 -14.28801,5.76534 -14.28801,15.35334 0,9.52534 5.38933,15.16534 14.41334,15.16534 z m -10.02667,-17.35867 c 0.564,-6.32934 4.07333,-9.58801 9.776,-9.58801 6.07867,0 8.83601,3.50934 9.08667,9.58801 z"
         id="path1167" /><path
         d="m 282.40913,568.37518 h -4.19867 v 29.14002 h 4.324 v -14.97734 c 0,-7.01867 2.88267,-9.77601 9.33734,-9.77601 h 1.37866 v -4.7 h -1.19066 c -4.7,0 -7.83334,2.444 -9.27467,8.14667 h -0.376 z"
         id="path1169" /><path
         d="m 325.27105,568.37518 h -4.63733 l -4.19867,11.09201 c -1.75467,4.76267 -3.76,9.71334 -5.264,14.22534 h -1.12801 c -1.504,-4.57467 -3.384,-9.46267 -5.20133,-14.22534 l -4.324,-11.09201 h -4.70001 l 12.15734,29.14002 h 5.32667 z"
         id="path1171" /><path
         d="m 335.10776,568.37518 h -4.324 v 29.14002 h 4.324 z m 0.50133,-10.59067 h -5.32667 v 4.38667 h 5.32667 z"
         id="path1173" /><path
         d="m 370.32441,578.21385 c -1.316,-6.70533 -5.13867,-10.528 -13.09734,-10.528 -8.52267,0 -14.35068,5.64 -14.35068,15.29067 0,9.52534 5.45201,15.22801 14.53868,15.22801 7.58267,0 11.59334,-3.82267 13.03467,-10.528 l -4.01067,-1.06534 c -1.25333,4.26134 -3.008,7.70801 -9.08667,7.70801 -6.51734,0 -10.08934,-4.32401 -10.08934,-11.34268 0,-7.52 3.69734,-11.40534 9.90134,-11.40534 5.70267,0 8.02134,2.82001 9.08667,7.52001 z"
         id="path1175" /><path
         d="m 390.06239,598.20453 c 7.33201,0 11.21734,-3.50933 12.65868,-9.27467 l -3.82267,-1.128 c -1.00267,3.69733 -3.07067,6.70534 -8.83601,6.70534 -6.26667,0 -9.776,-3.82267 -10.08933,-10.34001 h 22.81067 c 0.188,-1.19067 0.12534,-2.31867 0.12534,-3.07067 0,-8.02133 -4.38667,-13.41067 -12.97201,-13.41067 -8.58534,0 -14.28801,5.76534 -14.28801,15.35334 0,9.52534 5.38934,15.16534 14.41334,15.16534 z m -10.02667,-17.35867 c 0.564,-6.32934 4.07334,-9.58801 9.77601,-9.58801 6.07867,0 8.836,3.50934 9.08667,9.58801 z"
         id="path1177" /><path
         d="m 428.22244,568.37518 h -4.324 v 29.14002 h 4.324 z m 0.50134,-10.59067 h -5.32667 v 4.38667 h 5.32667 z"
         id="path1179" /><path
         d="m 442.1951,568.37518 h -4.26134 v 29.14002 h 4.324 v -16.79468 c 0,-5.452 3.88534,-9.08667 9.71334,-9.08667 5.26401,0 7.01867,3.32134 7.01867,7.77067 v 18.11068 h 4.324 v -19.05068 c 0,-6.32934 -3.008,-10.77867 -9.83867,-10.77867 -5.264,0 -9.212,3.196 -10.77867,8.20934 h -0.50133 z"
         id="path1181" /><path
         d="m 468.88912,572.07252 h 4.76267 v 16.92001 c 0,5.452 2.632,9.212 8.46,9.212 2.44401,0 4.01067,-0.376 6.01601,-0.94 l -0.62667,-3.82267 c -1.75467,0.50134 -2.94533,0.752 -4.63734,0.752 -3.50933,0 -4.95066,-1.81733 -4.95066,-5.51467 v -16.60667 h 9.90133 v -3.69734 h -9.90133 v -8.39733 h -4.26134 v 8.39733 h -4.76267 z"
         id="path1183" /><path
         d="m 506.48726,598.20453 c 7.332,0 11.21734,-3.50933 12.65867,-9.27467 l -3.82267,-1.128 c -1.00266,3.69733 -3.07066,6.70534 -8.836,6.70534 -6.26667,0 -9.77601,-3.82267 -10.08934,-10.34001 h 22.81068 c 0.188,-1.19067 0.12533,-2.31867 0.12533,-3.07067 0,-8.02133 -4.38667,-13.41067 -12.972,-13.41067 -8.58534,0 -14.28801,5.76534 -14.28801,15.35334 0,9.52534 5.38934,15.16534 14.41334,15.16534 z m -10.02667,-17.35867 c 0.564,-6.32934 4.07333,-9.58801 9.776,-9.58801 6.07867,0 8.83601,3.50934 9.08667,9.58801 z"
         id="path1185" /><path
         d="m 530.67464,568.37518 h -4.19867 v 29.14002 h 4.324 v -14.97734 c 0,-7.01867 2.88267,-9.77601 9.33734,-9.77601 h 1.37867 v -4.7 h -1.19067 c -4.7,0 -7.83334,2.444 -9.27467,8.14667 h -0.376 z"
         id="path1187" /><path
         d="m 544.83529,584.41786 h 19.05067 v -4.136 h -19.05067 z"
         id="path1189" /><path
         d="m 582.68398,598.20453 c 7.332,0 11.21734,-3.50933 12.65867,-9.27467 l -3.82267,-1.128 c -1.00267,3.69733 -3.07067,6.70534 -8.836,6.70534 -6.26667,0 -9.77601,-3.82267 -10.08934,-10.34001 h 22.81068 c 0.188,-1.19067 0.12533,-2.31867 0.12533,-3.07067 0,-8.02133 -4.38667,-13.41067 -12.97201,-13.41067 -8.58533,0 -14.288,5.76534 -14.288,15.35334 0,9.52534 5.38933,15.16534 14.41334,15.16534 z M 572.6573,580.84586 c 0.564,-6.32934 4.07334,-9.58801 9.77601,-9.58801 6.07867,0 8.836,3.50934 9.08667,9.58801 z m 19.92801,-23.43735 -1.81733,-3.32133 -14.41334,8.39733 1.06533,2.19334 z"
         id="path1191" /><path
         d="m 599.60204,572.07252 h 4.76267 v 16.92001 c 0,5.452 2.632,9.212 8.46001,9.212 2.444,0 4.01066,-0.376 6.016,-0.94 l -0.62667,-3.82267 c -1.75467,0.50134 -2.94533,0.752 -4.63733,0.752 -3.50934,0 -4.95067,-1.81733 -4.95067,-5.51467 v -16.60667 h 9.90133 v -3.69734 h -9.90133 v -8.39733 h -4.26134 v 8.39733 h -4.76267 z"
         id="path1193" /><path
         d="m 632.43744,598.14186 c 5.32667,0 9.21201,-2.632 10.71601,-7.58267 h 0.50133 v 6.95601 h 4.07334 v -18.67468 c 0,-7.20667 -3.50934,-11.092 -11.34268,-11.092 -6.51733,0 -10.716,3.32133 -12.032,9.024 l 4.136,1.06533 c 1.00267,-4.26133 3.384,-6.45467 7.83334,-6.45467 5.264,0 7.144,2.69467 7.144,7.52001 v 2.69467 h -10.02667 c -6.95601,0 -10.21467,3.69733 -10.21467,8.52267 0,5.51467 3.50933,8.02133 9.212,8.02133 z m 11.02934,-11.34267 c 0,4.44934 -3.88534,7.77067 -9.83867,7.77067 -4.7,0 -6.204,-2.31866 -6.204,-4.82533 0,-3.32134 2.19333,-4.95067 6.51733,-4.95067 h 9.52534 z"
         id="path1195" /><path
         d="m 683.69678,582.97652 c 0,-9.776 -4.19867,-15.29067 -11.78134,-15.29067 -5.95333,0 -9.27467,3.572 -10.716,8.52267 h -0.376 v -18.92534 h -4.324 v 40.23202 h 4.324 v -7.95867 h 0.31333 c 1.44134,5.01333 5.076,8.648 11.09201,8.648 7.08133,0 11.468,-5.38933 11.468,-15.22801 z m -22.87334,-1.06533 c 0,-6.32934 3.76,-10.27734 9.588,-10.27734 6.07867,0 8.96134,3.63467 8.96134,11.34267 0,7.58267 -3.008,11.40534 -8.96134,11.40534 -5.828,0 -9.588,-4.19867 -9.588,-10.27734 z"
         id="path1197" /><path
         d="m 691.15211,557.28318 v 40.23202 h 4.26133 v -40.23202 z"
         id="path1199" /><path
         d="m 709.82478,568.37518 h -4.324 v 29.14002 h 4.324 z m 0.50134,-10.59067 h -5.32667 v 4.38667 h 5.32667 z"
         id="path1201" /><path
         d="m 730.50276,598.2672 c 7.95867,0 11.28001,-3.50934 11.28001,-8.58534 0,-4.7 -3.13334,-7.332 -11.15468,-8.648 -5.95333,-0.94 -7.708,-2.69467 -7.708,-5.26401 0,-2.94533 2.19333,-4.63733 6.45467,-4.63733 4.07333,0 6.392,1.56667 7.45734,6.016 l 4.01067,-0.94 c -1.37867,-5.20134 -4.01067,-8.52267 -11.40534,-8.52267 -7.08134,0 -10.71601,3.32133 -10.71601,8.272 0,4.51201 2.75734,7.20667 10.21467,8.46001 6.32934,1.06533 8.58534,2.31867 8.58534,5.38933 0,3.32134 -2.31867,4.95067 -6.956,4.95067 -6.14134,0 -8.39734,-3.07067 -9.40001,-7.08133 l -4.01067,0.81466 c 1.25334,6.01601 4.63734,9.77601 13.34801,9.77601 z"
         id="path1203" /><path
         d="m 759.64076,598.2672 c 7.95867,0 11.28001,-3.50934 11.28001,-8.58534 0,-4.7 -3.13334,-7.332 -11.15468,-8.648 -5.95333,-0.94 -7.708,-2.69467 -7.708,-5.26401 0,-2.94533 2.19333,-4.63733 6.45467,-4.63733 4.07334,0 6.392,1.56667 7.45734,6.016 l 4.01067,-0.94 c -1.37867,-5.20134 -4.01067,-8.52267 -11.40534,-8.52267 -7.08134,0 -10.71601,3.32133 -10.71601,8.272 0,4.51201 2.75734,7.20667 10.21467,8.46001 6.32934,1.06533 8.58534,2.31867 8.58534,5.38933 0,3.32134 -2.31867,4.95067 -6.956,4.95067 -6.14134,0 -8.39734,-3.07067 -9.40001,-7.08133 l -4.01067,0.81466 c 1.25334,6.01601 4.63734,9.77601 13.34801,9.77601 z"
         id="path1205" /><path
         d="m 790.2827,598.20453 c 7.332,0 11.21734,-3.50933 12.65867,-9.27467 l -3.82267,-1.128 c -1.00266,3.69733 -3.07066,6.70534 -8.836,6.70534 -6.26667,0 -9.776,-3.82267 -10.08934,-10.34001 h 22.81068 c 0.188,-1.19067 0.12533,-2.31867 0.12533,-3.07067 0,-8.02133 -4.38667,-13.41067 -12.972,-13.41067 -8.58534,0 -14.28801,5.76534 -14.28801,15.35334 0,9.52534 5.38934,15.16534 14.41334,15.16534 z m -10.02667,-17.35867 c 0.564,-6.32934 4.07333,-9.58801 9.776,-9.58801 6.07867,0 8.83601,3.50934 9.08667,9.58801 z"
         id="path1207" /><path
         d="m 814.53271,568.37518 h -4.26133 v 29.14002 h 4.324 v -16.79468 c 0,-5.452 3.88534,-9.08667 9.71334,-9.08667 5.076,0 7.01867,3.32134 7.01867,7.77067 v 18.11068 h 4.324 v -16.79468 c 0,-5.452 3.76,-9.08667 9.71334,-9.08667 5.076,0 7.01867,3.32134 7.01867,7.77067 v 18.11068 h 4.324 v -19.05068 c 0,-6.32934 -3.13333,-10.77867 -9.90134,-10.77867 -6.204,0 -9.65067,3.44667 -10.96667,8.71067 h -0.564 c -0.564,-5.264 -3.572,-8.71067 -9.4,-8.71067 -5.45201,0 -9.27468,3.13333 -10.84134,8.20934 h -0.50134 z"
         id="path1209" /><path
         d="m 877.88677,598.20453 c 7.332,0 11.21733,-3.50933 12.65867,-9.27467 l -3.82267,-1.128 c -1.00267,3.69733 -3.07067,6.70534 -8.836,6.70534 -6.26667,0 -9.77601,-3.82267 -10.08934,-10.34001 h 22.81068 c 0.188,-1.19067 0.12533,-2.31867 0.12533,-3.07067 0,-8.02133 -4.38667,-13.41067 -12.97201,-13.41067 -8.58534,0 -14.28801,5.76534 -14.28801,15.35334 0,9.52534 5.38934,15.16534 14.41335,15.16534 z m -10.02668,-17.35867 c 0.564,-6.32934 4.07334,-9.58801 9.77601,-9.58801 6.07867,0 8.836,3.50934 9.08667,9.58801 z"
         id="path1211" /><path
         d="m 902.13684,568.37518 h -4.26134 v 29.14002 h 4.32401 v -16.79468 c 0,-5.452 3.88533,-9.08667 9.71333,-9.08667 5.26401,0 7.01867,3.32134 7.01867,7.77067 v 18.11068 h 4.32401 v -19.05068 c 0,-6.32934 -3.008,-10.77867 -9.83867,-10.77867 -5.26401,0 -9.21201,3.196 -10.77868,8.20934 h -0.50133 z"
         id="path1213" /><path
         d="m 928.83083,572.07252 h 4.76267 v 16.92001 c 0,5.452 2.632,9.212 8.46001,9.212 2.444,0 4.01066,-0.376 6.016,-0.94 l -0.62667,-3.82267 c -1.75467,0.50134 -2.94533,0.752 -4.63733,0.752 -3.50934,0 -4.95067,-1.81733 -4.95067,-5.51467 v -16.60667 h 9.90134 v -3.69734 h -9.90134 v -8.39733 h -4.26134 v 8.39733 h -4.76267 z"
         id="path1215" /><path
         d="m 965.23823,598.2672 c 7.95867,0 11.28001,-3.50934 11.28001,-8.58534 0,-4.7 -3.13334,-7.332 -11.15467,-8.648 -5.95334,-0.94 -7.70801,-2.69467 -7.70801,-5.26401 0,-2.94533 2.19334,-4.63733 6.45467,-4.63733 4.07334,0 6.39201,1.56667 7.45734,6.016 l 4.01067,-0.94 c -1.37867,-5.20134 -4.01067,-8.52267 -11.40534,-8.52267 -7.08134,0 -10.71601,3.32133 -10.71601,8.272 0,4.51201 2.75734,7.20667 10.21468,8.46001 6.32933,1.06533 8.58533,2.31867 8.58533,5.38933 0,3.32134 -2.31866,4.95067 -6.956,4.95067 -6.14134,0 -8.39734,-3.07067 -9.4,-7.08133 l -4.01067,0.81466 c 1.25333,6.01601 4.63733,9.77601 13.348,9.77601 z"
         id="path1217" /><path
         d="m 208.59177,641.53989 c 0,9.77601 4.136,15.16534 11.59334,15.16534 5.76534,0 9.46267,-3.572 10.90401,-8.52267 h 0.376 v 7.83334 h 4.26133 v -40.23202 h -4.26133 v 18.98801 h -0.376 c -1.44134,-4.95067 -4.63734,-8.58534 -10.84134,-8.58534 -7.33201,0 -11.65601,5.38934 -11.65601,15.35334 z m 22.87335,1.128 c 0,6.20401 -3.82267,10.15201 -9.58801,10.15201 -6.016,0 -9.024,-3.76 -9.024,-11.28001 0,-7.58267 3.008,-11.40534 9.024,-11.40534 5.828,0 9.58801,4.19867 9.58801,10.27734 z"
         id="path1219" /><path
         d="m 257.28178,656.70523 c 7.33201,0 11.21734,-3.50933 12.65868,-9.27467 l -3.82267,-1.128 c -1.00267,3.69734 -3.07067,6.70534 -8.83601,6.70534 -6.26666,0 -9.776,-3.82267 -10.08933,-10.34001 h 22.81067 c 0.188,-1.19066 0.12534,-2.31867 0.12534,-3.07067 0,-8.02133 -4.38667,-13.41067 -12.97201,-13.41067 -8.58534,0 -14.28801,5.76534 -14.28801,15.35334 0,9.52534 5.38934,15.16534 14.41334,15.16534 z m -10.02667,-17.35867 c 0.564,-6.32934 4.07334,-9.58801 9.77601,-9.58801 6.07867,0 8.836,3.50934 9.08667,9.58801 z"
         id="path1221" /><path
         d="m 315.93384,636.71456 c -1.316,-6.70534 -5.13867,-10.52801 -13.09734,-10.52801 -8.52267,0 -14.35067,5.64 -14.35067,15.29068 0,9.52533 5.452,15.228 14.53867,15.228 7.58267,0 11.59334,-3.82267 13.03468,-10.528 l -4.01067,-1.06534 c -1.25334,4.26134 -3.008,7.70801 -9.08667,7.70801 -6.51734,0 -10.08934,-4.324 -10.08934,-11.34267 0,-7.52001 3.69733,-11.40534 9.90134,-11.40534 5.70267,0 8.02133,2.82 9.08667,7.52 z"
         id="path1223" /><path
         d="m 335.67183,656.70523 c 9.212,0 14.41334,-5.89067 14.41334,-15.35334 0,-9.46267 -5.828,-15.16534 -14.41334,-15.16534 -8.71067,0 -14.41334,5.64 -14.41334,15.16534 0,9.46267 5.20134,15.35334 14.41334,15.35334 z m 0,-26.69601 c 6.51734,0 10.08934,4.26133 10.08934,11.28 0,7.01868 -3.384,11.59334 -10.15201,11.59334 -6.768,0 -10.02667,-4.57466 -10.02667,-11.59334 0,-7.01867 3.572,-11.28 10.08934,-11.28 z"
         id="path1225" /><path
         d="m 369.63522,656.70523 c 9.21201,0 14.41334,-5.89067 14.41334,-15.35334 0,-9.46267 -5.828,-15.16534 -14.41334,-15.16534 -8.71067,0 -14.41334,5.64 -14.41334,15.16534 0,9.46267 5.20134,15.35334 14.41334,15.35334 z m 0,-26.69601 c 6.51734,0 10.08934,4.26133 10.08934,11.28 0,7.01868 -3.384,11.59334 -10.152,11.59334 -6.76801,0 -10.02667,-4.57466 -10.02667,-11.59334 0,-7.01867 3.572,-11.28 10.08933,-11.28 z"
         id="path1227" /><path
         d="m 418.32529,641.47723 c 0,-9.77601 -4.19867,-15.29068 -11.78134,-15.29068 -5.95333,0 -9.27467,3.572 -10.716,8.52267 h -0.376 v -7.83334 h -4.324 v 38.72802 h 4.324 v -17.54667 h 0.31333 c 1.44134,5.01333 5.076,8.648 11.09201,8.648 7.08133,0 11.468,-5.38933 11.468,-15.228 z m -22.87334,-1.06534 c 0,-6.32934 3.76,-10.27734 9.588,-10.27734 6.07867,0 8.96134,3.63467 8.96134,11.34268 0,7.58267 -3.008,11.40533 -8.96134,11.40533 -5.828,0 -9.588,-4.19866 -9.588,-10.27733 z"
         id="path1229" /><path
         d="m 437.87529,656.70523 c 7.332,0 11.21734,-3.50933 12.65867,-9.27467 l -3.82266,-1.128 c -1.00267,3.69734 -3.07067,6.70534 -8.83601,6.70534 -6.26667,0 -9.776,-3.82267 -10.08934,-10.34001 h 22.81068 c 0.188,-1.19066 0.12533,-2.31867 0.12533,-3.07067 0,-8.02133 -4.38666,-13.41067 -12.972,-13.41067 -8.58534,0 -14.28801,5.76534 -14.28801,15.35334 0,9.52534 5.38934,15.16534 14.41334,15.16534 z m -10.02667,-17.35867 c 0.564,-6.32934 4.07333,-9.58801 9.776,-9.58801 6.07867,0 8.83601,3.50934 9.08668,9.58801 z m 19.92801,-23.43735 -1.81734,-3.32133 -14.41334,8.39733 1.06534,2.19334 z"
         id="path1231" /><path
         d="M 462.06267,626.87588 H 457.864 v 29.14002 h 4.324 v -14.97734 c 0,-7.01867 2.88267,-9.77601 9.33734,-9.77601 h 1.37867 v -4.7 h -1.19067 c -4.7,0 -7.83334,2.444 -9.27467,8.14667 h -0.376 z"
         id="path1233" /><path
         d="m 486.25,656.64257 c 5.32667,0 9.21201,-2.63201 10.71601,-7.58267 h 0.50133 v 6.956 h 4.07334 v -18.67468 c 0,-7.20667 -3.50934,-11.092 -11.34268,-11.092 -6.51733,0 -10.716,3.32133 -12.032,9.024 l 4.136,1.06534 c 1.00267,-4.26134 3.384,-6.45467 7.83334,-6.45467 5.264,0 7.144,2.69466 7.144,7.52 v 2.69467 h -10.02667 c -6.956,0 -10.21467,3.69733 -10.21467,8.52267 0,5.51467 3.50933,8.02134 9.212,8.02134 z m 11.02934,-11.34268 c 0,4.44934 -3.88533,7.77067 -9.83867,7.77067 -4.7,0 -6.204,-2.31866 -6.204,-4.82533 0,-3.32134 2.19333,-4.95067 6.51733,-4.95067 h 9.52534 z"
         id="path1235" /><path
         d="m 507.17873,630.57322 h 4.76267 v 16.92001 c 0,5.452 2.632,9.212 8.46001,9.212 2.444,0 4.01066,-0.376 6.016,-0.94 l -0.62667,-3.82267 c -1.75467,0.50134 -2.94533,0.752 -4.63733,0.752 -3.50934,0 -4.95067,-1.81733 -4.95067,-5.51467 v -16.60667 h 9.90134 v -3.69734 h -9.90134 v -8.39733 h -4.26134 v 8.39733 h -4.76267 z"
         id="path1237" /><path
         d="m 537.6328,626.87588 h -4.324 v 29.14002 h 4.324 z m 0.50133,-10.59067 h -5.32667 v 4.38667 h 5.32667 z"
         id="path1239" /><path
         d="m 559.81477,656.70523 c 9.21201,0 14.41335,-5.89067 14.41335,-15.35334 0,-9.46267 -5.82801,-15.16534 -14.41335,-15.16534 -8.71067,0 -14.41334,5.64 -14.41334,15.16534 0,9.46267 5.20134,15.35334 14.41334,15.35334 z m 0,-26.69601 c 6.51734,0 10.08934,4.26133 10.08934,11.28 0,7.01868 -3.384,11.59334 -10.152,11.59334 -6.76801,0 -10.02667,-4.57466 -10.02667,-11.59334 0,-7.01867 3.572,-11.28 10.08933,-11.28 z"
         id="path1241" /><path
         d="m 585.56885,626.87588 h -4.26134 v 29.14002 h 4.324 v -16.79468 c 0,-5.452 3.88534,-9.08667 9.71334,-9.08667 5.264,0 7.01867,3.32134 7.01867,7.77067 v 18.11068 h 4.324 v -19.05068 c 0,-6.32933 -3.008,-10.77867 -9.83867,-10.77867 -5.264,0 -9.212,3.196 -10.77867,8.20934 h -0.50133 z"
         id="path1243" /><path
         d="m 626.61149,641.53989 c 0,9.77601 4.136,15.16534 11.59334,15.16534 5.76533,0 9.46267,-3.572 10.904,-8.52267 h 0.376 v 7.83334 h 4.26134 v -40.23202 h -4.26134 v 18.98801 h -0.376 c -1.44133,-4.95067 -4.63733,-8.58534 -10.84134,-8.58534 -7.332,0 -11.656,5.38934 -11.656,15.35334 z m 22.87334,1.128 c 0,6.20401 -3.82267,10.15201 -9.588,10.15201 -6.01601,0 -9.02401,-3.76 -9.02401,-11.28001 0,-7.58267 3.008,-11.40534 9.02401,-11.40534 5.828,0 9.588,4.19867 9.588,10.27734 z"
         id="path1245" /><path
         d="m 675.3015,656.70523 c 9.212,0 14.41334,-5.89067 14.41334,-15.35334 0,-9.46267 -5.828,-15.16534 -14.41334,-15.16534 -8.71067,0 -14.41334,5.64 -14.41334,15.16534 0,9.46267 5.20133,15.35334 14.41334,15.35334 z m 0,-26.69601 c 6.51734,0 10.08934,4.26133 10.08934,11.28 0,7.01868 -3.384,11.59334 -10.15201,11.59334 -6.768,0 -10.02667,-4.57466 -10.02667,-11.59334 0,-7.01867 3.572,-11.28 10.08934,-11.28 z"
         id="path1247" /><path
         d="m 722.29958,636.71456 c -1.316,-6.70534 -5.13867,-10.52801 -13.09734,-10.52801 -8.52267,0 -14.35067,5.64 -14.35067,15.29068 0,9.52533 5.452,15.228 14.53867,15.228 7.58267,0 11.59334,-3.82267 13.03468,-10.528 l -4.01067,-1.06534 c -1.25334,4.26134 -3.008,7.70801 -9.08667,7.70801 -6.51734,0 -10.08934,-4.324 -10.08934,-11.34267 0,-7.52001 3.69733,-11.40534 9.90134,-11.40534 5.70266,0 8.02133,2.82 9.08667,7.52 z"
         id="path1249" /><path
         d="m 750.37225,656.0159 h 4.26134 v -29.14002 h -4.324 v 16.79468 c 0,5.51467 -3.88534,9.08667 -9.71334,9.08667 -5.264,0 -7.01867,-3.384 -7.01867,-7.708 v -18.17335 h -4.324 v 19.05068 c 0,6.45467 3.008,10.77867 9.83867,10.77867 5.264,0 9.27467,-3.196 10.77867,-8.20933 h 0.50133 z"
         id="path1251" /><path
         d="m 767.91687,626.87588 h -4.26134 v 29.14002 h 4.32401 v -16.79468 c 0,-5.452 3.88533,-9.08667 9.71333,-9.08667 5.07601,0 7.01867,3.32134 7.01867,7.77067 v 18.11068 h 4.32401 v -16.79468 c 0,-5.452 3.76,-9.08667 9.71333,-9.08667 5.07601,0 7.01867,3.32134 7.01867,7.77067 v 18.11068 h 4.32401 v -19.05068 c 0,-6.32933 -3.13334,-10.77867 -9.90134,-10.77867 -6.204,0 -9.65067,3.44667 -10.96667,8.71067 h -0.564 c -0.564,-5.264 -3.57201,-8.71067 -9.40001,-8.71067 -5.452,0 -9.27467,3.13334 -10.84134,8.20934 h -0.50133 z"
         id="path1253" /><path
         d="m 831.27092,656.70523 c 7.332,0 11.21734,-3.50933 12.65867,-9.27467 l -3.82266,-1.128 c -1.00267,3.69734 -3.07067,6.70534 -8.83601,6.70534 -6.26667,0 -9.776,-3.82267 -10.08934,-10.34001 h 22.81068 c 0.188,-1.19066 0.12533,-2.31867 0.12533,-3.07067 0,-8.02133 -4.38667,-13.41067 -12.972,-13.41067 -8.58534,0 -14.28801,5.76534 -14.28801,15.35334 0,9.52534 5.38934,15.16534 14.41334,15.16534 z m -10.02667,-17.35867 c 0.564,-6.32934 4.07333,-9.58801 9.776,-9.58801 6.07867,0 8.83601,3.50934 9.08668,9.58801 z"
         id="path1255" /><path
         d="m 855.52099,626.87588 h -4.26133 v 29.14002 h 4.324 v -16.79468 c 0,-5.452 3.88534,-9.08667 9.71334,-9.08667 5.264,0 7.01867,3.32134 7.01867,7.77067 v 18.11068 h 4.324 v -19.05068 c 0,-6.32933 -3.008,-10.77867 -9.83867,-10.77867 -5.264,0 -9.212,3.196 -10.77867,8.20934 h -0.50134 z"
         id="path1257" /><path
         d="m 882.21499,630.57322 h 4.76267 v 16.92001 c 0,5.452 2.632,9.212 8.46,9.212 2.444,0 4.01067,-0.376 6.016,-0.94 l -0.62666,-3.82267 c -1.75467,0.50134 -2.94534,0.752 -4.63734,0.752 -3.50933,0 -4.95067,-1.81733 -4.95067,-5.51467 v -16.60667 h 9.90134 v -3.69734 h -9.90134 v -8.39733 h -4.26133 v 8.39733 h -4.76267 z"
         id="path1259" /><path
         d="m 915.05039,656.64257 c 5.32667,0 9.212,-2.63201 10.716,-7.58267 h 0.50134 v 6.956 h 4.07333 v -18.67468 c 0,-7.20667 -3.50933,-11.092 -11.34267,-11.092 -6.51734,0 -10.71601,3.32133 -12.03201,9.024 l 4.136,1.06534 c 1.00267,-4.26134 3.38401,-6.45467 7.83334,-6.45467 5.264,0 7.14401,2.69466 7.14401,7.52 v 2.69467 h -10.02668 c -6.956,0 -10.21467,3.69733 -10.21467,8.52267 0,5.51467 3.50934,8.02134 9.21201,8.02134 z m 11.02934,-11.34268 c 0,4.44934 -3.88534,7.77067 -9.83868,7.77067 -4.7,0 -6.204,-2.31866 -6.204,-4.82533 0,-3.32134 2.19334,-4.95067 6.51734,-4.95067 h 9.52534 z"
         id="path1261" /><path
         d="m 944.12572,626.87588 h -4.324 v 29.14002 h 4.324 z m 0.50133,-10.59067 h -5.32667 v 4.38667 h 5.32667 z"
         id="path1263" /><path
         d="m 958.03572,626.87588 h -4.19867 v 29.14002 h 4.324 v -14.97734 c 0,-7.01867 2.88267,-9.77601 9.33734,-9.77601 h 1.37867 v -4.7 h -1.19067 c -4.7,0 -7.83334,2.444 -9.27467,8.14667 h -0.376 z"
         id="path1265" /><path
         d="m 987.04845,656.70523 c 7.332,0 11.21734,-3.50933 12.65867,-9.27467 l -3.82267,-1.128 c -1.00267,3.69734 -3.07067,6.70534 -8.836,6.70534 -6.26667,0 -9.77601,-3.82267 -10.08934,-10.34001 h 22.81068 c 0.188,-1.19066 0.12533,-2.31867 0.12533,-3.07067 0,-8.02133 -4.38667,-13.41067 -12.97201,-13.41067 -8.58533,0 -14.288,5.76534 -14.288,15.35334 0,9.52534 5.38933,15.16534 14.41334,15.16534 z m -10.02667,-17.35867 c 0.564,-6.32934 4.07333,-9.58801 9.776,-9.58801 6.07867,0 8.83601,3.50934 9.08667,9.58801 z"
         id="path1267" /></g><path
       id="path32"
       style="fill:#ba2b3b;fill-opacity:1;fill-rule:nonzero;stroke:none;stroke-width:1.33333"
       d="m 173.9056,465.31694 v 81.79066 c 0,21.45467 -17.36667,38.82534 -38.81867,38.75334 v -120.544 z" /></g><g
     id="g1163"
     transform="translate(-135.08693,-65.31694)"><text
       id="text1153"
       style="font-variant:normal;font-weight:600;font-stretch:normal;font-size:100px;font-family:'Degular Semibold';-inkscape-font-specification:Degular-Semibold;writing-mode:lr-tb;white-space:pre;inline-size:1229.74;display:inline;fill:#ba2b3b;fill-opacity:1;fill-rule:nonzero;stroke:none;stroke-width:1.33333"
       x="206.39839"
       y="529.5152"
       xml:space="preserve"><tspan
         x="206.39839"
         y="529.5152"
         id="tspan1982"><tspan
           style="font-weight:bold;-inkscape-font-specification:'Degular Semibold,  Bold'"
           id="tspan1980">Font : Degular Semibold</tspan></tspan></text><text
       id="text1159"
       style="font-variant:normal;font-weight:normal;font-stretch:normal;font-size:62.6667px;line-height:0.9;font-family:Degular;-inkscape-font-specification:Degular-Regular;letter-spacing:0.75px;writing-mode:lr-tb;white-space:pre;inline-size:926.994;display:inline;fill:#224f7e;fill-opacity:1;fill-rule:nonzero;stroke:none;stroke-width:1.33333"
       x="206.39839"
       y="597.5152"
       xml:space="preserve"><tspan
         x="206.39839"
         y="597.5152"
         id="tspan1984">Degular Regular</tspan></text><path
       id="path1161"
       style="fill:#ba2b3b;fill-opacity:1;fill-rule:nonzero;stroke:none;stroke-width:1.33333"
       d="m 173.9056,465.31694 v 81.79066 c 0,21.45467 -17.36667,38.82534 -38.81867,38.75334 v -120.544 z" /></g></svg>
