<?xml version="1.0" encoding="UTF-8" standalone="no"?>
<svg
   viewBox="0 0 1122.52 793.70098"
   height="793.70099"
   width="1122.52"
   xml:space="preserve"
   id="svg2"
   version="1.1"
   sodipodi:docname="SICD-UT.svg"
   inkscape:version="1.2.2 (b0a8486541, 2022-12-01)"
   inkscape:export-filename="SICD-UT.png"
   inkscape:export-xdpi="96"
   inkscape:export-ydpi="96"
   xmlns:inkscape="http://www.inkscape.org/namespaces/inkscape"
   xmlns:sodipodi="http://sodipodi.sourceforge.net/DTD/sodipodi-0.dtd"
   xmlns="http://www.w3.org/2000/svg"
   xmlns:svg="http://www.w3.org/2000/svg"
   xmlns:rdf="http://www.w3.org/1999/02/22-rdf-syntax-ns#"
   xmlns:cc="http://creativecommons.org/ns#"
   xmlns:dc="http://purl.org/dc/elements/1.1/"><sodipodi:namedview
     id="namedview5913"
     pagecolor="#ffffff"
     bordercolor="#000000"
     borderopacity="0.25"
     inkscape:showpageshadow="2"
     inkscape:pageopacity="0"
     inkscape:pagecheckerboard="0"
     inkscape:deskcolor="#d1d1d1"
     showgrid="false"
     inkscape:zoom="9.5149137"
     inkscape:cx="618.29252"
     inkscape:cy="162.00883"
     inkscape:window-width="1850"
     inkscape:window-height="1016"
     inkscape:window-x="0"
     inkscape:window-y="0"
     inkscape:window-maximized="1"
     inkscape:current-layer="g59722" /><metadata
     id="metadata8"><rdf:RDF><cc:Work
         rdf:about=""><dc:format>image/svg+xml</dc:format><dc:type
           rdf:resource="http://purl.org/dc/dcmitype/StillImage" /></cc:Work></rdf:RDF></metadata><defs
     id="defs6"><style
       id="style59151">.cls-1{fill:#11497c;}.cls-2{fill:url(#Dégradé_sans_nom_21);}</style><linearGradient
       id="Dégradé_sans_nom_21"
       x1="-14.55"
       y1="343.12"
       x2="513.12"
       y2="250.08"
       gradientUnits="userSpaceOnUse"><stop
         offset="0"
         stop-color="#11497c"
         id="stop59153" /><stop
         offset="0.66069025"
         stop-color="#11497c"
         id="stop59155" /><stop
         offset=".84"
         stop-color="#11497c"
         stop-opacity="0"
         id="stop59167" /></linearGradient></defs><g
     id="SICD"><g
       aria-label="SICD"
       id="text14"
       style="font-weight:600;font-size:100px;font-family:'Degular Semibold';-inkscape-font-specification:Degular-Semibold;white-space:pre;inline-size:273.637;display:inline;fill:#ba2b3b;stroke-width:1.33333"><path
         d="m 235.49844,530.8152 c 16.8,0 23.9,-7 23.9,-17.9 0,-8.5 -4,-15.2 -22,-18.4 -12.6,-2.4 -14.9,-5.3 -14.9,-9.6 0,-4.8 3.6,-7.6 11.2,-7.6 8.4,0 11.4,3.7 13,10.8 l 11.3,-2.2 c -2,-10.4 -8.3,-17.7 -23.7,-17.7 -15.5,0 -23,6.6 -23,17.3 0,9.4 5.1,15.8 21.6,18.4 11.7,2 15.1,4.6 15.1,9.7 0,4.9 -3.7,7.9 -12.1,7.9 -9.1,0 -14.5,-4.2 -16,-12.6 l -10.9,2.3 c 1.6,11.2 8.3,19.4 26.5,19.6 z"
         style="font-weight:bold;-inkscape-font-specification:'Degular Semibold,  Bold'"
         id="path1270" /><path
         d="m 280.09841,469.5152 h -11.4 v 60 h 11.4 z"
         style="font-weight:bold;-inkscape-font-specification:'Degular Semibold,  Bold'"
         id="path1272" /><path
         d="m 317.99847,530.8152 c 15.9,0 25.5,-8.8 27.5,-23.3 l -10.8,-2 c -2,10 -6.6,15.4 -16.7,15.4 -12.1,0 -17.5,-8.3 -17.5,-21.5 0,-12.3 5.4,-21.2 17.6,-21.2 9.5,0 14.4,5.3 16.3,15 l 10.9,-2.1 c -2.1,-14.4 -11.4,-22.9 -27,-22.9 -18,0 -29.2,11.8 -29.2,31.2 0,19.3 10.5,31.4 28.9,31.4 z"
         style="font-weight:bold;-inkscape-font-specification:'Degular Semibold,  Bold'"
         id="path1274" /><path
         d="m 378.89838,529.5152 c 18.7,0 30.2,-11.6 30.2,-30.5 0,-19.1 -9.5,-29.5 -30.2,-29.5 h -24.4 v 60 z m -13,-50.5 h 11.5 c 14.4,0 20.3,5.9 20.3,20 0,13.5 -5.6,21.1 -19.7,21.1 h -12.1 z"
         style="font-weight:bold;-inkscape-font-specification:'Degular Semibold,  Bold'"
         id="path1276" /></g><g
       aria-label="Service inter-établissements de coopération documentaire"
       id="text20"
       style="font-size:62.6667px;line-height:0.9;font-family:Degular;-inkscape-font-specification:Degular-Regular;letter-spacing:0.75px;white-space:pre;inline-size:926.994;display:inline;fill:#224f7e;stroke-width:1.33333"><path
         d="m 224.44645,598.20453 c 9.964,0 14.03734,-4.26133 14.03734,-10.716 0,-5.20134 -2.69467,-8.89868 -13.34801,-10.90401 -8.52267,-1.75467 -10.59067,-3.948 -10.59067,-7.45734 0,-3.76 2.88267,-6.07867 8.71067,-6.07867 6.26667,0 8.52267,2.82001 9.776,8.27201 l 4.51201,-0.94 c -1.504,-6.76801 -5.26401,-11.15468 -14.10001,-11.15468 -8.83601,0 -13.34801,4.07334 -13.34801,10.15201 0,5.51467 3.25867,9.212 13.53601,11.09201 7.708,1.316 10.34,3.32133 10.34,7.332 0,3.948 -2.82,6.58 -9.4,6.58 -7.20667,0 -10.84134,-3.44667 -11.90667,-9.776 l -4.324,0.94 c 1.06533,7.58267 5.828,12.65867 16.10534,12.65867 z"
         id="path1165" /><path
         d="m 258.22175,598.20453 c 7.332,0 11.21734,-3.50933 12.65867,-9.27467 l -3.82267,-1.128 c -1.00266,3.69733 -3.07066,6.70534 -8.836,6.70534 -6.26667,0 -9.77601,-3.82267 -10.08934,-10.34001 h 22.81068 c 0.188,-1.19067 0.12533,-2.31867 0.12533,-3.07067 0,-8.02133 -4.38667,-13.41067 -12.972,-13.41067 -8.58534,0 -14.28801,5.76534 -14.28801,15.35334 0,9.52534 5.38933,15.16534 14.41334,15.16534 z m -10.02667,-17.35867 c 0.564,-6.32934 4.07333,-9.58801 9.776,-9.58801 6.07867,0 8.83601,3.50934 9.08667,9.58801 z"
         id="path1167" /><path
         d="m 282.40913,568.37518 h -4.19867 v 29.14002 h 4.324 v -14.97734 c 0,-7.01867 2.88267,-9.77601 9.33734,-9.77601 h 1.37866 v -4.7 h -1.19066 c -4.7,0 -7.83334,2.444 -9.27467,8.14667 h -0.376 z"
         id="path1169" /><path
         d="m 325.27105,568.37518 h -4.63733 l -4.19867,11.09201 c -1.75467,4.76267 -3.76,9.71334 -5.264,14.22534 h -1.12801 c -1.504,-4.57467 -3.384,-9.46267 -5.20133,-14.22534 l -4.324,-11.09201 h -4.70001 l 12.15734,29.14002 h 5.32667 z"
         id="path1171" /><path
         d="m 335.10776,568.37518 h -4.324 v 29.14002 h 4.324 z m 0.50133,-10.59067 h -5.32667 v 4.38667 h 5.32667 z"
         id="path1173" /><path
         d="m 370.32441,578.21385 c -1.316,-6.70533 -5.13867,-10.528 -13.09734,-10.528 -8.52267,0 -14.35068,5.64 -14.35068,15.29067 0,9.52534 5.45201,15.22801 14.53868,15.22801 7.58267,0 11.59334,-3.82267 13.03467,-10.528 l -4.01067,-1.06534 c -1.25333,4.26134 -3.008,7.70801 -9.08667,7.70801 -6.51734,0 -10.08934,-4.32401 -10.08934,-11.34268 0,-7.52 3.69734,-11.40534 9.90134,-11.40534 5.70267,0 8.02134,2.82001 9.08667,7.52001 z"
         id="path1175" /><path
         d="m 390.06239,598.20453 c 7.33201,0 11.21734,-3.50933 12.65868,-9.27467 l -3.82267,-1.128 c -1.00267,3.69733 -3.07067,6.70534 -8.83601,6.70534 -6.26667,0 -9.776,-3.82267 -10.08933,-10.34001 h 22.81067 c 0.188,-1.19067 0.12534,-2.31867 0.12534,-3.07067 0,-8.02133 -4.38667,-13.41067 -12.97201,-13.41067 -8.58534,0 -14.28801,5.76534 -14.28801,15.35334 0,9.52534 5.38934,15.16534 14.41334,15.16534 z m -10.02667,-17.35867 c 0.564,-6.32934 4.07334,-9.58801 9.77601,-9.58801 6.07867,0 8.836,3.50934 9.08667,9.58801 z"
         id="path1177" /><path
         d="m 428.22244,568.37518 h -4.324 v 29.14002 h 4.324 z m 0.50134,-10.59067 h -5.32667 v 4.38667 h 5.32667 z"
         id="path1179" /><path
         d="m 442.1951,568.37518 h -4.26134 v 29.14002 h 4.324 v -16.79468 c 0,-5.452 3.88534,-9.08667 9.71334,-9.08667 5.26401,0 7.01867,3.32134 7.01867,7.77067 v 18.11068 h 4.324 v -19.05068 c 0,-6.32934 -3.008,-10.77867 -9.83867,-10.77867 -5.264,0 -9.212,3.196 -10.77867,8.20934 h -0.50133 z"
         id="path1181" /><path
         d="m 468.88912,572.07252 h 4.76267 v 16.92001 c 0,5.452 2.632,9.212 8.46,9.212 2.44401,0 4.01067,-0.376 6.01601,-0.94 l -0.62667,-3.82267 c -1.75467,0.50134 -2.94533,0.752 -4.63734,0.752 -3.50933,0 -4.95066,-1.81733 -4.95066,-5.51467 v -16.60667 h 9.90133 v -3.69734 h -9.90133 v -8.39733 h -4.26134 v 8.39733 h -4.76267 z"
         id="path1183" /><path
         d="m 506.48726,598.20453 c 7.332,0 11.21734,-3.50933 12.65867,-9.27467 l -3.82267,-1.128 c -1.00266,3.69733 -3.07066,6.70534 -8.836,6.70534 -6.26667,0 -9.77601,-3.82267 -10.08934,-10.34001 h 22.81068 c 0.188,-1.19067 0.12533,-2.31867 0.12533,-3.07067 0,-8.02133 -4.38667,-13.41067 -12.972,-13.41067 -8.58534,0 -14.28801,5.76534 -14.28801,15.35334 0,9.52534 5.38934,15.16534 14.41334,15.16534 z m -10.02667,-17.35867 c 0.564,-6.32934 4.07333,-9.58801 9.776,-9.58801 6.07867,0 8.83601,3.50934 9.08667,9.58801 z"
         id="path1185" /><path
         d="m 530.67464,568.37518 h -4.19867 v 29.14002 h 4.324 v -14.97734 c 0,-7.01867 2.88267,-9.77601 9.33734,-9.77601 h 1.37867 v -4.7 h -1.19067 c -4.7,0 -7.83334,2.444 -9.27467,8.14667 h -0.376 z"
         id="path1187" /><path
         d="m 544.83529,584.41786 h 19.05067 v -4.136 h -19.05067 z"
         id="path1189" /><path
         d="m 582.68398,598.20453 c 7.332,0 11.21734,-3.50933 12.65867,-9.27467 l -3.82267,-1.128 c -1.00267,3.69733 -3.07067,6.70534 -8.836,6.70534 -6.26667,0 -9.77601,-3.82267 -10.08934,-10.34001 h 22.81068 c 0.188,-1.19067 0.12533,-2.31867 0.12533,-3.07067 0,-8.02133 -4.38667,-13.41067 -12.97201,-13.41067 -8.58533,0 -14.288,5.76534 -14.288,15.35334 0,9.52534 5.38933,15.16534 14.41334,15.16534 z M 572.6573,580.84586 c 0.564,-6.32934 4.07334,-9.58801 9.77601,-9.58801 6.07867,0 8.836,3.50934 9.08667,9.58801 z m 19.92801,-23.43735 -1.81733,-3.32133 -14.41334,8.39733 1.06533,2.19334 z"
         id="path1191" /><path
         d="m 599.60204,572.07252 h 4.76267 v 16.92001 c 0,5.452 2.632,9.212 8.46001,9.212 2.444,0 4.01066,-0.376 6.016,-0.94 l -0.62667,-3.82267 c -1.75467,0.50134 -2.94533,0.752 -4.63733,0.752 -3.50934,0 -4.95067,-1.81733 -4.95067,-5.51467 v -16.60667 h 9.90133 v -3.69734 h -9.90133 v -8.39733 h -4.26134 v 8.39733 h -4.76267 z"
         id="path1193" /><path
         d="m 632.43744,598.14186 c 5.32667,0 9.21201,-2.632 10.71601,-7.58267 h 0.50133 v 6.95601 h 4.07334 v -18.67468 c 0,-7.20667 -3.50934,-11.092 -11.34268,-11.092 -6.51733,0 -10.716,3.32133 -12.032,9.024 l 4.136,1.06533 c 1.00267,-4.26133 3.384,-6.45467 7.83334,-6.45467 5.264,0 7.144,2.69467 7.144,7.52001 v 2.69467 h -10.02667 c -6.95601,0 -10.21467,3.69733 -10.21467,8.52267 0,5.51467 3.50933,8.02133 9.212,8.02133 z m 11.02934,-11.34267 c 0,4.44934 -3.88534,7.77067 -9.83867,7.77067 -4.7,0 -6.204,-2.31866 -6.204,-4.82533 0,-3.32134 2.19333,-4.95067 6.51733,-4.95067 h 9.52534 z"
         id="path1195" /><path
         d="m 683.69678,582.97652 c 0,-9.776 -4.19867,-15.29067 -11.78134,-15.29067 -5.95333,0 -9.27467,3.572 -10.716,8.52267 h -0.376 v -18.92534 h -4.324 v 40.23202 h 4.324 v -7.95867 h 0.31333 c 1.44134,5.01333 5.076,8.648 11.09201,8.648 7.08133,0 11.468,-5.38933 11.468,-15.22801 z m -22.87334,-1.06533 c 0,-6.32934 3.76,-10.27734 9.588,-10.27734 6.07867,0 8.96134,3.63467 8.96134,11.34267 0,7.58267 -3.008,11.40534 -8.96134,11.40534 -5.828,0 -9.588,-4.19867 -9.588,-10.27734 z"
         id="path1197" /><path
         d="m 691.15211,557.28318 v 40.23202 h 4.26133 v -40.23202 z"
         id="path1199" /><path
         d="m 709.82478,568.37518 h -4.324 v 29.14002 h 4.324 z m 0.50134,-10.59067 h -5.32667 v 4.38667 h 5.32667 z"
         id="path1201" /><path
         d="m 730.50276,598.2672 c 7.95867,0 11.28001,-3.50934 11.28001,-8.58534 0,-4.7 -3.13334,-7.332 -11.15468,-8.648 -5.95333,-0.94 -7.708,-2.69467 -7.708,-5.26401 0,-2.94533 2.19333,-4.63733 6.45467,-4.63733 4.07333,0 6.392,1.56667 7.45734,6.016 l 4.01067,-0.94 c -1.37867,-5.20134 -4.01067,-8.52267 -11.40534,-8.52267 -7.08134,0 -10.71601,3.32133 -10.71601,8.272 0,4.51201 2.75734,7.20667 10.21467,8.46001 6.32934,1.06533 8.58534,2.31867 8.58534,5.38933 0,3.32134 -2.31867,4.95067 -6.956,4.95067 -6.14134,0 -8.39734,-3.07067 -9.40001,-7.08133 l -4.01067,0.81466 c 1.25334,6.01601 4.63734,9.77601 13.34801,9.77601 z"
         id="path1203" /><path
         d="m 759.64076,598.2672 c 7.95867,0 11.28001,-3.50934 11.28001,-8.58534 0,-4.7 -3.13334,-7.332 -11.15468,-8.648 -5.95333,-0.94 -7.708,-2.69467 -7.708,-5.26401 0,-2.94533 2.19333,-4.63733 6.45467,-4.63733 4.07334,0 6.392,1.56667 7.45734,6.016 l 4.01067,-0.94 c -1.37867,-5.20134 -4.01067,-8.52267 -11.40534,-8.52267 -7.08134,0 -10.71601,3.32133 -10.71601,8.272 0,4.51201 2.75734,7.20667 10.21467,8.46001 6.32934,1.06533 8.58534,2.31867 8.58534,5.38933 0,3.32134 -2.31867,4.95067 -6.956,4.95067 -6.14134,0 -8.39734,-3.07067 -9.40001,-7.08133 l -4.01067,0.81466 c 1.25334,6.01601 4.63734,9.77601 13.34801,9.77601 z"
         id="path1205" /><path
         d="m 790.2827,598.20453 c 7.332,0 11.21734,-3.50933 12.65867,-9.27467 l -3.82267,-1.128 c -1.00266,3.69733 -3.07066,6.70534 -8.836,6.70534 -6.26667,0 -9.776,-3.82267 -10.08934,-10.34001 h 22.81068 c 0.188,-1.19067 0.12533,-2.31867 0.12533,-3.07067 0,-8.02133 -4.38667,-13.41067 -12.972,-13.41067 -8.58534,0 -14.28801,5.76534 -14.28801,15.35334 0,9.52534 5.38934,15.16534 14.41334,15.16534 z m -10.02667,-17.35867 c 0.564,-6.32934 4.07333,-9.58801 9.776,-9.58801 6.07867,0 8.83601,3.50934 9.08667,9.58801 z"
         id="path1207" /><path
         d="m 814.53271,568.37518 h -4.26133 v 29.14002 h 4.324 v -16.79468 c 0,-5.452 3.88534,-9.08667 9.71334,-9.08667 5.076,0 7.01867,3.32134 7.01867,7.77067 v 18.11068 h 4.324 v -16.79468 c 0,-5.452 3.76,-9.08667 9.71334,-9.08667 5.076,0 7.01867,3.32134 7.01867,7.77067 v 18.11068 h 4.324 v -19.05068 c 0,-6.32934 -3.13333,-10.77867 -9.90134,-10.77867 -6.204,0 -9.65067,3.44667 -10.96667,8.71067 h -0.564 c -0.564,-5.264 -3.572,-8.71067 -9.4,-8.71067 -5.45201,0 -9.27468,3.13333 -10.84134,8.20934 h -0.50134 z"
         id="path1209" /><path
         d="m 877.88677,598.20453 c 7.332,0 11.21733,-3.50933 12.65867,-9.27467 l -3.82267,-1.128 c -1.00267,3.69733 -3.07067,6.70534 -8.836,6.70534 -6.26667,0 -9.77601,-3.82267 -10.08934,-10.34001 h 22.81068 c 0.188,-1.19067 0.12533,-2.31867 0.12533,-3.07067 0,-8.02133 -4.38667,-13.41067 -12.97201,-13.41067 -8.58534,0 -14.28801,5.76534 -14.28801,15.35334 0,9.52534 5.38934,15.16534 14.41335,15.16534 z m -10.02668,-17.35867 c 0.564,-6.32934 4.07334,-9.58801 9.77601,-9.58801 6.07867,0 8.836,3.50934 9.08667,9.58801 z"
         id="path1211" /><path
         d="m 902.13684,568.37518 h -4.26134 v 29.14002 h 4.32401 v -16.79468 c 0,-5.452 3.88533,-9.08667 9.71333,-9.08667 5.26401,0 7.01867,3.32134 7.01867,7.77067 v 18.11068 h 4.32401 v -19.05068 c 0,-6.32934 -3.008,-10.77867 -9.83867,-10.77867 -5.26401,0 -9.21201,3.196 -10.77868,8.20934 h -0.50133 z"
         id="path1213" /><path
         d="m 928.83083,572.07252 h 4.76267 v 16.92001 c 0,5.452 2.632,9.212 8.46001,9.212 2.444,0 4.01066,-0.376 6.016,-0.94 l -0.62667,-3.82267 c -1.75467,0.50134 -2.94533,0.752 -4.63733,0.752 -3.50934,0 -4.95067,-1.81733 -4.95067,-5.51467 v -16.60667 h 9.90134 v -3.69734 h -9.90134 v -8.39733 h -4.26134 v 8.39733 h -4.76267 z"
         id="path1215" /><path
         d="m 965.23823,598.2672 c 7.95867,0 11.28001,-3.50934 11.28001,-8.58534 0,-4.7 -3.13334,-7.332 -11.15467,-8.648 -5.95334,-0.94 -7.70801,-2.69467 -7.70801,-5.26401 0,-2.94533 2.19334,-4.63733 6.45467,-4.63733 4.07334,0 6.39201,1.56667 7.45734,6.016 l 4.01067,-0.94 c -1.37867,-5.20134 -4.01067,-8.52267 -11.40534,-8.52267 -7.08134,0 -10.71601,3.32133 -10.71601,8.272 0,4.51201 2.75734,7.20667 10.21468,8.46001 6.32933,1.06533 8.58533,2.31867 8.58533,5.38933 0,3.32134 -2.31866,4.95067 -6.956,4.95067 -6.14134,0 -8.39734,-3.07067 -9.4,-7.08133 l -4.01067,0.81466 c 1.25333,6.01601 4.63733,9.77601 13.348,9.77601 z"
         id="path1217" /><path
         d="m 208.59177,641.53989 c 0,9.77601 4.136,15.16534 11.59334,15.16534 5.76534,0 9.46267,-3.572 10.90401,-8.52267 h 0.376 v 7.83334 h 4.26133 v -40.23202 h -4.26133 v 18.98801 h -0.376 c -1.44134,-4.95067 -4.63734,-8.58534 -10.84134,-8.58534 -7.33201,0 -11.65601,5.38934 -11.65601,15.35334 z m 22.87335,1.128 c 0,6.20401 -3.82267,10.15201 -9.58801,10.15201 -6.016,0 -9.024,-3.76 -9.024,-11.28001 0,-7.58267 3.008,-11.40534 9.024,-11.40534 5.828,0 9.58801,4.19867 9.58801,10.27734 z"
         id="path1219" /><path
         d="m 257.28178,656.70523 c 7.33201,0 11.21734,-3.50933 12.65868,-9.27467 l -3.82267,-1.128 c -1.00267,3.69734 -3.07067,6.70534 -8.83601,6.70534 -6.26666,0 -9.776,-3.82267 -10.08933,-10.34001 h 22.81067 c 0.188,-1.19066 0.12534,-2.31867 0.12534,-3.07067 0,-8.02133 -4.38667,-13.41067 -12.97201,-13.41067 -8.58534,0 -14.28801,5.76534 -14.28801,15.35334 0,9.52534 5.38934,15.16534 14.41334,15.16534 z m -10.02667,-17.35867 c 0.564,-6.32934 4.07334,-9.58801 9.77601,-9.58801 6.07867,0 8.836,3.50934 9.08667,9.58801 z"
         id="path1221" /><path
         d="m 315.93384,636.71456 c -1.316,-6.70534 -5.13867,-10.52801 -13.09734,-10.52801 -8.52267,0 -14.35067,5.64 -14.35067,15.29068 0,9.52533 5.452,15.228 14.53867,15.228 7.58267,0 11.59334,-3.82267 13.03468,-10.528 l -4.01067,-1.06534 c -1.25334,4.26134 -3.008,7.70801 -9.08667,7.70801 -6.51734,0 -10.08934,-4.324 -10.08934,-11.34267 0,-7.52001 3.69733,-11.40534 9.90134,-11.40534 5.70267,0 8.02133,2.82 9.08667,7.52 z"
         id="path1223" /><path
         d="m 335.67183,656.70523 c 9.212,0 14.41334,-5.89067 14.41334,-15.35334 0,-9.46267 -5.828,-15.16534 -14.41334,-15.16534 -8.71067,0 -14.41334,5.64 -14.41334,15.16534 0,9.46267 5.20134,15.35334 14.41334,15.35334 z m 0,-26.69601 c 6.51734,0 10.08934,4.26133 10.08934,11.28 0,7.01868 -3.384,11.59334 -10.15201,11.59334 -6.768,0 -10.02667,-4.57466 -10.02667,-11.59334 0,-7.01867 3.572,-11.28 10.08934,-11.28 z"
         id="path1225" /><path
         d="m 369.63522,656.70523 c 9.21201,0 14.41334,-5.89067 14.41334,-15.35334 0,-9.46267 -5.828,-15.16534 -14.41334,-15.16534 -8.71067,0 -14.41334,5.64 -14.41334,15.16534 0,9.46267 5.20134,15.35334 14.41334,15.35334 z m 0,-26.69601 c 6.51734,0 10.08934,4.26133 10.08934,11.28 0,7.01868 -3.384,11.59334 -10.152,11.59334 -6.76801,0 -10.02667,-4.57466 -10.02667,-11.59334 0,-7.01867 3.572,-11.28 10.08933,-11.28 z"
         id="path1227" /><path
         d="m 418.32529,641.47723 c 0,-9.77601 -4.19867,-15.29068 -11.78134,-15.29068 -5.95333,0 -9.27467,3.572 -10.716,8.52267 h -0.376 v -7.83334 h -4.324 v 38.72802 h 4.324 v -17.54667 h 0.31333 c 1.44134,5.01333 5.076,8.648 11.09201,8.648 7.08133,0 11.468,-5.38933 11.468,-15.228 z m -22.87334,-1.06534 c 0,-6.32934 3.76,-10.27734 9.588,-10.27734 6.07867,0 8.96134,3.63467 8.96134,11.34268 0,7.58267 -3.008,11.40533 -8.96134,11.40533 -5.828,0 -9.588,-4.19866 -9.588,-10.27733 z"
         id="path1229" /><path
         d="m 437.87529,656.70523 c 7.332,0 11.21734,-3.50933 12.65867,-9.27467 l -3.82266,-1.128 c -1.00267,3.69734 -3.07067,6.70534 -8.83601,6.70534 -6.26667,0 -9.776,-3.82267 -10.08934,-10.34001 h 22.81068 c 0.188,-1.19066 0.12533,-2.31867 0.12533,-3.07067 0,-8.02133 -4.38666,-13.41067 -12.972,-13.41067 -8.58534,0 -14.28801,5.76534 -14.28801,15.35334 0,9.52534 5.38934,15.16534 14.41334,15.16534 z m -10.02667,-17.35867 c 0.564,-6.32934 4.07333,-9.58801 9.776,-9.58801 6.07867,0 8.83601,3.50934 9.08668,9.58801 z m 19.92801,-23.43735 -1.81734,-3.32133 -14.41334,8.39733 1.06534,2.19334 z"
         id="path1231" /><path
         d="M 462.06267,626.87588 H 457.864 v 29.14002 h 4.324 v -14.97734 c 0,-7.01867 2.88267,-9.77601 9.33734,-9.77601 h 1.37867 v -4.7 h -1.19067 c -4.7,0 -7.83334,2.444 -9.27467,8.14667 h -0.376 z"
         id="path1233" /><path
         d="m 486.25,656.64257 c 5.32667,0 9.21201,-2.63201 10.71601,-7.58267 h 0.50133 v 6.956 h 4.07334 v -18.67468 c 0,-7.20667 -3.50934,-11.092 -11.34268,-11.092 -6.51733,0 -10.716,3.32133 -12.032,9.024 l 4.136,1.06534 c 1.00267,-4.26134 3.384,-6.45467 7.83334,-6.45467 5.264,0 7.144,2.69466 7.144,7.52 v 2.69467 h -10.02667 c -6.956,0 -10.21467,3.69733 -10.21467,8.52267 0,5.51467 3.50933,8.02134 9.212,8.02134 z m 11.02934,-11.34268 c 0,4.44934 -3.88533,7.77067 -9.83867,7.77067 -4.7,0 -6.204,-2.31866 -6.204,-4.82533 0,-3.32134 2.19333,-4.95067 6.51733,-4.95067 h 9.52534 z"
         id="path1235" /><path
         d="m 507.17873,630.57322 h 4.76267 v 16.92001 c 0,5.452 2.632,9.212 8.46001,9.212 2.444,0 4.01066,-0.376 6.016,-0.94 l -0.62667,-3.82267 c -1.75467,0.50134 -2.94533,0.752 -4.63733,0.752 -3.50934,0 -4.95067,-1.81733 -4.95067,-5.51467 v -16.60667 h 9.90134 v -3.69734 h -9.90134 v -8.39733 h -4.26134 v 8.39733 h -4.76267 z"
         id="path1237" /><path
         d="m 537.6328,626.87588 h -4.324 v 29.14002 h 4.324 z m 0.50133,-10.59067 h -5.32667 v 4.38667 h 5.32667 z"
         id="path1239" /><path
         d="m 559.81477,656.70523 c 9.21201,0 14.41335,-5.89067 14.41335,-15.35334 0,-9.46267 -5.82801,-15.16534 -14.41335,-15.16534 -8.71067,0 -14.41334,5.64 -14.41334,15.16534 0,9.46267 5.20134,15.35334 14.41334,15.35334 z m 0,-26.69601 c 6.51734,0 10.08934,4.26133 10.08934,11.28 0,7.01868 -3.384,11.59334 -10.152,11.59334 -6.76801,0 -10.02667,-4.57466 -10.02667,-11.59334 0,-7.01867 3.572,-11.28 10.08933,-11.28 z"
         id="path1241" /><path
         d="m 585.56885,626.87588 h -4.26134 v 29.14002 h 4.324 v -16.79468 c 0,-5.452 3.88534,-9.08667 9.71334,-9.08667 5.264,0 7.01867,3.32134 7.01867,7.77067 v 18.11068 h 4.324 v -19.05068 c 0,-6.32933 -3.008,-10.77867 -9.83867,-10.77867 -5.264,0 -9.212,3.196 -10.77867,8.20934 h -0.50133 z"
         id="path1243" /><path
         d="m 626.61149,641.53989 c 0,9.77601 4.136,15.16534 11.59334,15.16534 5.76533,0 9.46267,-3.572 10.904,-8.52267 h 0.376 v 7.83334 h 4.26134 v -40.23202 h -4.26134 v 18.98801 h -0.376 c -1.44133,-4.95067 -4.63733,-8.58534 -10.84134,-8.58534 -7.332,0 -11.656,5.38934 -11.656,15.35334 z m 22.87334,1.128 c 0,6.20401 -3.82267,10.15201 -9.588,10.15201 -6.01601,0 -9.02401,-3.76 -9.02401,-11.28001 0,-7.58267 3.008,-11.40534 9.02401,-11.40534 5.828,0 9.588,4.19867 9.588,10.27734 z"
         id="path1245" /><path
         d="m 675.3015,656.70523 c 9.212,0 14.41334,-5.89067 14.41334,-15.35334 0,-9.46267 -5.828,-15.16534 -14.41334,-15.16534 -8.71067,0 -14.41334,5.64 -14.41334,15.16534 0,9.46267 5.20133,15.35334 14.41334,15.35334 z m 0,-26.69601 c 6.51734,0 10.08934,4.26133 10.08934,11.28 0,7.01868 -3.384,11.59334 -10.15201,11.59334 -6.768,0 -10.02667,-4.57466 -10.02667,-11.59334 0,-7.01867 3.572,-11.28 10.08934,-11.28 z"
         id="path1247" /><path
         d="m 722.29958,636.71456 c -1.316,-6.70534 -5.13867,-10.52801 -13.09734,-10.52801 -8.52267,0 -14.35067,5.64 -14.35067,15.29068 0,9.52533 5.452,15.228 14.53867,15.228 7.58267,0 11.59334,-3.82267 13.03468,-10.528 l -4.01067,-1.06534 c -1.25334,4.26134 -3.008,7.70801 -9.08667,7.70801 -6.51734,0 -10.08934,-4.324 -10.08934,-11.34267 0,-7.52001 3.69733,-11.40534 9.90134,-11.40534 5.70266,0 8.02133,2.82 9.08667,7.52 z"
         id="path1249" /><path
         d="m 750.37225,656.0159 h 4.26134 v -29.14002 h -4.324 v 16.79468 c 0,5.51467 -3.88534,9.08667 -9.71334,9.08667 -5.264,0 -7.01867,-3.384 -7.01867,-7.708 v -18.17335 h -4.324 v 19.05068 c 0,6.45467 3.008,10.77867 9.83867,10.77867 5.264,0 9.27467,-3.196 10.77867,-8.20933 h 0.50133 z"
         id="path1251" /><path
         d="m 767.91687,626.87588 h -4.26134 v 29.14002 h 4.32401 v -16.79468 c 0,-5.452 3.88533,-9.08667 9.71333,-9.08667 5.07601,0 7.01867,3.32134 7.01867,7.77067 v 18.11068 h 4.32401 v -16.79468 c 0,-5.452 3.76,-9.08667 9.71333,-9.08667 5.07601,0 7.01867,3.32134 7.01867,7.77067 v 18.11068 h 4.32401 v -19.05068 c 0,-6.32933 -3.13334,-10.77867 -9.90134,-10.77867 -6.204,0 -9.65067,3.44667 -10.96667,8.71067 h -0.564 c -0.564,-5.264 -3.57201,-8.71067 -9.40001,-8.71067 -5.452,0 -9.27467,3.13334 -10.84134,8.20934 h -0.50133 z"
         id="path1253" /><path
         d="m 831.27092,656.70523 c 7.332,0 11.21734,-3.50933 12.65867,-9.27467 l -3.82266,-1.128 c -1.00267,3.69734 -3.07067,6.70534 -8.83601,6.70534 -6.26667,0 -9.776,-3.82267 -10.08934,-10.34001 h 22.81068 c 0.188,-1.19066 0.12533,-2.31867 0.12533,-3.07067 0,-8.02133 -4.38667,-13.41067 -12.972,-13.41067 -8.58534,0 -14.28801,5.76534 -14.28801,15.35334 0,9.52534 5.38934,15.16534 14.41334,15.16534 z m -10.02667,-17.35867 c 0.564,-6.32934 4.07333,-9.58801 9.776,-9.58801 6.07867,0 8.83601,3.50934 9.08668,9.58801 z"
         id="path1255" /><path
         d="m 855.52099,626.87588 h -4.26133 v 29.14002 h 4.324 v -16.79468 c 0,-5.452 3.88534,-9.08667 9.71334,-9.08667 5.264,0 7.01867,3.32134 7.01867,7.77067 v 18.11068 h 4.324 v -19.05068 c 0,-6.32933 -3.008,-10.77867 -9.83867,-10.77867 -5.264,0 -9.212,3.196 -10.77867,8.20934 h -0.50134 z"
         id="path1257" /><path
         d="m 882.21499,630.57322 h 4.76267 v 16.92001 c 0,5.452 2.632,9.212 8.46,9.212 2.444,0 4.01067,-0.376 6.016,-0.94 l -0.62666,-3.82267 c -1.75467,0.50134 -2.94534,0.752 -4.63734,0.752 -3.50933,0 -4.95067,-1.81733 -4.95067,-5.51467 v -16.60667 h 9.90134 v -3.69734 h -9.90134 v -8.39733 h -4.26133 v 8.39733 h -4.76267 z"
         id="path1259" /><path
         d="m 915.05039,656.64257 c 5.32667,0 9.212,-2.63201 10.716,-7.58267 h 0.50134 v 6.956 h 4.07333 v -18.67468 c 0,-7.20667 -3.50933,-11.092 -11.34267,-11.092 -6.51734,0 -10.71601,3.32133 -12.03201,9.024 l 4.136,1.06534 c 1.00267,-4.26134 3.38401,-6.45467 7.83334,-6.45467 5.264,0 7.14401,2.69466 7.14401,7.52 v 2.69467 h -10.02668 c -6.956,0 -10.21467,3.69733 -10.21467,8.52267 0,5.51467 3.50934,8.02134 9.21201,8.02134 z m 11.02934,-11.34268 c 0,4.44934 -3.88534,7.77067 -9.83868,7.77067 -4.7,0 -6.204,-2.31866 -6.204,-4.82533 0,-3.32134 2.19334,-4.95067 6.51734,-4.95067 h 9.52534 z"
         id="path1261" /><path
         d="m 944.12572,626.87588 h -4.324 v 29.14002 h 4.324 z m 0.50133,-10.59067 h -5.32667 v 4.38667 h 5.32667 z"
         id="path1263" /><path
         d="m 958.03572,626.87588 h -4.19867 v 29.14002 h 4.324 v -14.97734 c 0,-7.01867 2.88267,-9.77601 9.33734,-9.77601 h 1.37867 v -4.7 h -1.19067 c -4.7,0 -7.83334,2.444 -9.27467,8.14667 h -0.376 z"
         id="path1265" /><path
         d="m 987.04845,656.70523 c 7.332,0 11.21734,-3.50933 12.65867,-9.27467 l -3.82267,-1.128 c -1.00267,3.69734 -3.07067,6.70534 -8.836,6.70534 -6.26667,0 -9.77601,-3.82267 -10.08934,-10.34001 h 22.81068 c 0.188,-1.19066 0.12533,-2.31867 0.12533,-3.07067 0,-8.02133 -4.38667,-13.41067 -12.97201,-13.41067 -8.58533,0 -14.288,5.76534 -14.288,15.35334 0,9.52534 5.38933,15.16534 14.41334,15.16534 z m -10.02667,-17.35867 c 0.564,-6.32934 4.07333,-9.58801 9.776,-9.58801 6.07867,0 8.83601,3.50934 9.08667,9.58801 z"
         id="path1267" /></g><path
       id="path32"
       style="fill:#ba2b3b;fill-opacity:1;fill-rule:nonzero;stroke:none;stroke-width:1.33333"
       d="m 173.9056,465.31694 v 81.79066 c 0,21.45467 -17.36667,38.82534 -38.81867,38.75334 v -120.544 z" /></g><path
     style="fill:none;stroke:#224f7e;stroke-width:2;stroke-linecap:butt;stroke-linejoin:miter;stroke-miterlimit:10;stroke-dasharray:none;stroke-opacity:1"
     d="M 135.08653,412.34307 H 1000.3158"
     id="hr-line" /><g
     id="font"
     transform="translate(0,400)"><text
       id="text1153"
       style="font-variant:normal;font-weight:600;font-stretch:normal;font-size:100px;font-family:'Degular Semibold';-inkscape-font-specification:Degular-Semibold;writing-mode:lr-tb;white-space:pre;inline-size:1229.74;display:inline;fill:#ba2b3b;fill-opacity:1;fill-rule:nonzero;stroke:none;stroke-width:1.33333"
       x="206.39839"
       y="529.5152"
       xml:space="preserve"><tspan
         x="206.39839"
         y="529.5152"
         id="tspan317"><tspan
           style="font-weight:bold;-inkscape-font-specification:'Degular Semibold,  Bold'"
           id="tspan315">Font : Degular </tspan></tspan><tspan
         x="206.39839"
         y="654.5152"
         id="tspan321"><tspan
           style="font-weight:bold;-inkscape-font-specification:'Degular Semibold,  Bold'"
           id="tspan319">Semibold</tspan></tspan></text><text
       id="text1159"
       style="font-variant:normal;font-weight:normal;font-stretch:normal;font-size:62.6667px;line-height:0.9;font-family:Degular;-inkscape-font-specification:Degular-Regular;letter-spacing:0.75px;writing-mode:lr-tb;white-space:pre;inline-size:926.994;display:inline;fill:#224f7e;fill-opacity:1;fill-rule:nonzero;stroke:none;stroke-width:1.33333"
       x="206.39839"
       y="597.5152"
       xml:space="preserve"><tspan
         x="206.39839"
         y="597.5152"
         id="tspan323">Degular Regular</tspan></text><path
       id="path1161"
       style="fill:#ba2b3b;fill-opacity:1;fill-rule:nonzero;stroke:none;stroke-width:1.33333"
       d="m 173.9056,465.31694 v 81.79066 c 0,21.45467 -17.36667,38.82534 -38.81867,38.75334 v -120.544 z" /></g><g
     id="g59722"
     transform="matrix(0.32589407,0,0,0.32589407,134.20247,161.9132)"><path
       class="cls-1"
       d="m 552.58,50.43 h -68.01 v 103.33 c 0,34.38 -27.89,62.22 -62.27,62.11 V 50.44 H 355.73 V 22.7 L 552.575,22.695 Z M 422.31,340.28 v 10.9 c 0.25,53.92 52.2,153.62 6.52,195.16 -0.26,0.24 -0.53,0.45 -0.79,0.68 36.92,-33.89 56.27,-85.51 56.54,-166.63 V 266.22 l -14.69,5.46 c -28.67,10.67 -47.45,38 -47.57,68.6 z"
       id="path59172"
       sodipodi:nodetypes="ccsccccccccccccccc" /><path
       class="cls-2"
       d="M 346.42,590.33 C 338.22,595.81 280.37,613.14 235.53,613 175.07,612.8 123.86,602.59 88.23,583.22 25.14,547.31 -0.28,477.69 0,391.58 L 1.23,22.69 h 165.1 l -1.28,388.69 c -0.61,185.09 111.61,187.68 181.37,178.95 z m 75.89,-239.15 v 47.06 c -0.3,90.29 -20.52,164.6 -75.06,191.63 -0.28,0.14 -0.54,0.32 -0.82,0.46 0.84,-0.25 1.62,-0.55 2.46,-0.81 3.86,-1.07 14.41,-4.25 27.8,-10.16 1.17,-0.52 2.35,-1.04 3.57,-1.6 2.26,-1.02 4.43,-2.11 6.62,-3.19 5.16,-2.59 10.55,-5.59 16,-8.93 1.75,-1.07 3.44,-2.2 5.13,-3.32 4.62,-3.04 9.23,-6.29 13.74,-9.93 2.13,-1.76 4.26,-3.51 6.29,-5.37 0.26,-0.23 0.53,-0.44 0.79,-0.68 45.69,-41.53 -6.27,-141.24 -6.52,-195.16 z"
       id="path59174"
       sodipodi:nodetypes="cccccccccccccccccccccc"
       style="fill:url(#D%C3%A9grad%C3%A9_sans_nom_21)" /><path
       class="cls-1"
       d="m 718.55,313.1 h -1.53 c -5.24,17.69 -17.48,29.93 -35.83,29.93 -23.6,0 -37.36,-19 -37.36,-53.74 0,-34.74 13.98,-54.63 38.02,-54.4 18.57,-0.23 29.93,11.58 35.17,29.49 h 1.53 v -64.44 h 23.37 V 340.2 h -23.37 v -27.09 z m 0,-19.67 v -7.85 c 0,-17.71 -10.27,-29.5 -26.22,-29.5 -17.05,0 -25.34,10.7 -25.34,33.21 0,22.51 7.87,32.77 25.34,32.77 15.73,0 26.22,-11.15 26.22,-28.62 z m 41.95,-3.27 c 0,-34.74 19.67,-55.27 51.78,-55.27 32.11,0 46.1,18.78 46.1,46.96 0,3.94 0,8.52 -0.43,13.77 h -74.07 c 1.75,18.57 11.15,27.97 28.62,27.97 16.38,0 22.06,-7.87 24.9,-17.69 l 20.1,5.67 c -4.8,18.57 -17.69,31.25 -45.22,31.25 -31.46,0 -51.78,-18.35 -51.78,-52.65 z m 23.6,-10.27 h 52.66 c -0.87,-17.69 -8.74,-26.88 -25.12,-26.88 -16.38,0 -25.34,8.52 -27.53,26.88 z M 909.52,209.1 h 105.74 v 22.94 h -40.42 v 108.15 h -24.9 V 232.04 h -40.42 z m 106.41,79.53 c 0,-33.87 20.32,-53.74 52.21,-53.74 31.89,0 51.78,19.87 51.78,53.74 0,33.87 -19.23,54.4 -51.78,54.4 -32.55,0 -52.21,-20.75 -52.21,-54.4 z m 23.6,-0.22 c 0,21.19 8.74,34.3 28.4,34.3 19.66,0 28.62,-13.11 28.62,-34.3 0,-21.19 -9.61,-33.65 -28.62,-33.65 -19.01,0 -28.4,12.45 -28.4,33.65 z m 168.01,24.69 h -2.18 c -5.68,19.01 -18.79,29.93 -35.83,29.93 -21.63,0 -31.9,-14.64 -31.9,-36.92 V 237.5 h 23.6 v 62.49 c 0,12.45 5.46,21.63 19.45,21.63 15.95,0 26.22,-10.49 26.22,-26 V 237.5 h 23.6 v 102.69 h -22.94 V 313.1 Z m 71.67,27.09 h -23.6 V 199.93 h 23.6 z m 19.23,-51.56 c 0,-33.87 20.32,-53.74 52.21,-53.74 31.89,0 51.78,19.87 51.78,53.74 0,33.87 -19.23,54.4 -51.78,54.4 -32.55,0 -52.21,-20.75 -52.21,-54.4 z m 23.6,-0.22 c 0,21.19 8.74,34.3 28.4,34.3 19.66,0 28.62,-13.11 28.62,-34.3 0,-21.19 -9.61,-33.65 -28.62,-33.65 -19.01,0 -28.4,12.45 -28.4,33.65 z m 168.01,24.69 h -2.18 c -5.68,19.01 -18.79,29.93 -35.83,29.93 -21.63,0 -31.9,-14.64 -31.9,-36.92 V 237.5 h 23.6 v 62.49 c 0,12.45 5.46,21.63 19.45,21.63 15.95,0 26.22,-10.49 26.22,-26 V 237.5 h 23.6 v 102.69 h -22.94 V 313.1 Z m 40.21,-3.28 21.19,-4.37 c 3.28,12.45 10.49,20.33 27.09,20.33 12.45,0 19.01,-4.38 19.01,-13.12 0,-8.08 -5.69,-12.01 -26,-15.73 -27.31,-5.46 -36.92,-14.63 -36.92,-31.68 0,-18.57 13.54,-30.36 40.85,-30.36 27.31,0 37.8,11.58 41.95,29.71 l -21.2,4.59 c -2.84,-12.68 -8.95,-17.48 -21.19,-17.48 -12.24,0 -18.14,4.59 -18.14,12.23 0,7.21 4.37,12.23 23.82,15.73 30.37,5.67 39.55,15.95 39.55,32.12 0,19 -12.68,31.23 -42.17,31.23 -33.21,0 -44.13,-13.54 -47.84,-33.21 z m 102.25,-19.66 c 0,-34.74 19.67,-55.27 51.78,-55.27 32.11,0 46.1,18.78 46.1,46.96 0,3.94 0,8.52 -0.43,13.77 h -74.07 c 1.75,18.57 11.15,27.97 28.62,27.97 16.38,0 22.06,-7.87 24.9,-17.69 l 20.1,5.67 c -4.8,18.57 -17.69,31.25 -45.22,31.25 -31.46,0 -51.78,-18.35 -51.78,-52.65 z m 23.6,-10.27 h 52.66 c -0.87,-17.69 -8.74,-26.88 -25.12,-26.88 -16.38,0 -25.34,8.52 -27.53,26.88 z"
       id="path59176" /><path
       class="cls-1"
       d="M 737.33,102.46 V 23.15 h 24.69 v 81.06 c 0,34.08 -19.23,52.65 -54.84,52.65 -35.61,0 -56.59,-18.35 -56.59,-52.65 V 23.15 h 24.91 v 78.65 c 0,19.66 7.43,32.99 31.68,32.99 24.25,0 30.14,-12.45 30.14,-32.33 z"
       id="path59178" /><path
       class="cls-1"
       d="M 810.75,154.24 H 787.37 V 51.55 h 22.94 v 27.1 h 1.97 c 5.68,-19.01 18.79,-29.71 36.05,-29.71 21.41,0 31.68,14.41 31.68,36.7 v 68.6 H 856.63 V 91.75 c 0,-12.45 -5.46,-21.62 -19.66,-21.62 -15.73,0 -26.22,10.49 -26.22,26 z"
       id="path59180" /><rect
       class="cls-1"
       x="903.82001"
       y="15.07"
       width="25.559999"
       height="19"
       id="rect59182" /><rect
       class="cls-1"
       x="904.70001"
       y="51.549999"
       width="23.6"
       height="102.69"
       id="rect59184" /><path
       class="cls-1"
       d="m 1010.23,91.32 c -4.59,14.2 -9.39,28.84 -13.33,42.82 h -4.37 C 988.6,120.16 983.79,105.96 979.2,91.32 L 966.53,51.55 h -25.57 l 38.02,102.69 H 1010 l 37.8,-102.69 h -24.9 z"
       id="path59186" /><path
       class="cls-1"
       d="m 1104.83,48.94 c -32.12,0 -51.77,20.53 -51.77,55.27 0,34.74 20.31,52.65 51.77,52.65 27.53,0 40.42,-12.68 45.23,-31.25 l -20.1,-5.68 c -2.84,9.83 -8.52,17.7 -24.91,17.7 -17.48,0 -26.87,-9.4 -28.62,-27.96 h 74.06 c 0.44,-5.24 0.44,-9.83 0.44,-13.77 0,-28.18 -15.07,-46.97 -46.1,-46.97 z m -28.18,45 c 2.18,-18.35 11.58,-26.88 27.52,-26.88 15.94,0 24.25,9.18 25.13,26.88 z"
       id="path59188" /><path
       class="cls-1"
       d="m 1194.19,82.58 -1.97,-0.22 V 51.55 h -22.29 v 102.69 h 23.38 v -48.72 c 0,-20.98 7.64,-28.62 29.27,-28.62 h 5.69 V 50.46 h -3.72 c -14.86,0 -24.47,7.22 -30.37,32.12 z"
       id="path59190" /><path
       class="cls-1"
       d="m 1287.49,93.72 c -19.44,-3.5 -23.81,-8.52 -23.81,-15.73 0,-7.65 6.12,-12.23 18.13,-12.23 12.01,0 18.35,4.8 21.19,17.48 l 21.19,-4.59 c -4.15,-18.14 -13.77,-29.71 -41.95,-29.71 -28.18,0 -40.86,11.79 -40.86,30.36 0,17.05 9.61,26.22 36.92,31.68 20.32,3.72 26,7.65 26,15.73 0,8.74 -6.55,13.12 -19,13.12 -16.61,0 -23.82,-7.87 -27.09,-20.33 l -21.19,4.37 c 3.72,19.67 14.64,33.21 47.85,33.21 29.5,0 42.16,-12.24 42.16,-31.23 0,-16.17 -9.17,-26.44 -39.54,-32.12 z"
       id="path59192" /><rect
       class="cls-1"
       x="1345.61"
       y="15.07"
       width="25.559999"
       height="19"
       id="rect59194" /><rect
       class="cls-1"
       x="1346.48"
       y="51.549999"
       width="23.59"
       height="102.69"
       id="rect59196" /><path
       class="cls-1"
       d="m 1439.56,135.01 c -10.27,0 -13.98,-5.24 -13.98,-15.3 V 70.56 h 30.15 V 51.55 h -30.15 V 23.81 h -23.59 v 27.74 h -14.42 v 19.01 h 14.42 v 52.43 c 0,19.23 9.61,34.08 32.12,34.08 10.26,0 15.51,-1.3 23.16,-3.71 l -2.83,-20.97 c -5.03,1.53 -9.61,2.62 -14.86,2.62 z"
       id="path59198" /><path
       class="cls-1"
       d="m 1565.83,95.9 c 0,-28.18 -15.07,-46.97 -46.1,-46.97 -31.03,0 -51.78,20.53 -51.78,55.27 0,34.74 20.32,52.65 51.78,52.65 27.53,0 40.42,-12.68 45.22,-31.25 l -20.1,-5.68 c -2.84,9.83 -8.52,17.7 -24.9,17.7 -17.48,0 -26.88,-9.4 -28.63,-27.96 h 74.07 c 0.43,-5.24 0.43,-9.83 0.43,-13.77 z m -74.28,-1.96 c 2.19,-18.35 11.58,-26.88 27.53,-26.88 15.95,0 24.25,9.18 25.12,26.88 z"
       id="path59200" /><path
       d="m 1496.8958,29.487399 51.0231,-29.44952886 8.7082,16.76443386 -53.8355,24.194723 z"
       id="path59393"
       class="cls-1" /></g></svg>
