<?xml version="1.0" encoding="UTF-8" standalone="no"?>
<svg
   version="1.1"
   viewBox="0 0 200 100"
   id="svg112"
   sodipodi:docname="URFIST-2023.svg"
   width="200"
   height="100"
   inkscape:version="1.2.2 (b0a8486541, 2022-12-01)"
   xmlns:inkscape="http://www.inkscape.org/namespaces/inkscape"
   xmlns:sodipodi="http://sodipodi.sourceforge.net/DTD/sodipodi-0.dtd"
   xmlns="http://www.w3.org/2000/svg"
   xmlns:svg="http://www.w3.org/2000/svg">
  <defs
     id="defs116" />
  <sodipodi:namedview
     id="namedview114"
     pagecolor="#ffffff"
     bordercolor="#000000"
     borderopacity="0.25"
     inkscape:showpageshadow="2"
     inkscape:pageopacity="0.0"
     inkscape:pagecheckerboard="0"
     inkscape:deskcolor="#d1d1d1"
     showgrid="false"
     inkscape:zoom="28.480375"
     inkscape:cx="181.61629"
     inkscape:cy="88.850655"
     inkscape:window-width="1850"
     inkscape:window-height="1136"
     inkscape:window-x="0"
     inkscape:window-y="0"
     inkscape:window-maximized="1"
     inkscape:current-layer="svg112" />
  <path
     fill="#f05726"
     d="M 81.378484,20.094197 C 54.522564,18.587281 25.891169,14.133675 0.78088351,4.1298443 q -0.0969797,-0.0373 -0.0596798,-0.1417396 v 0 q 0.0372999,-0.09698 0.14173958,-0.06714 C 19.900807,10.918424 41.475062,13.618936 61.893022,14.588733 107.86886,16.781967 154.27739,11.157143 198.86567,0.01939654 q 0.38046,-0.09697971 0.38046,0.29093914 V 9.262309 a 0.61917816,0.61171818 78.8 0 1 -0.373,0.5669584 q -3.75982,1.6113556 -7.71361,2.5289326 -11.89121,2.767652 -23.98383,4.393927 -42.73821,5.759103 -85.797206,3.34207 z"
     id="path4"
     style="stroke-width:0.745998" />
  <path
     fill="#f05726"
     d="m 157.97008,56.498888 c -1.55168,-2.752731 -9.69052,-1.954514 -12.43579,-1.961974 -5.28166,-0.01492 -10.61555,-2.073874 -11.39138,-8.191055 q -1.32788,-10.406669 8.60881,-13.002742 10.09335,-2.633372 21.96964,0.820598 a 0.28347916,0.27601918 8.3 0 1 0.20142,0.268559 l 0.007,5.960522 a 0.15665953,0.16411951 8 0 1 -0.20142,0.15666 q -13.02513,-3.51365 -19.56007,-1.111537 c -4.3417,1.603895 -5.2369,8.228356 0.17904,8.452155 7.13174,0.290939 18.53805,-1.439776 20.70144,8.108996 q 0.79076,3.50619 -0.26856,6.497641 c -3.85681,10.913947 -22.00693,8.519294 -30.28751,6.303681 q -0.20142,-0.05222 -0.20142,-0.253639 l -0.0373,-6.139562 q -0.007,-0.20142 0.1865,-0.13428 c 4.87883,1.603896 18.04569,4.185048 22.1636,-0.604258 q 1.97689,-2.305133 0.36554,-5.169765 z"
     id="path6"
     style="stroke-width:0.745998" />
  <path
     fill="#f05726"
     d="m 18.192472,63.653007 c 4.326787,1.514376 11.495825,1.044397 13.793499,-3.797129 q 0.895197,-1.879914 0.895197,-6.975079 0,-9.95907 0.01492,-19.93306 0,-0.380459 0.380459,-0.380459 h 6.863179 q 0.372999,0 0.380459,0.372999 0.04476,10.570788 0,21.126657 -0.02238,5.691963 -1.126456,8.302955 C 35.738339,71.016005 24.048554,71.590424 16.103678,69.889549 7.5097835,68.039474 5.1151306,61.303114 5.1748104,53.268718 q 0.08206,-10.16795 0.1491996,-20.335899 0,-0.365539 0.3580789,-0.365539 h 7.0347591 q 0.358079,0 0.358079,0.358079 0.04476,11.771845 0.246179,23.49893 0.08952,5.557683 4.871366,7.228718 z"
     id="path8"
     style="stroke-width:0.745998" />
  <path
     fill="#f05726"
     d="m 56.947056,39.30364 v 30.563529 q 0,0.372999 -0.372999,0.372999 h -7.086978 q -0.372999,0 -0.372999,-0.372999 v -36.91197 q 0,-0.343159 0.350619,-0.350619 9.86955,-0.13428 19.642121,0.0373 c 4.408847,0.0746 9.160853,1.738175 10.451429,6.311142 2.320053,8.176135 -2.252913,11.346626 -8.459615,14.934875 q -0.425218,0.23872 -0.119359,0.619178 L 83.221098,69.85971 a 0.23125931,0.23125931 0 0 1 -0.179039,0.380459 h -9.078793 q -0.313319,0 -0.499819,-0.25364 Q 67.711804,62.377351 61.952701,54.820393 C 60.997824,53.567117 61.147024,52.48542 61.258924,51.030725 q 0.0373,-0.380459 0.402838,-0.462519 c 3.274931,-0.731078 6.027662,-1.260736 8.698334,-3.46889 1.842615,-1.514375 2.693052,-5.721803 0.23872,-7.340618 -2.170854,-1.439775 -8.407395,-0.910117 -13.308601,-0.805677 q -0.343159,0.0075 -0.343159,0.350619 z"
     id="path10"
     style="stroke-width:0.745998" />
  <path
     fill="#f05726"
     d="m 94.433445,38.960481 v 8.840073 a 0.24617927,0.24617927 0 0 0 0.246179,0.24618 h 17.784586 a 0.24617927,0.24617927 0 0 1 0.24618,0.246179 v 5.841163 a 0.24617927,0.24617927 0 0 1 -0.24618,0.246179 l -17.784586,0.0075 a 0.24617927,0.24617927 0 0 0 -0.246179,0.246179 v 15.360094 a 0.24617927,0.24617927 0 0 1 -0.246179,0.24618 h -7.154119 a 0.24617927,0.24617927 0 0 1 -0.246179,-0.24618 V 32.813459 a 0.24617927,0.24617927 0 0 1 0.246179,-0.246179 h 26.356103 a 0.24617927,0.24617927 0 0 1 0.24618,0.246179 l 0.007,5.662123 a 0.24617927,0.24617927 0 0 1 -0.24618,0.246179 l -18.717086,-0.0075 a 0.24617927,0.24617927 0 0 0 -0.246179,0.24618 z"
     id="path12"
     style="stroke-width:0.745998" />
  <rect
     fill="#f05726"
     x="119.98387"
     y="32.56728"
     width="7.6390171"
     height="37.67289"
     rx="0.22379935"
     id="rect14"
     style="stroke-width:0.745998" />
  <path
     fill="#f05726"
     d="M 179.60401,38.908261 H 168.5334 a 0.24617927,0.24617927 0 0 1 -0.24617,-0.246179 l 0.007,-5.848623 a 0.24617927,0.24617927 0 0 1 0.24617,-0.246179 h 30.45163 a 0.24617927,0.24617927 0 0 1 0.24618,0.246179 l 0.007,5.848623 a 0.24617927,0.24617927 0 0 1 -0.24618,0.246179 h -11.0706 a 0.24617927,0.24617927 0 0 0 -0.24618,0.246179 v 30.839548 a 0.24617927,0.24617927 0 0 1 -0.24618,0.24618 h -7.34062 a 0.24617927,0.24617927 0 0 1 -0.24618,-0.24618 V 39.15444 a 0.24617927,0.24617927 0 0 0 -0.24618,-0.246179 z"
     id="path16"
     style="stroke-width:0.745998" />
  <rect
     fill="#f05726"
     x="125.95185"
     y="79.0131"
     width="2.044034"
     height="2.044034"
     rx="0.32823902"
     id="rect18"
     style="stroke-width:0.745998;fill:#f05726;fill-opacity:1" />
  <rect
     fill="#f05726"
     x="178.87059"
     y="78.691788"
     transform="rotate(0.09999992)"
     width="2.044034"
     height="2.044034"
     rx="0.31331906"
     id="rect20"
     style="stroke-width:0.745998;fill:#f05726;fill-opacity:1" />
  <path
     fill="#f05726"
     d="m 134.71732,86.465619 v 9.794951 a 2.1484736,2.1410136 89.9 0 0 2.14848,2.148474 l 2.32751,-0.0075 q 0.373,0 0.373,0.372999 l 0.007,0.790757 q 0,0.343159 -0.3357,0.335699 c -3.29731,-0.05968 -6.43796,0.126821 -6.4305,-4.304407 q 0.0224,-6.617 0.0522,-13.047501 0,-0.387919 0.39538,-0.380459 l 0.69378,0.01492 q 0.3357,0.0075 0.373,0.343159 l 0.1865,1.715795 q 0.0448,0.365539 0.41029,0.358079 h 4.11791 a 0.59679822,0.58933825 0 0 1 0.5968,0.589338 v 0.313319 q 0,0.589338 -0.5968,0.589338 h -3.94633 q -0.373,0 -0.373,0.372999 z"
     id="path22"
     style="stroke-width:0.745998;fill:#f05726;fill-opacity:1" />
  <path
     id="path24"
     style="stroke-width:0.745998;fill:#f05726;fill-opacity:1"
     d="M 83.623047 84.457031 L 81.220703 84.476562 A 6.5573205 6.5573205 0 0 0 74.720703 91.091797 L 74.742188 93.449219 A 6.5573205 6.5573205 0 0 0 81.357422 99.949219 L 83.757812 99.927734 A 6.5573205 6.5573205 0 0 0 90.257812 93.3125 L 90.238281 90.955078 A 6.5573205 6.5573205 0 0 0 83.623047 84.457031 z M 83.035156 85.908203 C 85.977565 85.877389 88.37153 88.221653 88.402344 91.164062 L 88.423828 93.146484 C 88.454642 96.088894 86.110378 98.482858 83.167969 98.513672 L 81.945312 98.527344 C 79.002903 98.558158 76.608939 96.213894 76.578125 93.271484 L 76.556641 91.287109 C 76.525827 88.3447 78.870091 85.950736 81.8125 85.919922 L 83.035156 85.908203 z " />
  <path
     fill="#f05726"
     d="m 95.492762,86.502919 c 2.484172,-2.387193 7.273478,-2.133553 10.272388,-1.656115 q 0.58934,0.08952 0.5968,0.678858 l 0.007,0.432679 q 0.007,0.552038 -0.53712,0.447598 c -4.59535,-0.917577 -9.593531,-0.634098 -10.250009,4.580427 -0.872817,6.937779 4.826609,8.243275 10.205249,7.004919 a 0.50727849,0.51473847 76.7 0 1 0.61172,0.372999 l 0.0671,0.305859 q 0.17904,0.753458 -0.58934,0.872817 c -4.45361,0.71616 -10.279849,0.84298 -11.958344,-4.528206 -0.887737,-2.819872 -0.596798,-6.415581 1.574056,-8.511835 z"
     id="path26"
     style="stroke-width:0.745998;fill:#f05726;fill-opacity:1" />
  <path
     fill="#f05726"
     d="m 111.83011,88.927412 q -1.31295,2.461793 -0.14174,5.729263 c 1.50692,4.199967 6.16941,4.222347 9.75765,3.32715 a 0.50727849,0.50727849 0 0 1 0.61172,0.372999 l 0.0821,0.320779 A 0.70123791,0.70123791 0 0 1 121.5878,99.5355 c -5.11008,0.8952 -11.10044,0.5222 -12.20452,-5.430863 -1.66357,-8.899754 5.40102,-10.36937 12.17468,-9.235453 a 0.55949834,0.55949834 0 0 1 0.46998,0.537118 l 0.0224,0.663938 q 0.007,0.410299 -0.39538,0.328239 c -3.20033,-0.619178 -7.95979,-0.954877 -9.82479,2.528933 z"
     id="path28"
     style="stroke-width:0.745998;fill:#f05726;fill-opacity:1" />
  <rect
     fill="#f05726"
     x="125.95185"
     y="84.608078"
     width="1.8649944"
     height="15.278034"
     rx="0.29093912"
     id="rect30"
     style="stroke-width:0.745998;fill:#f05726;fill-opacity:1" />
  <path
     id="path32"
     style="stroke-width:0.745998;fill:#f05726;fill-opacity:1"
     d="M 148.45117 84.53125 C 146.7801 84.547135 145.14035 84.811192 143.99805 85.0625 C 143.62007 85.142073 143.38923 85.372028 143.30469 85.75 L 143.21484 86.130859 C 143.10543 86.618244 143.29386 86.797275 143.78125 86.667969 C 146.11871 86.041331 148.48195 85.905593 150.86914 86.263672 A 2.7751117 2.7676518 88.3 0 1 153.15039 88.419922 L 153.41211 89.658203 C 153.64088 90.722492 153.21593 91.192692 152.13672 91.068359 C 149.95095 90.80726 144.88484 90.553033 143.10938 92.253906 C 141.43088 93.88018 141.28228 97.42386 143.45312 98.871094 C 146.09395 100.63911 150.45859 99.877922 153.13672 98.617188 A 0.39537882 0.38791885 66.4 0 1 153.67383 98.833984 L 153.98633 99.677734 A 0.50727849 0.50727849 0 0 0 154.91211 99.722656 C 155.01655 99.51875 155.06836 99.261471 155.06836 98.953125 C 155.06343 95.859724 155.054 92.752147 155.03906 89.628906 C 155.03409 88.087179 154.70423 86.96207 154.05273 86.255859 C 152.79806 84.900476 150.59969 84.510826 148.45117 84.53125 z M 148.79883 92.337891 C 150.42009 92.307637 152.04758 92.50491 153.02344 92.619141 C 153.25718 92.644007 153.375 92.776906 153.375 93.015625 L 153.35938 96.505859 C 153.35938 96.774418 153.24351 96.968531 153.00977 97.087891 C 150.824 98.214345 146.38528 99.282446 144.37109 97.365234 C 143.53557 96.564531 143.40552 95.527074 143.98242 94.253906 C 144.64123 92.793617 146.71435 92.376788 148.79883 92.337891 z " />
  <path
     fill="#f05726"
     d="m 161.88656,86.14484 c 3.80459,-2.081334 11.88375,-3.20033 11.83899,3.48381 q -0.0373,5.072785 -0.0373,9.92177 a 0.37299889,0.37299889 0 0 1 -0.38792,0.372999 l -1.11154,-0.04476 q -0.38046,-0.01492 -0.373,-0.395378 0.0448,-4.699786 0.007,-9.511472 c -0.0448,-5.818783 -6.99745,-3.976168 -9.80241,-2.111174 q -0.2611,0.17158 -0.2611,0.484899 V 99.54296 a 0.38045887,0.37299889 1.1 0 1 -0.39537,0.372999 l -1.11154,-0.0373 q -0.35808,-0.01492 -0.35808,-0.372999 l 0.007,-14.532036 q 0,-0.372999 0.36554,-0.372999 l 0.746,0.0075 q 0.36554,0 0.38046,0.365539 l 0.0224,0.902657 q 0.0149,0.514739 0.46997,0.268559 z"
     id="path34"
     style="stroke-width:0.745998;fill:#f05726;fill-opacity:1" />
  <rect
     fill="#f05726"
     x="178.92516"
     y="84.600624"
     width="1.6710351"
     height="15.292954"
     rx="0.37299889"
     id="rect36"
     style="stroke-width:0.745998;fill:#f05726;fill-opacity:1" />
  <path
     id="path38"
     style="fill:#f05726;fill-opacity:1;stroke-width:0.745998"
     d="m 192.22461,84.546875 c -0.98793,-0.0024 -1.92036,0.08941 -2.49805,0.255859 -4.44614,1.298035 -5.10937,5.341137 -4.57226,9.294922 0.85044,6.266374 8.49591,6.519664 13.12109,5.117188 0.27819,-0.08455 0.41482,-0.272981 0.41016,-0.566406 l -0.006,-0.65625 c -0.003,-0.207665 -0.20767,-0.352023 -0.4043,-0.285157 -2.1435,0.686318 -4.31351,0.864463 -6.51172,0.53125 -1.83018,-0.273532 -3.23226,-1.20169 -4.16488,-2.719918 -0.93262,-1.518228 -0.84246,-2.860411 -0.84246,-2.860411 0,0 1.12495,-0.03881 1.82179,-0.03881 h 10.11524 c 0.25363,0 0.39965,-0.122428 0.43945,-0.371094 0.60178,-3.570839 -0.54871,-5.967971 -3.45312,-7.191406 -0.82246,-0.348288 -2.18488,-0.506684 -3.45508,-0.509766 z m 0.74023,1.53125 c 2.54046,-0.02447 4.61924,2.084057 4.64063,4.707031 v 0.111328 c 5.6e-4,0.103784 -0.0837,0.188058 -0.1875,0.1875 l -10.71567,0.0055 c -0.10485,-1.458689 2.18924,-4.973797 4.72543,-4.997639 z"
     sodipodi:nodetypes="ccccccccccssccscccccccc" />
</svg>
